<svg xmlns="http://www.w3.org/2000/svg" xmlns:xlink="http://www.w3.org/1999/xlink" viewBox="0 0 43 43">
  <defs>
    <style>
      .cls-1 {
        fill: #fff;
        stroke-width: 1.5px;
      }

      .cls-1, .cls-2 {
        stroke: #9b9b9b;
      }

      .cls-2 {
        fill: #9b9b9b;
      }

      .cls-3 {
        stroke: none;
      }

      .cls-4 {
        fill: none;
      }

      .cls-5 {
        filter: url(#Ellipse_2);
      }
    </style>
    <filter id="Ellipse_2" x="0" y="0" width="43" height="43" filterUnits="userSpaceOnUse">
      <feOffset dy="2" input="SourceAlpha"/>
      <feGaussianBlur stdDeviation="1" result="blur"/>
      <feFlood flood-opacity="0.161"/>
      <feComposite operator="in" in2="blur"/>
      <feComposite in="SourceGraphic"/>
    </filter>
  </defs>
  <g id="vergleichliste" transform="translate(-1095 -327)">
    <g class="cls-5" transform="matrix(1, 0, 0, 1, 1095, 327)">
      <g id="Ellipse_2-2" data-name="Ellipse 2" class="cls-1" transform="translate(3 1)">
        <circle class="cls-3" cx="18.5" cy="18.5" r="18.5"/>
        <circle class="cls-4" cx="18.5" cy="18.5" r="17.75"/>
      </g>
    </g>
    <g id="icon" transform="translate(1107.696 338.754)">
      <path id="Path_2" data-name="Path 2" class="cls-2" d="M13.042,3.883a.342.342,0,0,1,0-.683H24.05a.342.342,0,1,1,0,.683Z" transform="translate(-7.879 -1.923)"/>
      <path id="Path_3" data-name="Path 3" class="cls-2" d="M13.042,19.783a.342.342,0,0,1,0-.683H24.05a.342.342,0,1,1,0,.683Z" transform="translate(-7.879 -11.788)"/>
      <path id="Path_4" data-name="Path 4" class="cls-2" d="M13.042,35.783a.342.342,0,0,1,0-.683H24.05a.342.342,0,1,1,0,.683Z" transform="translate(-7.879 -21.714)"/>
      <path id="Path_5" data-name="Path 5" class="cls-2" d="M1.518,3.137A1.518,1.518,0,1,1,3.037,1.618,1.5,1.5,0,0,1,1.518,3.137Zm0-2.353a.835.835,0,1,0,.835.835A.819.819,0,0,0,1.518.783Z"/>
      <path id="Path_6" data-name="Path 6" class="cls-2" d="M1.518,19.037a1.518,1.518,0,1,1,1.518-1.518A1.5,1.5,0,0,1,1.518,19.037Zm0-2.353a.835.835,0,1,0,.835.835A.843.843,0,0,0,1.518,16.683Z" transform="translate(0 -9.865)"/>
      <path id="Path_7" data-name="Path 7" class="cls-2" d="M1.518,35.037a1.518,1.518,0,1,1,1.518-1.518A1.5,1.5,0,0,1,1.518,35.037Zm0-2.353a.835.835,0,1,0,.835.835A.843.843,0,0,0,1.518,32.683Z" transform="translate(0 -19.791)"/>
    </g>
  </g>
</svg>
