<svg xmlns="http://www.w3.org/2000/svg" viewBox="0 0 55.1 48.8">
  <defs>
    <style>
      .cls-1 {
        fill: #202020;
      }
    </style>
  </defs>
  <g id="Ebene_2" data-name="Ebene 2">
    <g id="Ebene_1-2" data-name="Ebene 1">
      <path class="cls-1" d="M20.12,48.8a6.17,6.17,0,1,1,6.16-6.17A6.18,6.18,0,0,1,20.12,48.8Zm0-8.29a2.13,2.13,0,1,0,2.12,2.12A2.12,2.12,0,0,0,20.12,40.51Z"/>
      <path class="cls-1" d="M44.81,48.8A6.17,6.17,0,1,1,51,42.63,6.18,6.18,0,0,1,44.81,48.8Zm0-8.29a2.13,2.13,0,1,0,2.12,2.12A2.12,2.12,0,0,0,44.81,40.51Z"/>
      <path class="cls-1" d="M53,6.1H13.32l-.87-4.27A2.3,2.3,0,0,0,10.2,0H.91A.91.91,0,0,0,0,.91V3.13A.91.91,0,0,0,.91,4H8.79l7.26,35.35H47A2,2,0,0,0,49,37a2.09,2.09,0,0,0-2.1-1.68H19.33l-1-5.09H48.35a2.36,2.36,0,0,0,2.3-1.84l4.4-19.77A2.1,2.1,0,0,0,53,6.1ZM47,26.22H17.46L14.15,10.14H50.58Z"/>
    </g>
  </g>
</svg>
