<svg xmlns="http://www.w3.org/2000/svg" viewBox="0 0 43.13 48.75">
  <defs>
    <style>
      .cls-1 {
        fill: #202020;
      }
    </style>
  </defs>
  <g id="Ebene_2" data-name="Ebene 2">
    <g id="Ebene_1-2" data-name="Ebene 1">
      <path class="cls-1" d="M21.56,27.48A13.74,13.74,0,1,1,35.31,13.74,13.76,13.76,0,0,1,21.56,27.48ZM21.56,4a9.72,9.72,0,1,0,9.72,9.72A9.73,9.73,0,0,0,21.56,4Z"/>
      <path class="cls-1" d="M38,48.75H5.09A4.83,4.83,0,0,1,.44,45.24,12,12,0,0,1,4,33.12c3.19-3.07,7.59-4.63,10.45-3.71a25.86,25.86,0,0,0,7.07,1.32h0a25.84,25.84,0,0,0,7.08-1.32c2.86-.92,7.25.64,10.45,3.71a12,12,0,0,1,3.6,12.12A4.84,4.84,0,0,1,38,48.75ZM12.66,33.16A9.55,9.55,0,0,0,6.83,36a8.07,8.07,0,0,0-2.51,8.12.8.8,0,0,0,.77.58H38a.81.81,0,0,0,.78-.58A8.07,8.07,0,0,0,36.3,36c-2.43-2.35-5.35-3.14-6.43-2.79a28.89,28.89,0,0,1-8.32,1.51,29,29,0,0,1-8.29-1.51A2.13,2.13,0,0,0,12.66,33.16Z"/>
    </g>
  </g>
</svg>
