<svg xmlns="http://www.w3.org/2000/svg" viewBox="0 0 48.67 42.72">
  <defs>
    <style>
      .cls-1 {
        fill: #202020;
      }
    </style>
  </defs>
  <g id="Ebene_2" data-name="Ebene 2">
    <g id="Ebene_1-2" data-name="Ebene 1">
      <path class="cls-1" d="M24.33,42.72a4.74,4.74,0,0,1-3.45-1.47L4.57,24.31A16.11,16.11,0,0,1,.21,16,13.11,13.11,0,0,1,4.5,3.82h0A12.79,12.79,0,0,1,14.1,0c4.47.23,8.16,2.89,10.12,4.62C28.54.83,36.63-2.93,44.13,3.79A12.89,12.89,0,0,1,48.45,16a16.11,16.11,0,0,1-4.36,8.32L27.78,41.25A4.76,4.76,0,0,1,24.33,42.72ZM13.45,4A9,9,0,0,0,7.23,6.74h0a9,9,0,0,0-3.08,8.54,12.18,12.18,0,0,0,3.3,6.26L23.76,38.48a.79.79,0,0,0,.57.24.77.77,0,0,0,.57-.25L41.21,21.54a12.26,12.26,0,0,0,3.3-6.26,8.85,8.85,0,0,0-3-8.51C33.85,0,26,8.42,25.71,8.78L24.2,10.46l-1.49-1.7s-4-4.51-8.84-4.75Z"/>
    </g>
  </g>
</svg>
