<svg xmlns="http://www.w3.org/2000/svg" viewBox="0 0 48.73 48.71">
  <defs>
    <style>
      .cls-1 {
        fill: #202020;
      }
    </style>
  </defs>
  <g id="Ebene_2" data-name="Ebene 2">
    <g id="Ebene_1-2" data-name="Ebene 1">
      <path class="cls-1" d="M48.37,44.67,36.84,33.13a1.41,1.41,0,0,0-.91-.4H34.34a19.7,19.7,0,1,0-1.56,1.57V36a1.38,1.38,0,0,0,.4.85l11.5,11.51a1.2,1.2,0,0,0,1.7,0l2-2A1.2,1.2,0,0,0,48.37,44.67ZM19.67,35.3A15.63,15.63,0,1,1,35.3,19.67,15.65,15.65,0,0,1,19.67,35.3Z"/>
    </g>
  </g>
</svg>
