<svg id="farbe" xmlns="http://www.w3.org/2000/svg" viewBox="0 0 456.3 75.1">
	<defs>
		<style>
			.cls-1{fill:#191919;}.cls-2{fill:#d4cac9;}.cls-3{fill:#f07e11;}.cls-4{fill:#fcc303;}.cls-5{fill:#035492;}.cls-5,.cls-9{stroke:#000100;stroke-linecap:round;stroke-linejoin:round;stroke-width:0.28px;}.cls-6{fill:#038a8f;}.cls-7{fill:#009741;}.cls-8{fill:#95c11f;}.cls-9{fill:#fff;}.cls-10{fill:#e30d18;}.cls-11{font-size:12px;fill:#1d1d1b;font-family:MyriadPro-Regular, Myriad Pro;}.cls-12{letter-spacing:-0.01em;}.cls-13{letter-spacing:0em;}.cls-14{letter-spacing:0em;}.cls-15{letter-spacing:-0.01em;}.cls-16{letter-spacing:0em;}.cls-17{letter-spacing:0em;}.cls-18{letter-spacing:0em;}
		</style>
	</defs>
	<rect class="cls-1" y="0.14" width="34.02" height="34.02" rx="5.67" />
	<rect class="cls-2" y="40.94" width="34.02" height="34.02" rx="5.67" />
	<rect class="cls-3" x="181.33" y="0.14" width="34.02" height="34.02" rx="5.67" />
	<rect class="cls-4" x="181.33" y="40.94" width="34.02" height="34.02" rx="5.67" />
	<rect class="cls-5" x="272" y="40.94" width="34.02" height="34.02" rx="5.67" />
	<rect class="cls-6" x="272" y="0.14" width="34.02" height="34.02" rx="5.67" />
	<rect class="cls-7" x="362.67" y="0.14" width="34.02" height="34.02" rx="5.67" />
	<rect class="cls-8" x="362.67" y="40.94" width="34.02" height="34.02" rx="5.67" />
	<rect class="cls-9" x="90.67" y="0.14" width="34.02" height="34.02" rx="5.67" />
	<rect class="cls-10" x="90.67" y="40.94" width="34.02" height="34.02" rx="5.67" />
	<text class="cls-11" transform="translate(38.07 20.67)">
		black
	</text>
	<text class="cls-11" transform="translate(129.78 20.67)">
		whi
		<tspan class="cls-12" x="18.3" y="0">
			t
		</tspan>
		<tspan x="22.2" y="0">
			e
		</tspan>
	</text>
	<text class="cls-11" transform="translate(220.42 20.67)">
		o
		<tspan class="cls-13" x="6.59" y="0">
			r
		</tspan>
		<tspan class="cls-14" x="10.45" y="0">
			ange
		</tspan>
	</text>
	<text class="cls-11" transform="translate(312.25 20.67)">
		pet
		<tspan class="cls-15" x="16.81" y="0">
			r
		</tspan>
		<tspan x="20.62" y="0">
			ol
		</tspan>
	</text>
	<text class="cls-11" transform="translate(401.7 20.67)">
		<tspan class="cls-12">
			g
		</tspan>
		<tspan class="cls-15" x="6.64" y="0">
			r
		</tspan>
		<tspan x="10.44" y="0">
			een
		</tspan>
	</text>
	<text class="cls-11" transform="translate(38.07 61.47)">
		<tspan class="cls-12">
			g
		</tspan>
		<tspan class="cls-15" x="6.64" y="0">
			r
		</tspan>
		<tspan x="10.44" y="0">
			ey
		</tspan>
	</text>
	<text class="cls-11" transform="translate(129.78 61.47)">
		<tspan class="cls-15">
			r
		</tspan>
		<tspan x="3.8" y="0">
			ed
		</tspan>
	</text>
	<text class="cls-11" transform="translate(220.42 61.47)">
		gold
	</text>
	<text class="cls-11" transform="translate(312.25 61.47)">
		da
		<tspan class="cls-16" x="12.55" y="0">
			r
		</tspan>
		<tspan x="16.52" y="0">
			k blue
		</tspan>
	</text>
	<text class="cls-11" transform="translate(401.7 61.47)">
		lig
		<tspan class="cls-17" x="12.35" y="0">
			h
		</tspan>
		<tspan class="cls-18" x="18.96" y="0">
			t
		</tspan>
		<tspan class="cls-12" x="25.48" y="0">
			g
		</tspan>
		<tspan class="cls-15" x="32.11" y="0">
			r
		</tspan>
		<tspan x="35.92" y="0">
			een
		</tspan>
	</text>
</svg>
