<svg id="Ebene_1" data-name="Ebene 1" xmlns="http://www.w3.org/2000/svg" viewBox="0 0 533.11 91.4"><rect id="black" x="7.04" y="6.57" width="34.02" height="34.02" rx="5.67" style="fill:#0b0a0c;opacity:0.85"/><rect id="light_grey" data-name="light grey" x="7.04" y="49.24" width="34.02" height="34.02" rx="5.67" style="fill:#cbbcb3;opacity:0.85"/><rect id="yellow" x="183.69" y="6.57" width="34.02" height="34.02" rx="5.67" style="fill:#ffff01;opacity:0.85"/><rect id="orange" x="183.69" y="49.24" width="34.02" height="34.02" rx="5.67" style="fill:#ff6b0a;opacity:0.85"/><rect id="red" x="272.01" y="49.24" width="34.02" height="34.02" rx="5.67" style="fill:#fe0606;opacity:0.85"/><rect id="gold" x="272.01" y="6.57" width="34.02" height="34.02" rx="5.67" style="fill:#fdbf11;opacity:0.85"/><rect id="purple" x="360.33" y="6.57" width="34.02" height="34.02" rx="5.67" style="fill:#c8037f;opacity:0.85"/><rect id="sky_blue" data-name="sky blue" x="360.33" y="49.24" width="34.02" height="34.02" rx="5.67" style="fill:#4bbad6;opacity:0.85"/><rect id="blue" x="448.66" y="6.57" width="34.02" height="34.02" rx="5.67" style="fill:#1455a0;opacity:0.85"/><rect id="torqoise" x="448.66" y="49.24" width="34.02" height="34.02" rx="5.67" style="fill:#2e7772;opacity:0.85"/><rect id="white" x="95.36" y="6.57" width="34.02" height="34.02" rx="5.67" style="fill:#fff;stroke:#010203;stroke-linecap:round;stroke-linejoin:round;stroke-width:0.28346499999999997px;opacity:0.85"/><rect id="dark_grey" data-name="dark grey" x="95.36" y="49.24" width="34.02" height="34.02" rx="5.67" style="fill:#8b817b;opacity:0.85"/><text transform="translate(45.4 26.6)" style="font-size:12px;font-family:Calibri">black</text><text transform="translate(45.4 62.06)" style="font-size:12px;font-family:Calibri">lig<tspan x="11.16" y="0" style="letter-spacing:-0.00927734375em">h</tspan><tspan x="17.35" y="0">t</tspan><tspan x="0" y="14.4">g</tspan><tspan x="5.65" y="14.4" style="letter-spacing:-0.01318359375em">r</tspan><tspan x="9.67" y="14.4" style="letter-spacing:-0.00634765625em">e</tspan><tspan x="15.57" y="14.4">y</tspan></text><text transform="translate(133.61 26.6)" style="font-size:12px;font-family:Calibri">whi<tspan x="17.64" y="0" style="letter-spacing:-0.0107421875em">t</tspan><tspan x="21.53" y="0">e</tspan></text><text transform="translate(133.61 62.06)" style="font-size:12px;font-family:Calibri">dark<tspan x="0" y="14.4">g</tspan><tspan x="5.65" y="14.4" style="letter-spacing:-0.01318359375em">r</tspan><tspan x="9.67" y="14.4" style="letter-spacing:-0.00634765625em">e</tspan><tspan x="15.57" y="14.4">y</tspan></text><text transform="translate(221.81 19.4)" style="font-size:12px;font-family:Calibri">neon<tspan x="0" y="14.4" style="letter-spacing:-0.01220703125em">y</tspan><tspan x="5.29" y="14.4">ell</tspan><tspan x="16.76" y="14.4" style="letter-spacing:-0.00390625em">o</tspan><tspan x="23.04" y="14.4">w</tspan></text><text transform="translate(221.81 62.06)" style="font-size:12px;font-family:Calibri">neon<tspan x="0" y="14.4">o</tspan><tspan x="6.33" y="14.4" style="letter-spacing:-0.0205078125em">r</tspan><tspan x="10.27" y="14.4">an</tspan><tspan x="22.32" y="14.4" style="letter-spacing:-0.00830078125em">g</tspan><tspan x="27.87" y="14.4" xml:space="preserve">e          </tspan></text><text transform="translate(310.02 26.6)" style="font-size:12px;font-family:Calibri"><tspan style="letter-spacing:-0.0068359375em">g</tspan><tspan x="5.57" y="0">old</tspan></text><text transform="translate(310.02 69.26)" style="font-size:12px;font-family:Calibri"><tspan style="letter-spacing:-0.01318359375em">r</tspan><tspan x="4.03" y="0">ed</tspan></text><text transform="translate(398.22 26.6)" style="font-size:12px;font-family:Calibri">purple</text><text transform="translate(398.22 62.06)" style="font-size:12px;font-family:Calibri">sky<tspan x="0" y="14.4">blue</tspan></text><text transform="translate(486.43 26.6)" style="font-size:12px;font-family:Calibri">blue</text><text transform="translate(486.43 69.26)" style="font-size:12px;font-family:Calibri"><tspan style="letter-spacing:-0.009765625em">t</tspan><tspan x="3.9" y="0">o</tspan><tspan x="10.23" y="0" style="letter-spacing:-0.013671875em">r</tspan><tspan x="14.25" y="0">quise</tspan></text></svg>