<svg xmlns="http://www.w3.org/2000/svg" viewBox="0 0 822.19 272.84"><defs><style>.cls-1{fill:none;stroke:#000;stroke-linecap:round;stroke-linejoin:round;stroke-width:0.14px;}</style></defs><g id="Farbe4"><polygon class="cls-1" points="775.28 117.5 772.97 116.08 770.67 114.69 768.36 113.33 766.05 112 763.75 110.7 761.44 109.43 759.14 108.19 756.83 106.98 754.53 105.8 752.23 104.65 749.92 103.53 747.62 102.43 745.32 101.37 743.01 100.33 740.71 99.33 738.41 98.36 736.11 97.41 733.8 96.49 731.5 95.61 729.2 94.75 726.9 93.92 725.09 93.3 725.09 49.06 775.28 71.62 775.28 117.5"/><polygon class="cls-1" points="46.91 71.62 97.1 49.06 97.1 93.3 95.29 93.92 92.99 94.75 90.69 95.61 88.39 96.49 86.08 97.41 83.78 98.36 81.48 99.33 79.18 100.33 76.88 101.37 74.57 102.43 72.27 103.53 69.96 104.65 67.66 105.8 65.36 106.98 63.05 108.19 60.75 109.43 58.44 110.7 56.14 112 53.83 113.33 51.52 114.69 49.22 116.08 46.91 117.5 46.91 71.62"/></g><g id="Farbe5"><polygon class="cls-1" points="97.1 93.3 97.59 93.13 99.89 92.36 102.19 91.62 104.49 90.91 106.79 90.23 109.09 89.58 111.39 88.96 113.69 88.37 115.99 87.81 118.29 87.28 120.59 86.78 122.88 86.3 125.18 85.86 127.48 85.45 129.78 85.06 132.07 84.71 134.37 84.39 136.67 84.09 138.96 83.82 141.26 83.59 143.55 83.38 145.85 83.2 148.14 83.06 150.44 82.94 152.73 82.85 155.03 82.79 157.32 82.76 157.32 218.67 157.32 255.42 97.1 245.95 97.1 93.3"/><polygon class="cls-1" points="725.09 93.3 725.09 245.95 664.87 255.42 664.87 218.67 664.87 82.76 667.16 82.79 669.46 82.85 671.75 82.94 674.05 83.06 676.34 83.2 678.64 83.38 680.93 83.59 683.23 83.82 685.52 84.09 687.82 84.39 690.12 84.71 692.41 85.06 694.71 85.45 697.01 85.86 699.31 86.3 701.6 86.78 703.9 87.28 706.2 87.81 708.5 88.37 710.8 88.96 713.1 89.58 715.4 90.23 717.7 90.91 720 91.62 722.3 92.36 724.6 93.13 725.09 93.3"/></g><g id="Farbe6"><polygon class="cls-1" points="725.09 93.3 724.6 93.13 722.3 92.36 720 91.62 717.7 90.91 715.4 90.23 713.1 89.58 710.8 88.96 708.5 88.37 706.2 87.81 703.9 87.28 701.6 86.78 699.31 86.3 697.01 85.86 694.71 85.45 692.41 85.06 690.12 84.71 687.82 84.39 685.52 84.09 683.23 83.82 680.93 83.59 678.64 83.38 676.34 83.2 674.05 83.06 671.75 82.94 669.46 82.85 667.16 82.79 664.87 82.76 664.87 29.9 725.09 49.06 725.09 93.3"/><polygon class="cls-1" points="97.1 93.3 97.1 49.06 157.32 29.9 157.32 82.76 155.03 82.79 152.73 82.85 150.44 82.94 148.14 83.06 145.85 83.2 143.55 83.38 141.26 83.59 138.96 83.82 136.67 84.09 134.37 84.39 132.07 84.71 129.78 85.06 127.48 85.45 125.18 85.86 122.88 86.3 120.59 86.78 118.29 87.28 115.99 87.81 113.69 88.37 111.39 88.96 109.09 89.58 106.79 90.23 104.49 90.91 102.19 91.62 99.89 92.36 97.59 93.13 97.1 93.3"/></g><g id="Farbe7"><polygon class="cls-1" points="596.92 148.21 599.11 149.63 601.26 151.08 603.38 152.57 605.46 154.09 607.5 155.65 609.51 157.24 611.49 158.87 613.42 160.53 615.32 162.23 617.19 163.97 619.02 165.73 620.81 167.54 622.57 169.38 624.29 171.25 625.98 173.16 627.63 175.1 629.24 177.08 630.82 179.1 632.37 181.15 633.87 183.23 635.35 185.35 636.78 187.5 638.18 189.69 639.54 191.92 640.87 194.18 642.16 196.47 643.42 198.8 644.64 201.17 645.83 203.57 646.97 206 648.09 208.47 649.16 210.98 650.2 213.52 651.21 216.09 652.18 218.7 653.11 221.35 654.01 224.03 654.87 226.74 655.7 229.49 656.49 232.28 657.24 235.1 657.96 237.96 658.64 240.84 659.29 243.77 659.9 246.73 660.48 249.73 661.02 252.76 661.52 255.82 596.92 263.67 596.92 148.21"/><polygon class="cls-1" points="225.27 148.21 225.27 263.67 160.67 255.82 161.17 252.76 161.71 249.73 162.29 246.73 162.9 243.77 163.54 240.84 164.23 237.96 164.95 235.1 165.7 232.28 166.49 229.49 167.32 226.74 168.18 224.03 169.08 221.35 170.01 218.7 170.98 216.09 171.99 213.52 173.03 210.98 174.1 208.47 175.22 206 176.37 203.57 177.55 201.17 178.77 198.8 180.03 196.47 181.32 194.18 182.65 191.92 184.01 189.69 185.41 187.5 186.84 185.35 188.32 183.23 189.82 181.15 191.37 179.1 192.94 177.08 194.56 175.1 196.21 173.16 197.9 171.25 199.62 169.38 201.38 167.54 203.17 165.73 205 163.97 206.87 162.23 208.77 160.53 210.71 158.87 212.68 157.24 214.69 155.65 216.73 154.09 218.81 152.57 220.93 151.08 223.08 149.63 225.27 148.21"/></g><g id="Farbe8"><polygon class="cls-1" points="596.92 110.2 599.32 112.22 601.68 114.25 604 116.29 606.27 118.34 608.5 120.4 610.7 122.47 612.85 124.55 614.95 126.64 617.02 128.75 619.04 130.86 621.02 132.98 622.96 135.11 624.86 137.25 626.72 139.41 628.53 141.57 630.3 143.74 632.03 145.92 633.72 148.12 635.36 150.32 636.97 152.53 638.53 154.76 640.05 156.99 641.53 159.24 642.97 161.49 644.36 163.76 645.71 166.03 647.02 168.32 648.29 170.61 649.52 172.92 650.71 175.23 651.85 177.56 652.95 179.9 654.01 182.24 655.03 184.6 656 186.97 656.93 189.34 657.83 191.73 658.68 194.13 659.49 196.54 660.25 198.95 660.98 201.38 661.66 203.82 662.3 206.27 662.89 208.73 663.45 211.2 663.97 213.68 664.44 216.17 664.87 218.67 664.87 255.42 661.52 255.82 661.02 252.76 660.48 249.73 659.9 246.73 659.29 243.77 658.64 240.84 657.96 237.96 657.24 235.1 656.49 232.28 655.7 229.49 654.87 226.74 654.01 224.03 653.11 221.35 652.18 218.7 651.21 216.09 650.2 213.52 649.16 210.98 648.09 208.47 646.97 206 645.83 203.57 644.64 201.17 643.42 198.8 642.16 196.47 640.87 194.18 639.54 191.92 638.18 189.69 636.78 187.5 635.35 185.35 633.87 183.23 632.37 181.15 630.82 179.1 629.24 177.08 627.63 175.1 625.98 173.16 624.29 171.25 622.57 169.38 620.81 167.54 619.02 165.73 617.19 163.97 615.32 162.23 613.42 160.53 611.49 158.87 609.51 157.24 607.5 155.65 605.46 154.09 603.38 152.57 601.26 151.08 599.11 149.63 596.92 148.21 596.92 110.2"/><polygon class="cls-1" points="225.27 110.2 225.27 148.21 223.08 149.63 220.93 151.08 218.81 152.57 216.73 154.09 214.69 155.65 212.68 157.24 210.71 158.87 208.77 160.53 206.87 162.23 205 163.97 203.17 165.73 201.38 167.54 199.62 169.38 197.9 171.25 196.21 173.16 194.56 175.1 192.94 177.08 191.37 179.1 189.82 181.15 188.32 183.23 186.84 185.35 185.41 187.5 184.01 189.69 182.65 191.92 181.32 194.18 180.03 196.47 178.77 198.8 177.55 201.17 176.37 203.57 175.22 206 174.1 208.47 173.03 210.98 171.99 213.52 170.98 216.09 170.01 218.7 169.08 221.35 168.18 224.03 167.32 226.74 166.49 229.49 165.7 232.28 164.95 235.1 164.23 237.96 163.54 240.84 162.9 243.77 162.29 246.73 161.71 249.73 161.17 252.76 160.67 255.82 157.32 255.42 157.32 218.67 157.75 216.17 158.22 213.68 158.74 211.2 159.29 208.73 159.89 206.27 160.53 203.82 161.22 201.38 161.94 198.95 162.71 196.54 163.51 194.13 164.36 191.73 165.25 189.34 166.19 186.97 167.16 184.6 168.18 182.24 169.24 179.9 170.34 177.56 171.49 175.23 172.67 172.92 173.9 170.61 175.16 168.32 176.48 166.03 177.83 163.76 179.22 161.49 180.66 159.24 182.14 156.99 183.66 154.76 185.22 152.53 186.83 150.32 188.47 148.12 190.16 145.92 191.89 143.74 193.66 141.57 195.47 139.41 197.33 137.25 199.23 135.11 201.17 132.98 203.15 130.86 205.17 128.75 207.24 126.64 209.34 124.55 211.49 122.47 213.69 120.4 215.92 118.34 218.19 116.29 220.51 114.25 222.87 112.22 225.27 110.2"/></g><g id="Farbe9"><polygon class="cls-1" points="225.27 110.2 222.87 112.22 220.51 114.25 218.19 116.29 215.92 118.34 213.69 120.4 211.49 122.47 209.34 124.55 207.24 126.64 205.17 128.75 203.15 130.86 201.17 132.98 199.23 135.11 197.33 137.25 195.47 139.41 193.66 141.57 191.89 143.74 190.16 145.92 188.47 148.12 186.83 150.32 185.22 152.53 183.66 154.76 182.14 156.99 180.66 159.24 179.22 161.49 177.83 163.76 176.48 166.03 175.16 168.32 173.9 170.61 172.67 172.92 171.49 175.23 170.34 177.56 169.24 179.9 168.18 182.24 167.16 184.6 166.19 186.97 165.25 189.34 164.36 191.73 163.51 194.13 162.71 196.54 161.94 198.95 161.22 201.38 160.53 203.82 159.89 206.27 159.29 208.73 158.74 211.2 158.22 213.68 157.75 216.17 157.32 218.67 157.32 82.76 157.32 29.9 225.27 15.04 225.27 74.3 225.27 110.2"/><polygon class="cls-1" points="596.92 110.2 596.92 74.3 596.92 15.04 664.87 29.9 664.87 82.76 664.87 218.67 664.44 216.17 663.97 213.68 663.45 211.2 662.89 208.73 662.3 206.27 661.66 203.82 660.98 201.38 660.25 198.95 659.49 196.54 658.68 194.13 657.83 191.73 656.93 189.34 656 186.97 655.03 184.6 654.01 182.24 652.95 179.9 651.85 177.56 650.71 175.23 649.52 172.92 648.29 170.61 647.02 168.32 645.71 166.03 644.36 163.76 642.97 161.49 641.53 159.24 640.05 156.99 638.53 154.76 636.97 152.53 635.36 150.32 633.72 148.12 632.03 145.92 630.3 143.74 628.53 141.57 626.72 139.41 624.86 137.25 622.96 135.11 621.02 132.98 619.04 130.86 617.02 128.75 614.95 126.64 612.85 124.55 610.7 122.47 608.5 120.4 606.27 118.34 604 116.29 601.68 114.25 599.32 112.22 596.92 110.2"/></g><g id="Farbe10"><polygon class="cls-1" points="225.27 74.3 230.19 73.8 235.04 73.36 239.81 73 244.5 72.7 249.1 72.46 253.63 72.3 258.09 72.2 262.46 72.17 266.75 72.21 270.96 72.31 275.1 72.49 279.16 72.73 283.13 73.03 287.03 73.41 290.85 73.85 294.59 74.36 297.36 74.8 297.36 269.62 225.27 263.67 225.27 148.21 225.27 110.2 225.27 74.3"/><polygon class="cls-1" points="596.92 74.3 596.92 110.2 596.92 148.21 596.92 263.67 524.83 269.62 524.83 74.8 527.6 74.36 531.34 73.85 535.16 73.41 539.06 73.03 543.03 72.73 547.09 72.49 551.23 72.31 555.44 72.21 559.73 72.17 564.1 72.2 568.55 72.3 573.09 72.46 577.69 72.7 582.38 73 587.15 73.36 592 73.8 596.92 74.3"/></g><g id="Farbe11"><polygon class="cls-1" points="596.92 74.3 592 73.8 587.15 73.36 582.38 73 577.69 72.7 573.09 72.46 568.55 72.3 564.1 72.2 559.73 72.17 555.44 72.21 551.23 72.31 547.09 72.49 543.03 72.73 539.06 73.03 535.16 73.41 531.34 73.85 527.6 74.36 524.83 74.8 524.83 5.11 596.92 15.04 596.92 74.3"/><polygon class="cls-1" points="225.27 74.3 225.27 15.04 297.36 5.11 297.36 74.8 294.59 74.36 290.85 73.85 287.03 73.41 283.13 73.03 279.16 72.73 275.1 72.49 270.96 72.31 266.75 72.21 262.46 72.17 258.09 72.2 253.63 72.3 249.1 72.46 244.5 72.7 239.81 73 235.04 73.36 230.19 73.8 225.27 74.3"/></g><g id="Farbe12"><polygon class="cls-1" points="297.36 74.8 298.25 74.94 301.83 75.59 305.33 76.3 308.76 77.08 312.1 77.93 315.37 78.84 318.56 79.83 321.66 80.88 324.69 81.99 327.64 83.18 330.51 84.43 333.31 85.75 336.02 87.14 338.65 88.6 341.21 90.12 343.68 91.71 346.08 93.37 348.4 95.09 350.63 96.89 352.79 98.75 354.88 100.67 356.88 102.67 358.8 104.73 360.64 106.86 362.41 109.06 364.09 111.33 365.7 113.66 367.23 116.06 368.68 118.53 370.04 121.06 371.33 123.67 372.55 126.34 372.55 272.77 297.36 269.62 297.36 74.8"/><polygon class="cls-1" points="524.83 74.8 524.83 269.62 449.64 272.77 449.64 126.34 450.86 123.67 452.14 121.06 453.51 118.53 454.96 116.06 456.49 113.66 458.1 111.33 459.78 109.06 461.55 106.86 463.39 104.73 465.31 102.67 467.31 100.67 469.39 98.75 471.56 96.89 473.79 95.09 476.11 93.37 478.51 91.71 480.98 90.12 483.54 88.6 486.17 87.14 488.88 85.75 491.68 84.43 494.55 83.18 497.5 81.99 500.52 80.88 503.63 79.83 506.82 78.84 510.09 77.93 513.43 77.08 516.85 76.3 520.36 75.59 523.94 74.94 524.83 74.8"/></g><g id="Farbe13"><polygon class="cls-1" points="524.83 74.8 523.94 74.94 520.36 75.59 516.85 76.3 513.43 77.08 510.09 77.93 506.82 78.84 503.63 79.83 500.52 80.88 497.5 81.99 494.55 83.18 491.68 84.43 488.88 85.75 486.17 87.14 483.54 88.6 480.98 90.12 478.51 91.71 476.11 93.37 473.79 95.09 471.56 96.89 469.39 98.75 467.31 100.67 465.31 102.67 463.39 104.73 461.55 106.86 459.78 109.06 458.1 111.33 456.49 113.66 454.96 116.06 453.51 118.53 452.14 121.06 450.86 123.67 449.64 126.34 449.64 0.07 524.83 5.11 524.83 74.8"/><polygon class="cls-1" points="297.36 74.8 297.36 5.11 372.55 0.07 372.55 126.34 371.33 123.67 370.04 121.06 368.68 118.53 367.23 116.06 365.7 113.66 364.09 111.33 362.41 109.06 360.64 106.86 358.8 104.73 356.88 102.67 354.88 100.67 352.79 98.75 350.63 96.89 348.4 95.09 346.08 93.37 343.68 91.71 341.21 90.12 338.65 88.6 336.02 87.14 333.31 85.75 330.51 84.43 327.64 83.18 324.69 81.99 321.66 80.88 318.56 79.83 315.37 78.84 312.1 77.93 308.76 77.08 305.33 76.3 301.83 75.59 298.25 74.94 297.36 74.8"/></g><g id="Farbe14"><polygon class="cls-1" points="372.55 126.34 373.66 129.07 374.76 131.82 375.85 134.59 376.93 137.36 377.99 140.15 379.03 142.95 380.06 145.77 381.08 148.6 382.08 151.44 383.07 154.3 384.05 157.17 385.01 160.05 385.96 162.95 386.89 165.86 387.81 168.78 388.71 171.72 389.6 174.67 390.48 177.64 391.34 180.61 392.19 183.6 393.02 186.61 393.84 189.63 394.65 192.66 395.44 195.7 396.22 198.76 396.98 201.83 397.73 204.91 398.47 208.01 399.19 211.12 399.9 214.25 400.59 217.38 401.27 220.53 401.93 223.7 402.58 226.88 403.22 230.07 403.84 233.27 404.45 236.49 405.05 239.72 405.63 242.97 406.19 246.22 406.74 249.5 407.28 252.78 407.81 256.08 408.31 259.39 408.81 262.71 409.29 266.05 409.76 269.4 410.21 272.77 372.55 272.77 372.55 126.34"/><polygon class="cls-1" points="449.64 126.34 449.64 272.77 411.98 272.77 412.43 269.4 412.9 266.05 413.38 262.71 413.88 259.39 414.38 256.08 414.91 252.78 415.45 249.5 416 246.22 416.56 242.97 417.14 239.72 417.74 236.49 418.35 233.27 418.97 230.07 419.61 226.88 420.26 223.7 420.92 220.53 421.6 217.38 422.29 214.25 423 211.12 423.72 208.01 424.46 204.91 425.21 201.83 425.97 198.76 426.75 195.7 427.54 192.66 428.35 189.63 429.17 186.61 430 183.6 430.85 180.61 431.71 177.64 432.59 174.67 433.48 171.72 434.38 168.78 435.3 165.86 436.23 162.95 437.18 160.05 438.14 157.17 439.12 154.3 440.11 151.44 441.11 148.6 442.13 145.77 443.16 142.95 444.2 140.15 445.26 137.36 446.34 134.59 447.43 131.82 448.53 129.07 449.64 126.34"/></g><g id="Farbe15"><polygon class="cls-1" points="449.64 126.34 448.53 129.07 447.43 131.82 446.34 134.59 445.26 137.36 444.2 140.15 443.16 142.95 442.13 145.77 441.11 148.6 440.11 151.44 439.12 154.3 438.14 157.17 437.18 160.05 436.23 162.95 435.3 165.86 434.38 168.78 433.48 171.72 432.59 174.67 431.71 177.64 430.85 180.61 430 183.6 429.17 186.61 428.35 189.63 427.54 192.66 426.75 195.7 425.97 198.76 425.21 201.83 424.46 204.91 423.72 208.01 423 211.12 422.29 214.25 421.6 217.38 420.92 220.53 420.26 223.7 419.61 226.88 418.97 230.07 418.35 233.27 417.74 236.49 417.14 239.72 416.56 242.97 416 246.22 415.45 249.5 414.91 252.78 414.38 256.08 413.88 259.39 413.38 262.71 412.9 266.05 412.43 269.4 411.98 272.77 410.21 272.77 409.76 269.4 409.29 266.05 408.81 262.71 408.31 259.39 407.81 256.08 407.28 252.78 406.74 249.5 406.19 246.22 405.63 242.97 405.05 239.72 404.45 236.49 403.84 233.27 403.22 230.07 402.58 226.88 401.93 223.7 401.27 220.53 400.59 217.38 399.9 214.25 399.19 211.12 398.47 208.01 397.73 204.91 396.98 201.83 396.22 198.76 395.44 195.7 394.65 192.66 393.84 189.63 393.02 186.61 392.19 183.6 391.34 180.61 390.48 177.64 389.6 174.67 388.71 171.72 387.81 168.78 386.89 165.86 385.96 162.95 385.01 160.05 384.05 157.17 383.07 154.3 382.08 151.44 381.08 148.6 380.06 145.77 379.03 142.95 377.99 140.15 376.93 137.36 375.85 134.59 374.76 131.82 373.66 129.07 372.55 126.34 372.55 0.07 449.64 0.07 449.64 126.34"/></g><g id="Farbe1"><polygon class="cls-1" points="6.41 227.74 6.61 225.01 6.83 222.3 7.08 219.61 7.36 216.94 7.66 214.29 8 211.65 8.36 209.04 8.74 206.44 9.16 203.86 9.61 201.3 10.08 198.75 10.57 196.23 11.1 193.72 11.66 191.23 12.24 188.76 12.85 186.31 13.48 183.88 14.15 181.46 14.84 179.06 15.56 176.68 16.31 174.32 17.08 171.98 17.88 169.66 18.71 167.35 19.57 165.06 20.46 162.79 21.37 160.54 22.31 158.31 23.28 156.1 24.27 153.9 25.3 151.72 26.35 149.56 27.43 147.42 28.53 145.3 29.66 143.19 30.83 141.11 32.02 139.04 33.23 136.99 34.48 134.96 35.75 132.94 37.05 130.95 38.37 128.97 39.73 127.02 41.11 125.08 42.52 123.15 43.95 121.25 45.42 119.36 46.91 117.5 46.91 236.49 6.41 227.74"/><polygon class="cls-1" points="815.78 227.74 775.28 236.49 775.28 117.5 776.77 119.36 778.24 121.25 779.67 123.15 781.08 125.08 782.46 127.02 783.82 128.97 785.14 130.95 786.44 132.94 787.72 134.96 788.96 136.99 790.17 139.04 791.36 141.11 792.52 143.19 793.66 145.3 794.76 147.42 795.84 149.56 796.89 151.72 797.92 153.9 798.91 156.1 799.88 158.31 800.82 160.54 801.73 162.79 802.62 165.06 803.48 167.35 804.31 169.66 805.11 171.98 805.88 174.32 806.63 176.68 807.35 179.06 808.04 181.46 808.71 183.88 809.34 186.31 809.95 188.76 810.53 191.23 811.09 193.72 811.62 196.23 812.11 198.75 812.59 201.3 813.03 203.86 813.45 206.44 813.83 209.04 814.19 211.65 814.53 214.29 814.83 216.94 815.11 219.61 815.36 222.3 815.59 225.01 815.78 227.74"/></g><g id="Farbe2"><polygon class="cls-1" points="815.78 227.74 815.59 225.01 815.36 222.3 815.11 219.61 814.83 216.94 814.53 214.29 814.19 211.65 813.83 209.04 813.45 206.44 813.03 203.86 812.59 201.3 812.11 198.75 811.62 196.23 811.09 193.72 810.53 191.23 809.95 188.76 809.34 186.31 808.71 183.88 808.04 181.46 807.35 179.06 806.63 176.68 805.88 174.32 805.11 171.98 804.31 169.66 803.48 167.35 802.62 165.06 801.73 162.79 800.82 160.54 799.88 158.31 798.91 156.1 797.92 153.9 796.89 151.72 795.84 149.56 794.76 147.42 793.66 145.3 792.52 143.19 791.36 141.11 790.17 139.04 788.96 136.99 787.72 134.96 786.44 132.94 785.14 130.95 783.82 128.97 782.46 127.02 781.08 125.08 779.67 123.15 778.24 121.25 776.77 119.36 775.28 117.5 775.28 71.62 822.12 103.18 822.12 226.37 815.78 227.74"/><polygon class="cls-1" points="46.91 71.62 46.91 117.5 45.42 119.36 43.95 121.25 42.52 123.15 41.11 125.08 39.73 127.02 38.37 128.97 37.05 130.95 35.75 132.94 34.48 134.96 33.23 136.99 32.02 139.04 30.83 141.11 29.66 143.19 28.53 145.3 27.43 147.42 26.35 149.56 25.3 151.72 24.27 153.9 23.28 156.1 22.31 158.31 21.37 160.54 20.46 162.79 19.57 165.06 18.71 167.35 17.88 169.66 17.08 171.98 16.31 174.32 15.56 176.68 14.84 179.06 14.15 181.46 13.48 183.88 12.85 186.31 12.24 188.76 11.66 191.23 11.1 193.72 10.57 196.23 10.08 198.75 9.61 201.3 9.16 203.86 8.74 206.44 8.36 209.04 8 211.65 7.66 214.29 7.36 216.94 7.08 219.61 6.83 222.3 6.61 225.01 6.41 227.74 0.07 226.37 0.07 103.18 46.91 71.62"/></g><g id="Farbe3"><polygon class="cls-1" points="775.28 117.5 775.28 236.49 725.09 245.95 725.09 93.3 726.9 93.92 729.2 94.75 731.5 95.61 733.8 96.49 736.11 97.41 738.41 98.36 740.71 99.33 743.01 100.33 745.32 101.37 747.62 102.43 749.92 103.53 752.23 104.65 754.53 105.8 756.83 106.98 759.14 108.19 761.44 109.43 763.75 110.7 766.05 112 768.36 113.33 770.67 114.69 772.97 116.08 775.28 117.5"/><polygon class="cls-1" points="46.91 117.5 49.22 116.08 51.52 114.69 53.83 113.33 56.14 112 58.44 110.7 60.75 109.43 63.05 108.19 65.36 106.98 67.66 105.8 69.96 104.65 72.27 103.53 74.57 102.43 76.88 101.37 79.18 100.33 81.48 99.33 83.78 98.36 86.08 97.41 88.39 96.49 90.69 95.61 92.99 94.75 95.29 93.92 97.1 93.3 97.1 245.95 46.91 236.49 46.91 117.5"/></g></svg>