<svg id="Standard" xmlns="http://www.w3.org/2000/svg" viewBox="0 0 674.31 219.7"><defs><style>.cls-1{fill:none;}.cls-1,.cls-2{stroke:#000;stroke-linecap:round;stroke-linejoin:round;stroke-width:0.28px;}</style></defs><g id="Ebene_8" data-name="Ebene 8"><polygon class="cls-1" points="480.81 36.95 479.44 37.06 478.07 37.17 476.72 37.27 475.37 37.36 474.03 37.44 472.7 37.52 471.38 37.58 470.07 37.65 467.47 37.75 464.91 37.84 462.39 37.9 459.91 37.95 441.57 38.16 439.43 38.2 437.34 38.26 435.3 38.33 433.3 38.42 431.34 38.51 429.42 38.62 427.54 38.73 425.7 38.86 423.89 39 422.12 39.15 420.37 39.31 418.65 39.48 416.97 39.66 415.31 39.85 413.67 40.05 412.05 40.27 410.45 40.48 408.88 40.72 407.32 40.96 405.77 41.2 404.24 41.46 402.72 41.73 401.21 42.01 399.71 42.29 398.21 42.58 396.72 42.88 395.23 43.2 393.75 43.51 392.26 43.84 390.76 44.17 389.27 44.51 387.77 44.86 384.74 45.58 381.68 46.33 378.6 47.1 375.49 47.9 372.36 48.73 369.2 49.58 366.04 50.45 362.85 51.35 359.66 52.27 356.45 53.22 353.24 54.18 350.02 55.16 346.8 56.16 343.58 57.18 340.37 58.21 337.16 59.27 333.94 58.21 330.73 57.18 327.51 56.16 324.29 55.16 321.07 54.18 317.86 53.22 314.65 52.27 311.46 51.35 308.28 50.45 305.11 49.58 301.96 48.73 298.82 47.9 295.72 47.1 292.63 46.33 289.57 45.58 286.55 44.86 285.04 44.51 283.55 44.17 282.06 43.84 280.57 43.51 279.08 43.2 277.59 42.88 276.1 42.58 274.6 42.29 273.1 42.01 271.59 41.73 270.07 41.46 268.54 41.2 266.99 40.96 265.44 40.72 263.86 40.48 262.26 40.27 260.65 40.05 259.01 39.85 257.35 39.66 255.66 39.48 253.94 39.31 252.2 39.15 250.42 39 248.61 38.86 246.77 38.73 244.89 38.62 242.97 38.51 241.01 38.42 239.01 38.33 236.97 38.26 234.88 38.2 232.74 38.16 214.41 37.95 211.93 37.9 209.4 37.84 206.84 37.75 204.25 37.65 202.94 37.58 201.61 37.52 200.28 37.44 198.94 37.36 197.59 37.27 196.24 37.17 194.87 37.06 193.5 36.95 192.06 36.82 190.6 36.68 189.14 36.52 187.67 36.36 186.19 36.19 184.7 36 183.21 35.8 181.7 35.59 180.19 35.36 178.67 35.12 177.14 34.87 175.61 34.6 174.06 34.32 172.51 34.02 170.95 33.7 169.39 33.37 167.81 33.02 166.23 32.66 164.65 32.28 163.05 31.88 161.45 31.45 159.84 31.02 158.23 30.56 156.61 30.08 154.98 29.58 153.35 29.06 151.71 28.52 150.06 27.96 148.41 27.38 146.75 26.77 145.09 26.14 143.43 25.49 147.41 25.21 151.38 24.93 155.37 24.66 159.35 24.4 163.33 24.14 167.31 23.89 171.29 23.64 175.28 23.4 179.26 23.17 183.24 22.94 187.23 22.72 191.21 22.5 195.2 22.29 199.18 22.08 203.17 21.88 207.15 21.69 212.11 21.45 217.06 21.23 222.02 21.02 226.97 20.81 233.24 20.56 239.5 20.33 245.77 20.11 252.03 19.91 258.3 19.72 264.56 19.54 270.83 19.38 277.1 19.23 283.36 19.1 289.63 18.98 295.9 18.88 302.16 18.79 308.43 18.72 314.7 18.66 320.97 18.62 327.24 18.59 332.2 18.57 337.16 18.57 342.12 18.57 347.08 18.59 353.35 18.62 359.61 18.66 365.88 18.72 372.15 18.79 378.42 18.88 384.68 18.98 390.95 19.1 397.22 19.23 403.49 19.38 409.75 19.54 416.02 19.72 422.28 19.91 428.55 20.11 434.81 20.33 441.07 20.56 447.34 20.81 452.29 21.02 457.25 21.23 462.2 21.45 467.16 21.69 471.15 21.88 475.13 22.08 479.12 22.29 483.1 22.5 487.09 22.72 491.07 22.94 495.05 23.17 499.04 23.4 503.02 23.64 507 23.89 510.98 24.14 514.97 24.4 518.95 24.66 522.93 24.93 526.91 25.21 530.89 25.49 529.22 26.14 527.56 26.77 525.9 27.38 524.25 27.96 522.61 28.52 520.97 29.06 519.33 29.58 517.71 30.08 516.09 30.56 514.47 31.02 512.86 31.45 511.26 31.88 509.67 32.28 508.08 32.66 506.5 33.02 504.93 33.37 503.36 33.7 501.8 34.02 500.25 34.32 498.7 34.6 497.17 34.87 495.64 35.12 494.12 35.36 492.61 35.59 491.1 35.8 489.61 36 488.12 36.19 486.64 36.36 485.17 36.52 483.71 36.68 482.26 36.82 480.81 36.95"/></g><g id="Ebene_7" data-name="Ebene 7"><polygon class="cls-1" points="157.75 64.87 157.72 65.42 157.68 65.97 157.63 66.53 157.57 67.09 157.5 67.65 157.43 68.22 157.34 68.79 157.24 69.36 157.13 69.93 157 70.51 156.87 71.09 156.73 71.68 156.58 72.27 156.42 72.86 156.24 73.45 156.06 74.05 155.87 74.65 155.66 75.26 155.45 75.86 155.22 76.47 154.99 77.09 154.74 77.7 154.48 78.32 154.22 78.94 153.94 79.57 153.65 80.19 153.35 80.82 153.04 81.46 152.72 82.09 152.39 82.73 152.05 83.37 151.7 84.02 151.34 84.66 150.97 85.31 150.59 85.96 150.19 86.62 149.79 87.27 149.38 87.93 148.95 88.59 148.52 89.26 148.07 89.92 147.62 90.59 147.15 91.27 146.68 91.94 146.19 92.61 145.69 93.29 145.18 93.97 144.66 94.66 144.13 95.34 143.59 96.03 143.04 96.72 142.48 97.41 141.91 98.11 141.33 98.81 140.73 99.5 140.13 100.2 139.52 100.91 138.89 101.61 138.26 102.32 137.61 103.03 136.95 103.74 136.29 104.45 135.61 105.17 134.92 105.89 133.97 106.86 133 107.84 132.01 108.83 131.01 109.83 126.87 113.89 124.74 115.98 123.66 117.05 122.58 118.14 121.5 119.23 120.41 120.35 119.32 121.48 118.24 122.63 117.15 123.8 116.07 125 114.99 126.21 113.92 127.44 112.85 128.7 112.32 129.34 111.79 129.99 111.27 130.64 110.74 131.3 110.22 131.96 109.7 132.63 109.19 133.31 108.68 134 108.17 134.69 107.67 135.39 107.17 136.1 106.67 136.81 106.18 137.54 105.69 138.27 105.2 139.01 104.72 139.75 104.25 140.51 103.78 141.27 103.31 142.04 102.85 142.82 102.4 143.61 101.95 144.41 101.5 145.21 101.07 146.03 100.64 146.85 100.21 147.69 99.79 148.53 99.38 149.39 98.97 150.25 98.57 151.12 98.18 152 97.79 152.9 97.42 153.8 97.05 154.71 96.68 155.64 96.33 156.57 95.98 157.51 95.64 158.47 95.31 159.44 94.99 160.41 94.68 161.4 94.37 162.41 94.08 163.42 93.79 164.44 93.51 165.47 93.24 166.52 92.99 167.58 92.74 168.65 92.5 169.74 92.27 170.83 92.05 171.94 91.84 173.06 91.65 174.19 91.46 175.34 91.29 176.5 91.12 177.67 90.97 178.86 90.83 180.06 90.7 181.27 90.58 182.49 90.48 183.73 90.38 184.99 90.3 186.25 90.23 187.53 90.17 188.83 90.13 190.14 90.1 191.47 90.08 192.81 90.08 194.16 90.09 195.53 90.11 196.91 90.14 198.31 90.19 199.72 90.26 201.15 90.34 202.6 90.43 204.06 90.54 205.54 90.66 207.03 90.8 208.54 90.95 210.06 91.12 211.6 91.3 213.16 91.5 214.73 91.71 216.32 91.94 217.93 92.19 219.55 90.78 216.15 89.36 212.75 87.93 209.35 86.5 205.96 85.06 202.57 83.62 199.18 82.17 195.79 80.71 192.41 80.45 191.23 80.21 190.07 80 188.9 79.8 187.75 79.62 186.59 79.46 185.45 79.32 184.31 79.2 183.17 79.1 182.04 79.02 180.91 78.95 179.79 78.9 178.67 78.87 177.56 78.85 176.45 78.85 175.35 78.87 174.26 78.9 173.16 78.95 172.08 79.02 171 79.09 169.92 79.19 168.85 79.29 167.78 79.42 166.72 79.55 165.66 79.7 164.61 79.86 163.56 80.03 162.51 80.22 161.48 80.42 160.44 80.63 159.41 80.85 158.39 81.08 157.37 81.32 156.35 81.57 155.34 81.84 154.34 82.11 153.34 82.39 152.34 82.69 151.35 82.98 150.36 83.29 149.38 83.61 148.4 83.94 147.42 84.27 146.45 84.61 145.49 84.96 144.53 85.31 143.57 85.67 142.62 86.03 141.67 86.41 140.73 86.78 139.79 87.17 138.86 87.55 137.93 88.34 136.08 89.14 134.25 89.95 132.43 90.78 130.64 91.61 128.86 92.44 127.09 99.01 113.56 99.78 111.93 100.52 110.33 101.25 108.73 101.95 107.16 102.62 105.59 102.94 104.82 103.26 104.05 103.56 103.28 103.86 102.51 104.15 101.75 104.44 100.99 104.71 100.24 104.97 99.48 105.22 98.74 105.46 97.99 105.69 97.25 105.91 96.51 106.12 95.78 106.31 95.05 106.5 94.32 106.67 93.6 106.83 92.88 106.98 92.16 107.11 91.44 107.23 90.73 107.33 90.03 107.42 89.32 107.5 88.62 107.56 87.92 107.61 87.23 107.64 86.54 107.65 85.85 107.65 85.16 107.63 84.48 107.6 83.8 107.55 83.12 107.48 82.45 107.39 81.78 107.28 81.11 107.16 80.45 107.02 79.79 106.86 79.13 106.68 78.48 108.19 77.76 109.71 77.06 111.23 76.38 112.76 75.71 114.3 75.06 115.85 74.43 117.4 73.81 118.96 73.21 120.52 72.63 122.09 72.06 123.67 71.52 125.25 70.99 126.83 70.48 128.43 69.99 130.02 69.52 131.62 69.07 133.23 68.65 134.84 68.24 136.45 67.85 138.07 67.48 139.69 67.14 141.32 66.82 142.95 66.52 143.77 66.38 144.58 66.24 145.4 66.11 146.22 65.98 147.04 65.87 147.86 65.75 148.68 65.65 149.5 65.55 150.32 65.45 151.15 65.36 151.97 65.28 152.79 65.2 153.62 65.13 154.44 65.07 155.27 65.01 156.09 64.95 156.92 64.91 157.75 64.87"/><polygon class="cls-1" points="582.12 219.55 582.37 217.93 582.6 216.32 582.81 214.73 583.01 213.16 583.2 211.6 583.36 210.06 583.51 208.54 583.65 207.03 583.77 205.54 583.88 204.06 583.98 202.6 584.05 201.15 584.12 199.72 584.17 198.31 584.2 196.91 584.23 195.53 584.24 194.16 584.23 192.81 584.21 191.47 584.18 190.14 584.14 188.83 584.08 187.53 584.01 186.25 583.93 184.99 583.84 183.73 583.73 182.49 583.61 181.27 583.48 180.06 583.34 178.86 583.19 177.67 583.03 176.5 582.85 175.34 582.66 174.19 582.47 173.06 582.26 171.94 582.04 170.83 581.81 169.74 581.58 168.65 581.33 167.58 581.07 166.52 580.8 165.47 580.52 164.44 580.24 163.42 579.94 162.41 579.64 161.4 579.32 160.41 579 159.44 578.67 158.47 578.33 157.51 577.99 156.57 577.63 155.64 577.27 154.71 576.9 153.8 576.52 152.9 576.13 152 575.74 151.12 575.34 150.25 574.94 149.39 574.52 148.53 574.1 147.69 573.68 146.85 573.25 146.03 572.81 145.21 572.37 144.41 571.92 143.61 571.46 142.82 571 142.04 570.53 141.27 570.07 140.51 569.59 139.75 569.11 139.01 568.63 138.27 568.14 137.54 567.64 136.81 567.15 136.1 566.65 135.39 566.14 134.69 565.63 134 565.12 133.31 564.61 132.63 564.09 131.96 563.57 131.3 563.05 130.64 562.52 129.99 561.99 129.34 561.46 128.7 560.4 127.44 559.32 126.21 558.25 125 557.16 123.8 556.08 122.63 554.99 121.48 553.9 120.35 552.82 119.23 551.73 118.14 550.65 117.05 549.58 115.98 547.45 113.89 543.3 109.83 542.3 108.83 541.31 107.84 540.34 106.86 539.39 105.89 538.7 105.17 538.03 104.45 537.36 103.74 536.7 103.03 536.06 102.32 535.42 101.61 534.8 100.91 534.18 100.2 533.58 99.5 532.99 98.81 532.4 98.11 531.83 97.41 531.27 96.72 530.72 96.03 530.18 95.34 529.65 94.66 529.13 93.97 528.62 93.29 528.13 92.61 527.64 91.94 527.16 91.27 526.7 90.59 526.24 89.92 525.79 89.26 525.36 88.59 524.93 87.93 524.52 87.27 524.12 86.62 523.73 85.96 523.34 85.31 522.97 84.66 522.61 84.02 522.26 83.37 521.92 82.73 521.59 82.09 521.27 81.46 520.96 80.82 520.66 80.19 520.37 79.57 520.1 78.94 519.83 78.32 519.57 77.7 519.33 77.09 519.09 76.47 518.87 75.86 518.65 75.26 518.45 74.65 518.25 74.05 518.07 73.45 517.9 72.86 517.73 72.27 517.58 71.68 517.44 71.09 517.31 70.51 517.19 69.93 517.08 69.36 516.98 68.79 516.89 68.22 516.81 67.65 516.74 67.09 516.68 66.53 516.63 65.97 516.59 65.42 516.57 64.87 517.39 64.91 518.22 64.95 519.05 65.01 519.87 65.07 520.7 65.13 521.52 65.2 522.34 65.28 523.17 65.36 523.99 65.45 524.81 65.55 525.63 65.65 526.45 65.75 527.27 65.87 528.09 65.98 528.91 66.11 529.73 66.24 530.55 66.38 531.36 66.52 532.99 66.82 534.62 67.14 536.24 67.48 537.86 67.85 539.47 68.24 541.08 68.65 542.69 69.07 544.29 69.52 545.89 69.99 547.48 70.48 549.07 70.99 550.65 71.52 552.22 72.06 553.79 72.63 555.36 73.21 556.91 73.81 558.47 74.43 560.01 75.06 561.55 75.71 563.08 76.38 564.61 77.06 566.13 77.76 567.64 78.48 567.46 79.13 567.29 79.79 567.15 80.45 567.03 81.11 566.92 81.78 566.84 82.45 566.77 83.12 566.72 83.8 566.68 84.48 566.66 85.16 566.66 85.85 566.68 86.54 566.71 87.23 566.75 87.92 566.81 88.62 566.89 89.32 566.98 90.03 567.09 90.73 567.21 91.44 567.34 92.16 567.48 92.88 567.64 93.6 567.81 94.32 568 95.05 568.19 95.78 568.4 96.51 568.62 97.25 568.85 97.99 569.09 98.74 569.34 99.48 569.61 100.24 569.88 100.99 570.16 101.75 570.45 102.51 570.75 103.28 571.06 104.05 571.37 104.82 571.7 105.59 572.37 107.16 573.07 108.73 573.79 110.33 574.53 111.93 575.3 113.56 581.87 127.09 582.7 128.86 583.54 130.64 584.36 132.43 585.17 134.25 585.98 136.08 586.76 137.93 587.15 138.86 587.53 139.79 587.91 140.73 588.28 141.67 588.64 142.62 589 143.57 589.36 144.53 589.7 145.49 590.04 146.45 590.38 147.42 590.7 148.4 591.02 149.38 591.33 150.36 591.63 151.35 591.92 152.34 592.2 153.34 592.48 154.34 592.74 155.34 592.99 156.35 593.24 157.37 593.47 158.39 593.69 159.41 593.9 160.44 594.1 161.48 594.28 162.51 594.45 163.56 594.62 164.61 594.76 165.66 594.9 166.72 595.02 167.78 595.13 168.85 595.22 169.92 595.3 171 595.36 172.08 595.41 173.16 595.44 174.26 595.46 175.35 595.46 176.45 595.45 177.56 595.41 178.67 595.36 179.79 595.3 180.91 595.21 182.04 595.11 183.17 594.99 184.31 594.85 185.45 594.69 186.59 594.51 187.75 594.32 188.9 594.1 190.07 593.86 191.23 593.6 192.41 592.15 195.79 590.7 199.18 589.25 202.57 587.81 205.96 586.38 209.35 584.96 212.75 583.54 216.15 582.12 219.55"/></g><g id="Ebene_6" data-name="Ebene 6"><polygon class="cls-1" points="197.67 69.97 198.13 69.69 198.59 69.42 199.06 69.15 199.54 68.89 200.02 68.63 200.51 68.38 201 68.13 201.5 67.88 202 67.64 202.51 67.41 203.02 67.18 203.54 66.96 204.06 66.74 204.59 66.53 205.13 66.32 205.67 66.12 206.22 65.92 206.77 65.73 207.32 65.54 207.89 65.36 208.46 65.18 209.03 65.01 209.61 64.84 210.19 64.68 210.78 64.53 211.38 64.38 211.98 64.23 212.59 64.09 213.2 63.95 213.81 63.82 214.44 63.69 215.06 63.57 215.7 63.46 216.34 63.35 216.98 63.24 217.63 63.14 218.28 63.05 218.95 62.95 219.61 62.87 220.28 62.79 221.64 62.65 223.02 62.52 224.43 62.42 225.85 62.33 227.3 62.27 228.77 62.23 230.26 62.2 231.77 62.2 233.3 62.22 234.86 62.26 236.43 62.32 238.03 62.4 239.65 62.5 241.29 62.62 242.96 62.76 244.64 62.92 246.35 63.1 248.08 63.3 249.83 63.53 251.6 63.77 253.4 64.03 255.22 64.32 257.06 64.62 258.92 64.95 260.8 65.29 262.7 65.66 264.63 66.04 266.57 66.45 268.54 66.88 270.53 67.32 272.54 67.79 274.58 68.28 276.63 68.78 278.71 69.31 280.81 69.86 282.93 70.43 285.07 71.02 287.24 71.63 289.43 72.26 291.63 72.91 293.86 73.58 296.12 74.28 298.39 74.99 300.69 75.72 297.6 77.51 294.53 79.3 291.45 81.1 288.38 82.91 285.32 84.72 282.26 86.54 279.2 88.37 276.15 90.2 273.1 92.05 270.05 93.89 267.01 95.75 263.97 97.61 260.94 99.48 257.91 101.35 254.89 103.24 251.87 105.13 248.85 107.02 245.84 108.92 242.83 110.83 239.83 112.75 236.83 114.67 233.83 116.6 230.84 118.54 227.86 120.48 224.87 122.43 221.9 124.39 218.92 126.35 215.95 128.32 212.99 130.29 210.03 132.28 207.07 134.26 204.12 136.26 200.96 138.41 197.79 140.58 194.64 142.75 191.48 144.92 188.34 147.11 185.2 149.3 182.06 151.5 178.93 153.7 175.8 155.92 172.68 158.14 169.57 160.37 166.46 162.6 163.36 164.85 160.26 167.1 157.16 169.36 154.08 171.63 151 173.9 147.92 176.18 144.85 178.47 141.78 180.77 138.72 183.07 135.67 185.38 132.62 187.7 129.58 190.02 126.54 192.36 123.51 194.69 120.48 197.04 117.46 199.4 114.44 201.76 111.44 204.13 108.43 206.5 105.44 208.88 105.24 208.09 105.06 207.31 104.88 206.53 104.71 205.76 104.56 204.99 104.41 204.23 104.27 203.48 104.13 202.73 104.01 201.99 103.89 201.25 103.78 200.52 103.69 199.79 103.59 199.07 103.51 198.36 103.44 197.65 103.37 196.95 103.31 196.25 103.26 195.56 103.22 194.87 103.19 194.19 103.16 193.51 103.14 192.84 103.13 192.18 103.13 191.52 103.13 190.86 103.14 190.21 103.16 189.57 103.19 188.93 103.22 188.29 103.27 187.66 103.32 187.03 103.37 186.41 103.44 185.8 103.51 185.18 103.58 184.58 103.67 183.97 103.76 183.38 103.86 182.78 103.97 182.19 104.08 181.61 104.2 181.03 104.32 180.45 104.46 179.88 104.6 179.31 104.74 178.74 104.89 178.18 105.05 177.63 105.22 177.07 105.39 176.52 105.57 175.98 105.75 175.44 105.94 174.9 106.14 174.37 106.34 173.83 106.55 173.31 106.77 172.78 106.99 172.26 107.21 171.75 107.44 171.23 107.68 170.72 107.93 170.22 108.18 169.71 108.43 169.21 108.69 168.72 108.96 168.22 109.23 167.73 109.51 167.24 109.79 166.76 110.08 166.28 110.37 165.8 110.67 165.32 110.97 164.84 111.59 163.9 112.23 162.97 112.89 162.05 113.57 161.14 114.27 160.24 114.99 159.34 115.72 158.46 116.47 157.58 117.24 156.71 118.03 155.85 118.83 154.99 119.64 154.14 120.47 153.29 121.32 152.45 122.18 151.62 123.06 150.78 123.94 149.96 124.85 149.13 125.76 148.31 126.69 147.5 127.62 146.68 128.57 145.87 129.53 145.06 130.5 144.25 131.48 143.44 132.47 142.63 134.48 141.02 136.52 139.4 138.59 137.77 142.81 134.49 147.1 131.14 149.27 129.43 151.45 127.7 153.63 125.94 154.73 125.04 155.82 124.14 156.91 123.23 158 122.31 159.1 121.39 160.19 120.45 161.28 119.5 162.36 118.54 163.44 117.56 164.52 116.58 165.6 115.59 166.67 114.58 167.74 113.56 168.8 112.52 169.86 111.47 170.91 110.41 171.96 109.34 173 108.25 174.03 107.14 175.05 106.02 176.07 104.88 177.08 103.72 178.08 102.55 179.07 101.36 180.05 100.15 181.02 98.93 181.98 97.68 182.93 96.42 183.87 95.14 184.79 93.83 185.71 92.51 186.61 91.17 187.5 89.8 187.94 89.11 188.37 88.42 188.8 87.72 189.23 87.01 189.66 86.3 190.08 85.58 190.5 84.86 190.91 84.13 191.32 83.39 191.73 82.65 192.13 81.91 192.53 81.15 192.93 80.4 193.32 79.63 193.7 78.86 194.09 78.08 194.46 77.3 194.84 76.51 195.21 75.72 195.57 74.92 195.93 74.11 196.29 73.29 196.64 72.47 196.99 71.65 197.33 70.81 197.67 69.97"/><polygon class="cls-1" points="373.63 75.72 375.92 74.99 378.2 74.28 380.45 73.58 382.68 72.91 384.89 72.26 387.07 71.63 389.24 71.02 391.38 70.43 393.5 69.86 395.6 69.31 397.68 68.78 399.74 68.28 401.77 67.79 403.78 67.32 405.77 66.88 407.74 66.45 409.69 66.04 411.61 65.66 413.52 65.29 415.4 64.95 417.26 64.62 419.1 64.32 420.91 64.03 422.71 63.77 424.48 63.53 426.23 63.3 427.96 63.1 429.67 62.92 431.35 62.76 433.02 62.62 434.66 62.5 436.28 62.4 437.88 62.32 439.46 62.26 441.01 62.22 442.55 62.2 444.06 62.2 445.55 62.23 447.01 62.27 448.46 62.33 449.89 62.42 451.29 62.52 452.67 62.65 454.03 62.79 454.7 62.87 455.37 62.95 456.03 63.05 456.68 63.14 457.33 63.24 457.98 63.35 458.62 63.46 459.25 63.57 459.88 63.69 460.5 63.82 461.12 63.95 461.73 64.09 462.33 64.23 462.94 64.38 463.53 64.53 464.12 64.68 464.7 64.84 465.28 65.01 465.86 65.18 466.43 65.36 466.99 65.54 467.55 65.73 468.1 65.92 468.64 66.12 469.18 66.32 469.72 66.53 470.25 66.74 470.77 66.96 471.29 67.18 471.81 67.41 472.31 67.64 472.82 67.88 473.31 68.13 473.81 68.38 474.29 68.63 474.77 68.89 475.25 69.15 475.72 69.42 476.19 69.69 476.64 69.97 476.98 70.81 477.32 71.65 477.67 72.47 478.02 73.29 478.38 74.11 478.74 74.92 479.11 75.72 479.48 76.51 479.85 77.3 480.23 78.08 480.61 78.86 481 79.63 481.39 80.4 481.78 81.15 482.18 81.91 482.58 82.65 482.99 83.39 483.4 84.13 483.81 84.86 484.23 85.58 484.65 86.3 485.08 87.01 485.51 87.72 485.94 88.42 486.38 89.11 486.82 89.8 487.7 91.17 488.61 92.51 489.52 93.83 490.45 95.14 491.38 96.42 492.33 97.68 493.29 98.93 494.26 100.15 495.25 101.36 496.24 102.55 497.24 103.72 498.24 104.88 499.26 106.02 500.28 107.14 501.32 108.25 502.36 109.34 503.4 110.41 504.45 111.47 505.51 112.52 506.57 113.56 507.64 114.58 508.71 115.59 509.79 116.58 510.87 117.56 511.95 118.54 513.04 119.5 514.13 120.45 515.22 121.39 516.31 122.31 517.4 123.23 518.49 124.14 519.59 125.04 520.68 125.94 522.86 127.7 525.04 129.43 527.21 131.14 531.51 134.49 535.72 137.77 537.79 139.4 539.83 141.02 541.84 142.63 542.83 143.44 543.81 144.25 544.78 145.06 545.74 145.87 546.69 146.68 547.63 147.5 548.55 148.31 549.47 149.13 550.37 149.96 551.26 150.78 552.13 151.62 552.99 152.45 553.84 153.29 554.67 154.14 555.49 154.99 556.29 155.85 557.07 156.71 557.84 157.58 558.59 158.46 559.33 159.34 560.04 160.24 560.74 161.14 561.42 162.05 562.08 162.97 562.72 163.9 563.34 164.84 563.65 165.32 563.94 165.8 564.24 166.28 564.52 166.76 564.81 167.24 565.08 167.73 565.36 168.22 565.62 168.72 565.88 169.21 566.14 169.71 566.39 170.22 566.63 170.72 566.87 171.23 567.1 171.75 567.33 172.26 567.55 172.78 567.76 173.31 567.97 173.83 568.17 174.37 568.37 174.9 568.56 175.44 568.75 175.98 568.92 176.52 569.09 177.07 569.26 177.63 569.42 178.18 569.57 178.74 569.72 179.31 569.86 179.88 569.99 180.45 570.12 181.03 570.23 181.61 570.35 182.19 570.45 182.78 570.55 183.38 570.64 183.97 570.73 184.58 570.81 185.18 570.88 185.8 570.94 186.41 571 187.03 571.05 187.66 571.09 188.29 571.12 188.93 571.15 189.57 571.17 190.21 571.18 190.86 571.18 191.52 571.18 192.18 571.17 192.84 571.15 193.51 571.13 194.19 571.09 194.87 571.05 195.56 571 196.25 570.94 196.95 570.88 197.65 570.8 198.36 570.72 199.07 570.63 199.79 570.53 200.52 570.42 201.25 570.3 201.99 570.18 202.73 570.05 203.48 569.91 204.23 569.76 204.99 569.6 205.76 569.43 206.53 569.26 207.31 569.07 208.09 568.88 208.88 565.88 206.5 562.88 204.13 559.87 201.76 556.85 199.4 553.83 197.04 550.81 194.69 547.77 192.36 544.74 190.02 541.69 187.7 538.64 185.38 535.59 183.07 532.53 180.77 529.47 178.47 526.39 176.18 523.32 173.9 520.24 171.63 517.15 169.36 514.06 167.1 510.96 164.85 507.85 162.6 504.74 160.37 501.63 158.14 498.51 155.92 495.38 153.7 492.25 151.5 489.12 149.3 485.98 147.11 482.83 144.92 479.68 142.75 476.52 140.58 473.36 138.41 470.19 136.26 467.24 134.26 464.28 132.28 461.32 130.29 458.36 128.32 455.39 126.35 452.42 124.39 449.44 122.43 446.46 120.48 443.47 118.54 440.48 116.6 437.49 114.67 434.49 112.75 431.48 110.83 428.48 108.92 425.46 107.02 422.45 105.13 419.43 103.24 416.4 101.35 413.37 99.48 410.34 97.61 407.3 95.75 404.26 93.89 401.22 92.05 398.17 90.2 395.11 88.37 392.06 86.54 389 84.72 385.93 82.91 382.86 81.1 379.79 79.3 376.71 77.51 373.63 75.72"/></g><g id="Ebene_5" data-name="Ebene 5"><polygon class="cls-1" points="6.27 38.74 9.27 44.33 10.22 44.99 11.16 45.65 12.1 46.29 13.03 46.92 13.96 47.54 14.89 48.14 15.81 48.73 16.73 49.31 17.64 49.88 18.56 50.43 19.46 50.98 20.37 51.51 21.27 52.03 22.17 52.54 23.06 53.04 23.95 53.53 24.84 54.01 25.72 54.48 26.6 54.93 27.47 55.38 28.34 55.81 29.21 56.24 30.08 56.66 30.94 57.07 31.8 57.47 32.66 57.85 33.51 58.23 34.36 58.6 35.2 58.97 36.05 59.32 36.88 59.67 37.72 60 38.55 60.33 39.38 60.65 40.21 60.97 41.03 61.27 41.85 61.57 42.67 61.86 44.3 62.42 45.91 62.96 47.51 63.47 49.1 63.95 50.68 64.41 52.25 64.85 53.81 65.26 55.35 65.66 56.89 66.04 58.41 66.4 59.93 66.75 61.44 67.08 62.93 67.4 64.42 67.71 65.89 68.01 67.36 68.3 68.82 68.58 71.7 69.12 74.56 69.65 77.38 70.17 80.17 70.7 81.55 70.97 82.93 71.24 84.3 71.52 85.66 71.8 87.02 72.1 88.37 72.41 89.71 72.72 91.05 73.05 92.38 73.4 93.7 73.76 95.02 74.13 96.34 74.53 97.64 74.94 98.95 75.37 99.6 75.6 100.25 75.83 100.9 76.06 101.54 76.31 102.19 76.56 102.83 76.81 103.48 77.07 104.12 77.34 104.76 77.61 105.4 77.89 106.04 78.18 106.68 78.48 108.19 77.76 109.71 77.06 111.23 76.38 112.76 75.71 114.3 75.06 115.85 74.43 117.4 73.81 118.96 73.21 120.52 72.63 122.09 72.06 123.67 71.52 125.25 70.99 126.83 70.48 128.43 69.99 130.02 69.52 131.62 69.07 133.23 68.65 134.84 68.24 136.45 67.85 138.07 67.48 139.69 67.14 141.32 66.82 142.95 66.52 143.77 66.38 144.58 66.24 145.4 66.11 146.22 65.98 147.04 65.87 147.86 65.75 148.68 65.65 149.5 65.55 150.32 65.45 151.15 65.36 151.97 65.28 152.79 65.2 153.62 65.13 154.44 65.07 155.27 65.01 156.09 64.95 156.92 64.91 157.75 64.87 157.02 64.42 156.29 63.98 155.54 63.55 154.78 63.15 154.02 62.75 153.25 62.37 152.46 62 151.67 61.65 150.87 61.3 150.06 60.97 149.24 60.66 148.41 60.35 147.57 60.05 146.72 59.77 145.86 59.5 145 59.24 144.13 58.99 143.24 58.76 142.35 58.53 141.46 58.31 140.55 58.1 139.63 57.9 138.71 57.71 137.78 57.53 136.84 57.36 135.9 57.2 134.94 57.04 133.98 56.89 133.01 56.75 132.04 56.62 131.05 56.49 130.06 56.38 129.07 56.27 128.06 56.16 127.05 56.06 126.03 55.97 125.01 55.88 123.98 55.8 121.9 55.65 119.79 55.51 117.66 55.4 115.51 55.3 113.33 55.21 111.13 55.13 108.91 55.05 104.41 54.93 99.83 54.8 95.18 54.67 92.83 54.59 90.46 54.51 88.08 54.41 85.69 54.31 83.28 54.18 80.86 54.04 78.43 53.88 75.99 53.7 74.77 53.6 73.54 53.5 72.31 53.38 71.08 53.27 69.84 53.14 68.61 53.01 67.37 52.87 66.13 52.72 64.89 52.57 63.65 52.4 62.4 52.23 61.16 52.05 59.91 51.86 58.66 51.66 57.41 51.45 56.16 51.24 54.91 51.01 53.65 50.77 52.4 50.52 51.14 50.26 49.89 49.99 48.63 49.71 47.38 49.41 46.12 49.11 44.86 48.79 43.6 48.46 42.35 48.12 41.09 47.77 39.83 47.4 38.58 47.02 37.32 46.62 36.06 46.21 34.81 45.79 33.55 45.35 32.3 44.9 31.04 44.43 29.79 43.95 28.54 43.45 27.29 42.93 26.04 42.41 24.79 41.86 23.54 41.3 22.29 40.72 21.05 40.12 19.81 39.51 18.56 38.88 17.32 38.23 16.09 37.56 11.18 38.15 6.27 38.74"/><polygon class="cls-1" points="668.04 38.74 665.04 44.33 664.1 44.99 663.15 45.65 662.22 46.29 661.28 46.92 660.35 47.54 659.42 48.14 658.5 48.73 657.58 49.31 656.67 49.88 655.76 50.43 654.85 50.98 653.94 51.51 653.04 52.03 652.15 52.54 651.25 53.04 650.36 53.53 649.48 54.01 648.6 54.48 647.72 54.93 646.84 55.38 645.97 55.81 645.1 56.24 644.23 56.66 643.37 57.07 642.51 57.47 641.66 57.85 640.8 58.23 639.96 58.6 639.11 58.97 638.27 59.32 637.43 59.67 636.59 60 635.76 60.33 634.93 60.65 634.1 60.97 633.28 61.27 632.46 61.57 631.64 61.86 630.02 62.42 628.4 62.96 626.8 63.47 625.21 63.95 623.63 64.41 622.06 64.85 620.5 65.26 618.96 65.66 617.42 66.04 615.9 66.4 614.38 66.75 612.88 67.08 611.38 67.4 609.9 67.71 608.42 68.01 606.96 68.3 605.5 68.58 602.61 69.12 599.75 69.65 596.93 70.17 594.14 70.7 592.76 70.97 591.38 71.24 590.01 71.52 588.65 71.8 587.29 72.1 585.95 72.41 584.6 72.72 583.27 73.05 581.93 73.4 580.61 73.76 579.29 74.13 577.98 74.53 576.67 74.94 575.36 75.37 574.71 75.6 574.07 75.83 573.42 76.06 572.77 76.31 572.13 76.56 571.48 76.81 570.84 77.07 570.2 77.34 569.55 77.61 568.91 77.89 568.27 78.18 567.64 78.48 566.13 77.76 564.61 77.06 563.08 76.38 561.55 75.71 560.01 75.06 558.47 74.43 556.91 73.81 555.36 73.21 553.79 72.63 552.22 72.06 550.65 71.52 549.07 70.99 547.48 70.48 545.89 69.99 544.29 69.52 542.69 69.07 541.08 68.65 539.47 68.24 537.86 67.85 536.24 67.48 534.62 67.14 532.99 66.82 531.36 66.52 530.55 66.38 529.73 66.24 528.91 66.11 528.09 65.98 527.27 65.87 526.45 65.75 525.63 65.65 524.81 65.55 523.99 65.45 523.17 65.36 522.34 65.28 521.52 65.2 520.7 65.13 519.87 65.07 519.05 65.01 518.22 64.95 517.39 64.91 516.57 64.87 517.29 64.42 518.03 63.98 518.77 63.55 519.53 63.15 520.29 62.75 521.07 62.37 521.85 62 522.64 61.65 523.45 61.3 524.26 60.97 525.08 60.66 525.91 60.35 526.75 60.05 527.59 59.77 528.45 59.5 529.32 59.24 530.19 58.99 531.07 58.76 531.96 58.53 532.86 58.31 533.76 58.1 534.68 57.9 535.6 57.71 536.53 57.53 537.47 57.36 538.42 57.2 539.37 57.04 540.33 56.89 541.3 56.75 542.28 56.62 543.26 56.49 544.25 56.38 545.25 56.27 546.25 56.16 547.26 56.06 548.28 55.97 549.3 55.88 550.33 55.8 552.41 55.65 554.52 55.51 556.65 55.4 558.81 55.3 560.98 55.21 563.18 55.13 565.4 55.05 569.91 54.93 574.49 54.8 579.14 54.67 581.49 54.59 583.85 54.51 586.23 54.41 588.62 54.31 591.03 54.18 593.45 54.04 595.88 53.88 598.32 53.7 599.55 53.6 600.77 53.5 602 53.38 603.23 53.27 604.47 53.14 605.7 53.01 606.94 52.87 608.18 52.72 609.42 52.57 610.67 52.4 611.91 52.23 613.16 52.05 614.4 51.86 615.65 51.66 616.9 51.45 618.15 51.24 619.41 51.01 620.66 50.77 621.91 50.52 623.17 50.26 624.42 49.99 625.68 49.71 626.94 49.41 628.19 49.11 629.45 48.79 630.71 48.46 631.97 48.12 633.22 47.77 634.48 47.4 635.74 47.02 636.99 46.62 638.25 46.21 639.51 45.79 640.76 45.35 642.02 44.9 643.27 44.43 644.52 43.95 645.78 43.45 647.03 42.93 648.28 42.41 649.53 41.86 650.77 41.3 652.02 40.72 653.26 40.12 654.51 39.51 655.75 38.88 656.99 38.23 658.23 37.56 663.13 38.15 668.04 38.74"/></g><g id="Ebene_4" data-name="Ebene 4"><polygon class="cls-1" points="567.64 78.48 568.27 78.18 568.91 77.89 569.55 77.61 570.2 77.34 570.84 77.07 571.48 76.81 572.13 76.56 572.77 76.31 573.42 76.06 574.07 75.83 574.71 75.6 575.36 75.37 576.67 74.94 577.98 74.53 579.29 74.13 580.61 73.76 581.93 73.4 583.27 73.05 584.6 72.72 585.95 72.41 587.29 72.1 588.65 71.8 590.01 71.52 591.38 71.24 592.76 70.97 594.14 70.7 596.93 70.17 599.75 69.65 602.61 69.12 605.5 68.58 606.96 68.3 608.42 68.01 609.9 67.71 611.38 67.4 612.88 67.08 614.38 66.75 615.9 66.4 617.42 66.04 618.96 65.66 620.5 65.26 622.06 64.85 623.63 64.41 625.21 63.95 626.8 63.47 628.4 62.96 630.02 62.42 631.64 61.86 632.46 61.57 633.28 61.27 634.1 60.97 634.93 60.65 635.76 60.33 636.59 60 637.43 59.67 638.27 59.32 639.11 58.97 639.96 58.6 640.8 58.23 641.66 57.85 642.51 57.47 643.37 57.07 644.23 56.66 645.1 56.24 645.97 55.81 646.84 55.38 647.72 54.93 648.6 54.48 649.48 54.01 650.36 53.53 651.25 53.04 652.15 52.54 653.04 52.03 653.94 51.51 654.85 50.98 655.76 50.43 656.67 49.88 657.58 49.31 658.5 48.73 659.42 48.14 660.35 47.54 661.28 46.92 662.22 46.29 663.15 45.65 664.1 44.99 665.04 44.33 662.44 49.2 659.85 54.09 657.28 58.98 654.72 63.88 652.17 68.79 649.64 73.7 647.12 78.63 644.61 83.56 642.12 88.49 639.64 93.43 637.18 98.38 634.73 103.34 632.29 108.31 629.87 113.28 627.46 118.25 625.07 123.24 624.34 122.37 623.6 121.5 622.86 120.64 622.11 119.78 621.35 118.93 620.59 118.08 619.82 117.24 619.04 116.4 618.26 115.57 617.48 114.74 616.69 113.92 615.89 113.1 615.09 112.28 614.28 111.47 613.47 110.67 612.65 109.88 611.82 109.08 610.99 108.3 610.16 107.51 609.32 106.74 608.47 105.97 607.62 105.2 606.76 104.44 605.9 103.69 605.03 102.94 604.16 102.19 603.29 101.45 602.4 100.72 601.52 100 600.63 99.27 599.73 98.56 598.83 97.85 597.92 97.15 597.01 96.45 596.09 95.76 595.17 95.07 594.25 94.39 593.32 93.72 592.38 93.05 591.44 92.39 590.5 91.74 589.55 91.09 588.6 90.44 587.64 89.81 586.68 89.18 585.71 88.56 584.74 87.94 583.77 87.33 582.79 86.72 581.81 86.13 580.82 85.54 579.83 84.95 578.83 84.38 577.84 83.8 576.83 83.24 575.83 82.68 574.82 82.13 573.8 81.59 572.78 81.05 571.76 80.52 570.74 80 569.71 79.49 568.67 78.98 567.64 78.48"/><polygon class="cls-1" points="9.27 44.33 10.22 44.99 11.16 45.65 12.1 46.29 13.03 46.92 13.96 47.54 14.89 48.14 15.81 48.73 16.73 49.31 17.64 49.88 18.56 50.43 19.46 50.98 20.37 51.51 21.27 52.03 22.17 52.54 23.06 53.04 23.95 53.53 24.84 54.01 25.72 54.48 26.6 54.93 27.47 55.38 28.34 55.81 29.21 56.24 30.08 56.66 30.94 57.07 31.8 57.47 32.66 57.85 33.51 58.23 34.36 58.6 35.2 58.97 36.05 59.32 36.88 59.67 37.72 60 38.55 60.33 39.38 60.65 40.21 60.97 41.03 61.27 41.85 61.57 42.67 61.86 44.3 62.42 45.91 62.96 47.51 63.47 49.1 63.95 50.68 64.41 52.25 64.85 53.81 65.26 55.35 65.66 56.89 66.04 58.41 66.4 59.93 66.75 61.44 67.08 62.93 67.4 64.42 67.71 65.89 68.01 67.36 68.3 68.82 68.58 71.7 69.12 74.56 69.65 77.38 70.17 80.17 70.7 81.55 70.97 82.93 71.24 84.3 71.52 85.66 71.8 87.02 72.1 88.37 72.41 89.71 72.72 91.05 73.05 92.38 73.4 93.7 73.76 95.02 74.13 96.34 74.53 97.64 74.94 98.95 75.37 99.6 75.6 100.25 75.83 100.9 76.06 101.54 76.31 102.19 76.56 102.83 76.81 103.48 77.07 104.12 77.34 104.76 77.61 105.4 77.89 106.04 78.18 106.68 78.48 105.64 78.98 104.61 79.49 103.58 80 102.55 80.52 101.53 81.05 100.51 81.59 99.5 82.13 98.49 82.68 97.48 83.24 96.48 83.8 95.48 84.38 94.48 84.95 93.49 85.54 92.51 86.13 91.52 86.72 90.55 87.33 89.57 87.94 88.6 88.56 87.64 89.18 86.67 89.81 85.72 90.44 84.76 91.09 83.82 91.74 82.87 92.39 81.93 93.05 81 93.72 80.07 94.39 79.14 95.07 78.22 95.76 77.31 96.45 76.39 97.15 75.49 97.85 74.58 98.56 73.69 99.27 72.8 100 71.91 100.72 71.03 101.45 70.15 102.19 69.28 102.94 68.41 103.69 67.55 104.44 66.69 105.2 65.84 105.97 65 106.74 64.15 107.51 63.32 108.3 62.49 109.08 61.66 109.88 60.84 110.67 60.03 111.47 59.22 112.28 58.42 113.1 57.62 113.92 56.83 114.74 56.05 115.57 55.27 116.4 54.49 117.24 53.73 118.08 52.96 118.93 52.21 119.78 51.46 120.64 50.71 121.5 49.98 122.37 49.24 123.24 46.85 118.25 44.44 113.28 42.02 108.31 39.58 103.34 37.13 98.38 34.67 93.43 32.19 88.49 29.7 83.56 27.2 78.63 24.68 73.7 22.14 68.79 19.6 63.88 17.04 58.98 14.46 54.09 11.87 49.2 9.27 44.33"/></g><g id="Ebene_3" data-name="Ebene 3"><polygon class="cls-1" points="593.6 192.41 593.86 191.23 594.1 190.07 594.32 188.9 594.51 187.75 594.69 186.59 594.85 185.45 594.99 184.31 595.11 183.17 595.21 182.04 595.3 180.91 595.36 179.79 595.41 178.67 595.45 177.56 595.46 176.45 595.46 175.35 595.44 174.26 595.41 173.16 595.36 172.08 595.3 171 595.22 169.92 595.13 168.85 595.02 167.78 594.9 166.72 594.76 165.66 594.62 164.61 594.45 163.56 594.28 162.51 594.1 161.48 593.9 160.44 593.69 159.41 593.47 158.39 593.24 157.37 592.99 156.35 592.74 155.34 592.48 154.34 592.2 153.34 591.92 152.34 591.63 151.35 591.33 150.36 591.02 149.38 590.7 148.4 590.38 147.42 590.04 146.45 589.7 145.49 589.36 144.53 589 143.57 588.64 142.62 588.28 141.67 587.91 140.73 587.53 139.79 587.15 138.86 586.76 137.93 585.98 136.08 585.17 134.25 584.36 132.43 583.54 130.64 582.7 128.86 581.87 127.09 575.3 113.56 574.53 111.93 573.79 110.33 573.07 108.73 572.37 107.16 571.7 105.59 571.37 104.82 571.06 104.05 570.75 103.28 570.45 102.51 570.16 101.75 569.88 100.99 569.61 100.24 569.34 99.48 569.09 98.74 568.85 97.99 568.62 97.25 568.4 96.51 568.19 95.78 568 95.05 567.81 94.32 567.64 93.6 567.48 92.88 567.34 92.16 567.21 91.44 567.09 90.73 566.98 90.03 566.89 89.32 566.81 88.62 566.75 87.92 566.71 87.23 566.68 86.54 566.66 85.85 566.66 85.16 566.68 84.48 566.72 83.8 566.77 83.12 566.84 82.45 566.92 81.78 567.03 81.11 567.15 80.45 567.29 79.79 567.46 79.13 567.64 78.48 568.67 78.98 569.71 79.49 570.74 80 571.76 80.52 572.78 81.05 573.8 81.59 574.82 82.13 575.83 82.68 576.83 83.24 577.84 83.8 578.83 84.38 579.83 84.95 580.82 85.54 581.81 86.13 582.79 86.72 583.77 87.33 584.74 87.94 585.71 88.56 586.68 89.18 587.64 89.81 588.6 90.44 589.55 91.09 590.5 91.74 591.44 92.39 592.38 93.05 593.32 93.72 594.25 94.39 595.17 95.07 596.09 95.76 597.01 96.45 597.92 97.15 598.83 97.85 599.73 98.56 600.63 99.27 601.52 100 602.4 100.72 603.29 101.45 604.16 102.19 605.03 102.94 605.9 103.69 606.76 104.44 607.62 105.2 608.47 105.97 609.32 106.74 610.16 107.51 610.99 108.3 611.82 109.08 612.65 109.88 613.47 110.67 614.28 111.47 615.09 112.28 615.89 113.1 616.69 113.92 617.48 114.74 618.26 115.57 619.04 116.4 619.82 117.24 620.59 118.08 621.35 118.93 622.11 119.78 622.86 120.64 623.6 121.5 624.34 122.37 625.07 123.24 623.02 127.52 620.99 131.82 618.97 136.11 616.95 140.41 614.95 144.72 612.96 149.03 610.97 153.35 609 157.67 607.04 162 605.09 166.33 603.15 170.66 601.22 175 599.3 179.34 597.39 183.69 595.49 188.05 593.6 192.41"/><polygon class="cls-1" points="106.68 78.48 106.86 79.13 107.02 79.79 107.16 80.45 107.28 81.11 107.39 81.78 107.48 82.45 107.55 83.12 107.6 83.8 107.63 84.48 107.65 85.16 107.65 85.85 107.64 86.54 107.61 87.23 107.56 87.92 107.5 88.62 107.42 89.32 107.33 90.03 107.23 90.73 107.11 91.44 106.98 92.16 106.83 92.88 106.67 93.6 106.5 94.32 106.31 95.05 106.12 95.78 105.91 96.51 105.69 97.25 105.46 97.99 105.22 98.74 104.97 99.48 104.71 100.24 104.44 100.99 104.15 101.75 103.86 102.51 103.56 103.28 103.26 104.05 102.94 104.82 102.62 105.59 101.95 107.16 101.25 108.73 100.52 110.33 99.78 111.93 99.01 113.56 92.44 127.09 91.61 128.86 90.78 130.64 89.95 132.43 89.14 134.25 88.34 136.08 87.55 137.93 87.17 138.86 86.78 139.79 86.41 140.73 86.03 141.67 85.67 142.62 85.31 143.57 84.96 144.53 84.61 145.49 84.27 146.45 83.94 147.42 83.61 148.4 83.29 149.38 82.98 150.36 82.69 151.35 82.39 152.34 82.11 153.34 81.84 154.34 81.57 155.34 81.32 156.35 81.08 157.37 80.85 158.39 80.63 159.41 80.42 160.44 80.22 161.48 80.03 162.51 79.86 163.56 79.7 164.61 79.55 165.66 79.42 166.72 79.29 167.78 79.19 168.85 79.09 169.92 79.02 171 78.95 172.08 78.9 173.16 78.87 174.26 78.85 175.35 78.85 176.45 78.87 177.56 78.9 178.67 78.95 179.79 79.02 180.91 79.1 182.04 79.2 183.17 79.32 184.31 79.46 185.45 79.62 186.59 79.8 187.75 80 188.9 80.21 190.07 80.45 191.23 80.71 192.41 78.82 188.05 76.92 183.69 75.01 179.34 73.09 175 71.17 170.66 69.22 166.33 67.27 162 65.31 157.67 63.34 153.35 61.36 149.03 59.36 144.72 57.36 140.41 55.35 136.11 53.32 131.82 51.29 127.52 49.24 123.24 49.98 122.37 50.71 121.5 51.46 120.64 52.21 119.78 52.96 118.93 53.73 118.08 54.49 117.24 55.27 116.4 56.05 115.57 56.83 114.74 57.62 113.92 58.42 113.1 59.22 112.28 60.03 111.47 60.84 110.67 61.66 109.88 62.49 109.08 63.32 108.3 64.15 107.51 65 106.74 65.84 105.97 66.69 105.2 67.55 104.44 68.41 103.69 69.28 102.94 70.15 102.19 71.03 101.45 71.91 100.72 72.8 100 73.69 99.27 74.58 98.56 75.49 97.85 76.39 97.15 77.31 96.45 78.22 95.76 79.14 95.07 80.07 94.39 81 93.72 81.93 93.05 82.87 92.39 83.82 91.74 84.76 91.09 85.72 90.44 86.67 89.81 87.64 89.18 88.6 88.56 89.57 87.94 90.55 87.33 91.52 86.72 92.51 86.13 93.49 85.54 94.48 84.95 95.48 84.38 96.48 83.8 97.48 83.24 98.49 82.68 99.5 82.13 100.51 81.59 101.53 81.05 102.55 80.52 103.58 80 104.61 79.49 105.64 78.98 106.68 78.48"/></g><g id="disabled"><line class="cls-1" x1="16.48" y1="37.77" x2="16.39" y2="37.52"/><line class="cls-1" x1="24.75" y1="41.84" x2="22.9" y2="36.76"/><line class="cls-1" x1="32.7" y1="45.04" x2="29.41" y2="36.02"/><line class="cls-1" x1="95.3" y1="217.03" x2="90.4" y2="203.58"/><line class="cls-1" x1="40.4" y1="47.56" x2="35.93" y2="35.29"/><line class="cls-1" x1="100.54" y1="212.8" x2="90.39" y2="184.9"/><line class="cls-1" x1="47.91" y1="49.54" x2="42.46" y2="34.57"/><line class="cls-1" x1="104.64" y1="205.41" x2="92.2" y2="171.21"/><line class="cls-1" x1="55.25" y1="51.07" x2="48.99" y2="33.87"/><line class="cls-1" x1="103.66" y1="184.06" x2="95.02" y2="160.32"/><line class="cls-1" x1="62.47" y1="52.24" x2="55.53" y2="33.18"/><line class="cls-1" x1="106.54" y1="173.33" x2="98.51" y2="151.26"/><line class="cls-1" x1="69.57" y1="53.11" x2="62.07" y2="32.51"/><line class="cls-1" x1="110.51" y1="165.58" x2="102.47" y2="143.49"/><line class="cls-1" x1="76.59" y1="53.75" x2="68.62" y2="31.86"/><line class="cls-1" x1="115.01" y1="159.31" x2="106.77" y2="136.67"/><line class="cls-1" x1="83.54" y1="54.2" x2="75.18" y2="31.22"/><line class="cls-1" x1="119.84" y1="153.93" x2="111.33" y2="130.56"/><line class="cls-1" x1="90.44" y1="54.51" x2="81.74" y2="30.59"/><line class="cls-1" x1="124.87" y1="149.11" x2="116.09" y2="124.97"/><line class="cls-1" x1="97.31" y1="54.73" x2="88.3" y2="29.98"/><line class="cls-1" x1="130.03" y1="144.64" x2="120.98" y2="119.77"/><line class="cls-1" x1="104.17" y1="54.92" x2="94.87" y2="29.39"/><line class="cls-1" x1="135.27" y1="140.39" x2="125.96" y2="114.79"/><line class="cls-1" x1="111.03" y1="55.12" x2="101.45" y2="28.81"/><line class="cls-1" x1="140.55" y1="136.24" x2="130.96" y2="109.88"/><line class="cls-1" x1="117.92" y1="55.41" x2="108.03" y2="28.25"/><line class="cls-1" x1="145.84" y1="132.12" x2="135.91" y2="104.85"/><line class="cls-1" x1="124.87" y1="55.87" x2="114.62" y2="27.7"/><line class="cls-1" x1="151.11" y1="127.96" x2="140.75" y2="99.49"/><line class="cls-1" x1="131.93" y1="56.61" x2="121.21" y2="27.17"/><line class="cls-1" x1="156.35" y1="123.7" x2="145.42" y2="93.66"/><line class="cls-1" x1="139.15" y1="57.8" x2="127.81" y2="26.65"/><line class="cls-1" x1="161.53" y1="119.27" x2="149.85" y2="87.18"/><line class="cls-1" x1="146.65" y1="59.75" x2="134.42" y2="26.15"/><line class="cls-1" x1="166.62" y1="114.63" x2="153.9" y2="79.66"/><line class="cls-1" x1="154.64" y1="63.07" x2="141.03" y2="25.66"/><line class="cls-1" x1="171.61" y1="109.69" x2="157.13" y2="69.9"/><line class="cls-1" x1="176.48" y1="104.41" x2="148.44" y2="27.39"/><line class="cls-1" x1="181.19" y1="98.71" x2="156.16" y2="29.94"/><line class="cls-1" x1="185.72" y1="92.5" x2="163.71" y2="32.04"/><line class="cls-1" x1="190.02" y1="85.68" x2="171.12" y2="33.74"/><line class="cls-1" x1="194.06" y1="78.13" x2="178.39" y2="35.08"/><line class="cls-1" x1="197.84" y1="69.87" x2="185.55" y2="36.11"/><line class="cls-1" x1="203.57" y1="66.95" x2="192.62" y2="36.87"/><line class="cls-1" x1="209.59" y1="64.85" x2="199.6" y2="37.4"/><line class="cls-1" x1="215.86" y1="63.43" x2="206.51" y2="37.74"/><line class="cls-1" x1="222.34" y1="62.58" x2="213.37" y2="37.93"/><line class="cls-1" x1="229" y1="62.22" x2="220.18" y2="38.02"/><line class="cls-1" x1="235.81" y1="62.3" x2="227" y2="38.09"/><line class="cls-1" x1="242.76" y1="62.74" x2="233.82" y2="38.18"/><line class="cls-1" x1="249.83" y1="63.53" x2="240.69" y2="38.4"/><line class="cls-1" x1="257.01" y1="64.61" x2="247.62" y2="38.79"/><line class="cls-1" x1="264.3" y1="65.98" x2="254.62" y2="39.38"/><line class="cls-1" x1="271.67" y1="67.59" x2="261.7" y2="40.19"/><line class="cls-1" x1="279.13" y1="69.42" x2="268.88" y2="41.26"/><line class="cls-1" x1="286.66" y1="71.47" x2="276.15" y2="42.59"/><line class="cls-1" x1="294.26" y1="73.71" x2="283.51" y2="44.16"/><line class="cls-1" x1="301.59" y1="75.2" x2="290.93" y2="45.91"/><line class="cls-1" x1="307.2" y1="71.97" x2="298.4" y2="47.79"/><line class="cls-1" x1="312.83" y1="68.77" x2="305.92" y2="49.8"/><line class="cls-1" x1="318.46" y1="65.6" x2="313.49" y2="51.94"/><line class="cls-1" x1="324.1" y1="62.45" x2="321.09" y2="54.18"/><line class="cls-1" x1="330.06" y1="60.17" x2="328.74" y2="56.55"/><line class="cls-1" x1="336.52" y1="59.27" x2="336.43" y2="59.03"/><line class="cls-1" x1="16.6" y1="37.84" x2="17.96" y2="37.34"/><line class="cls-1" x1="24.52" y1="41.74" x2="44.96" y2="34.3"/><line class="cls-1" x1="33.4" y1="45.3" x2="70.95" y2="31.63"/><line class="cls-1" x1="43.46" y1="48.42" x2="96.04" y2="29.28"/><line class="cls-1" x1="54.97" y1="51.02" x2="120.31" y2="27.24"/><line class="cls-1" x1="68.26" y1="52.97" x2="143.59" y2="25.55"/><line class="cls-1" x1="83.54" y1="54.2" x2="152.95" y2="28.93"/><line class="cls-1" x1="100.47" y1="54.82" x2="163.32" y2="31.94"/><line class="cls-1" x1="117.55" y1="55.39" x2="174.98" y2="34.49"/><line class="cls-1" x1="132.61" y1="56.7" x2="188.29" y2="36.43"/><line class="cls-1" x1="144.59" y1="59.13" x2="203.68" y2="37.62"/><line class="cls-1" x1="153.7" y1="62.59" x2="221.2" y2="38.03"/><line class="cls-1" x1="157.45" y1="68.02" x2="239.01" y2="38.33"/><line class="cls-1" x1="155.58" y1="75.49" x2="254.75" y2="39.39"/><line class="cls-1" x1="151.93" y1="83.6" x2="268.45" y2="41.19"/><line class="cls-1" x1="229.33" y1="62.22" x2="280.66" y2="43.53"/><line class="cls-1" x1="146.32" y1="92.43" x2="195.79" y2="74.42"/><line class="cls-1" x1="245.73" y1="63.04" x2="292.04" y2="46.18"/><line class="cls-1" x1="138.48" y1="102.07" x2="191.7" y2="82.7"/><line class="cls-1" x1="259.06" y1="64.97" x2="302.95" y2="49"/><line class="cls-1" x1="128.17" y1="112.61" x2="186.45" y2="91.4"/><line class="cls-1" x1="270.97" y1="67.42" x2="313.5" y2="51.94"/><line class="cls-1" x1="117.7" y1="123.21" x2="179.63" y2="100.67"/><line class="cls-1" x1="282.02" y1="70.19" x2="323.76" y2="55"/><line class="cls-1" x1="109.42" y1="133.01" x2="170.58" y2="110.75"/><line class="cls-1" x1="292.48" y1="73.17" x2="333.75" y2="58.15"/><line class="cls-1" x1="103.33" y1="142.02" x2="158.42" y2="121.96"/><line class="cls-1" x1="98.89" y1="150.42" x2="142.93" y2="134.39"/><line class="cls-1" x1="95.68" y1="158.37" x2="127.5" y2="146.79"/><line class="cls-1" x1="93.38" y1="166" x2="116.46" y2="157.6"/><line class="cls-1" x1="91.79" y1="173.36" x2="109.75" y2="166.83"/><line class="cls-1" x1="90.78" y1="180.52" x2="105.9" y2="175.01"/><line class="cls-1" x1="90.23" y1="187.51" x2="103.91" y2="182.53"/><line class="cls-1" x1="90.08" y1="194.35" x2="103.16" y2="189.59"/><line class="cls-1" x1="90.26" y1="201.07" x2="103.32" y2="196.32"/><line class="cls-1" x1="90.72" y1="207.69" x2="104.15" y2="202.8"/><line class="cls-1" x1="91.43" y1="214.22" x2="104.89" y2="209.32"/><line class="cls-1" x1="651.17" y1="41.11" x2="652.7" y2="36.91"/><line class="cls-1" x1="643.16" y1="44.47" x2="646.19" y2="36.16"/><line class="cls-1" x1="580.05" y1="217.87" x2="583.54" y2="208.29"/><line class="cls-1" x1="635.41" y1="47.11" x2="639.67" y2="35.43"/><line class="cls-1" x1="574.81" y1="213.63" x2="584.11" y2="188.08"/><line class="cls-1" x1="627.87" y1="49.19" x2="633.14" y2="34.71"/><line class="cls-1" x1="569.55" y1="209.42" x2="582.57" y2="173.65"/><line class="cls-1" x1="620.5" y1="50.8" x2="626.61" y2="34.01"/><line class="cls-1" x1="570.98" y1="186.85" x2="579.91" y2="162.31"/><line class="cls-1" x1="613.26" y1="52.04" x2="620.07" y2="33.32"/><line class="cls-1" x1="568.46" y1="175.14" x2="576.54" y2="152.94"/><line class="cls-1" x1="606.14" y1="52.96" x2="613.53" y2="32.64"/><line class="cls-1" x1="564.64" y1="166.96" x2="572.66" y2="144.94"/><line class="cls-1" x1="599.1" y1="53.64" x2="606.98" y2="31.99"/><line class="cls-1" x1="560.22" y1="160.47" x2="568.42" y2="137.95"/><line class="cls-1" x1="592.14" y1="54.12" x2="600.43" y2="31.34"/><line class="cls-1" x1="555.44" y1="154.94" x2="563.9" y2="131.72"/><line class="cls-1" x1="585.23" y1="54.45" x2="593.87" y2="30.71"/><line class="cls-1" x1="550.45" y1="150.03" x2="559.18" y2="126.04"/><line class="cls-1" x1="578.36" y1="54.69" x2="587.31" y2="30.1"/><line class="cls-1" x1="545.31" y1="145.5" x2="554.31" y2="120.77"/><line class="cls-1" x1="571.5" y1="54.88" x2="580.74" y2="29.51"/><line class="cls-1" x1="540.08" y1="141.21" x2="549.34" y2="115.76"/><line class="cls-1" x1="564.64" y1="55.08" x2="574.16" y2="28.92"/><line class="cls-1" x1="534.81" y1="137.06" x2="544.34" y2="110.85"/><line class="cls-1" x1="557.76" y1="55.35" x2="567.58" y2="28.36"/><line class="cls-1" x1="529.52" y1="132.94" x2="539.37" y2="105.86"/><line class="cls-1" x1="550.82" y1="55.76" x2="560.99" y2="27.81"/><line class="cls-1" x1="524.24" y1="128.79" x2="534.51" y2="100.58"/><line class="cls-1" x1="543.79" y1="56.43" x2="554.4" y2="27.27"/><line class="cls-1" x1="518.99" y1="124.56" x2="529.8" y2="94.86"/><line class="cls-1" x1="536.61" y1="57.52" x2="547.8" y2="26.75"/><line class="cls-1" x1="513.8" y1="120.17" x2="525.32" y2="88.53"/><line class="cls-1" x1="529.18" y1="59.28" x2="541.2" y2="26.24"/><line class="cls-1" x1="508.69" y1="115.57" x2="521.18" y2="81.26"/><line class="cls-1" x1="521.31" y1="62.26" x2="534.59" y2="25.76"/><line class="cls-1" x1="503.68" y1="110.69" x2="517.7" y2="72.15"/><line class="cls-1" x1="498.79" y1="105.48" x2="527.42" y2="26.82"/><line class="cls-1" x1="494.04" y1="99.87" x2="519.66" y2="29.48"/><line class="cls-1" x1="489.48" y1="93.77" x2="512.08" y2="31.66"/><line class="cls-1" x1="485.12" y1="87.08" x2="504.65" y2="33.43"/><line class="cls-1" x1="481.03" y1="79.69" x2="497.35" y2="34.84"/><line class="cls-1" x1="477.24" y1="71.44" x2="490.17" y2="35.93"/><line class="cls-1" x1="471.9" y1="67.46" x2="483.08" y2="36.74"/><line class="cls-1" x1="465.93" y1="65.21" x2="476.09" y2="37.31"/><line class="cls-1" x1="459.71" y1="63.66" x2="469.17" y2="37.68"/><line class="cls-1" x1="453.27" y1="62.71" x2="462.3" y2="37.9"/><line class="cls-1" x1="446.65" y1="62.26" x2="455.47" y2="38"/><line class="cls-1" x1="439.86" y1="62.25" x2="448.66" y2="38.08"/><line class="cls-1" x1="432.94" y1="62.63" x2="441.84" y2="38.15"/><line class="cls-1" x1="425.89" y1="63.35" x2="434.99" y2="38.35"/><line class="cls-1" x1="418.73" y1="64.38" x2="428.07" y2="38.7"/><line class="cls-1" x1="411.46" y1="65.69" x2="421.09" y2="39.24"/><line class="cls-1" x1="404.11" y1="67.25" x2="414.02" y2="40.01"/><line class="cls-1" x1="396.67" y1="69.04" x2="406.86" y2="41.03"/><line class="cls-1" x1="389.15" y1="71.05" x2="399.61" y2="42.31"/><line class="cls-1" x1="381.56" y1="73.25" x2="392.27" y2="43.84"/><line class="cls-1" x1="373.9" y1="75.63" x2="384.85" y2="45.55"/><line class="cls-1" x1="368.22" y1="72.61" x2="377.39" y2="47.41"/><line class="cls-1" x1="362.6" y1="69.4" x2="369.88" y2="49.4"/><line class="cls-1" x1="356.97" y1="66.22" x2="362.32" y2="51.51"/><line class="cls-1" x1="351.33" y1="63.07" x2="354.73" y2="53.73"/><line class="cls-1" x1="345.47" y1="60.51" x2="347.09" y2="56.07"/><line class="cls-1" x1="339.11" y1="59.34" x2="339.41" y2="58.53"/><line class="cls-1" x1="655.88" y1="38.8" x2="649.75" y2="36.57"/><line class="cls-1" x1="647.75" y1="42.63" x2="623.01" y2="33.62"/><line class="cls-1" x1="638.61" y1="46.09" x2="597.24" y2="31.03"/><line class="cls-1" x1="628.23" y1="49.1" x2="572.36" y2="28.77"/><line class="cls-1" x1="616.32" y1="51.55" x2="548.28" y2="26.79"/><line class="cls-1" x1="602.56" y1="53.33" x2="528.55" y2="26.39"/><line class="cls-1" x1="586.82" y1="54.39" x2="518.97" y2="29.69"/><line class="cls-1" x1="569.66" y1="54.93" x2="508.31" y2="32.6"/><line class="cls-1" x1="552.89" y1="55.62" x2="496.29" y2="35.02"/><line class="cls-1" x1="538.53" y1="57.18" x2="482.52" y2="36.79"/><line class="cls-1" x1="527.29" y1="59.87" x2="466.59" y2="37.78"/><line class="cls-1" x1="518.77" y1="63.56" x2="448.76" y2="38.08"/><line class="cls-1" x1="517.15" y1="69.76" x2="431.31" y2="38.51"/><line class="cls-1" x1="519.44" y1="77.38" x2="416.09" y2="39.76"/><line class="cls-1" x1="523.55" y1="85.66" x2="402.81" y2="41.71"/><line class="cls-1" x1="440.54" y1="62.23" x2="390.86" y2="44.15"/><line class="cls-1" x1="529.66" y1="94.67" x2="479.42" y2="76.38"/><line class="cls-1" x1="425.2" y1="63.44" x2="379.61" y2="46.85"/><line class="cls-1" x1="538.1" y1="104.53" x2="483.75" y2="84.75"/><line class="cls-1" x1="412.29" y1="65.53" x2="368.79" y2="49.69"/><line class="cls-1" x1="548.78" y1="115.21" x2="489.34" y2="93.57"/><line class="cls-1" x1="400.62" y1="68.07" x2="358.32" y2="52.67"/><line class="cls-1" x1="558.82" y1="125.65" x2="496.63" y2="103.01"/><line class="cls-1" x1="389.72" y1="70.89" x2="348.13" y2="55.75"/><line class="cls-1" x1="566.54" y1="135.24" x2="506.34" y2="113.33"/><line class="cls-1" x1="339.39" y1="59.36" x2="338.2" y2="58.92"/><line class="cls-1" x1="379.39" y1="73.91" x2="354.59" y2="64.89"/><line class="cls-1" x1="572.18" y1="144.08" x2="519.36" y2="124.86"/><line class="cls-1" x1="576.29" y1="152.37" x2="535.32" y2="137.45"/><line class="cls-1" x1="579.27" y1="160.24" x2="549.93" y2="149.56"/><line class="cls-1" x1="581.38" y1="167.79" x2="559.8" y2="159.94"/><line class="cls-1" x1="582.81" y1="175.1" x2="565.7" y2="168.88"/><line class="cls-1" x1="583.7" y1="182.21" x2="569.03" y2="176.87"/><line class="cls-1" x1="584.15" y1="189.16" x2="570.68" y2="184.26"/><line class="cls-1" x1="584.22" y1="195.98" x2="571.18" y2="191.23"/><line class="cls-1" x1="583.97" y1="202.67" x2="570.85" y2="197.9"/><line class="cls-1" x1="583.44" y1="209.27" x2="569.89" y2="204.33"/><line class="cls-1" x1="582.67" y1="215.78" x2="573.17" y2="212.32"/><line class="cls-1" x1="2.41" y1="31.62" x2="2.41" y2="29.22"/><line class="cls-1" x1="8.79" y1="38.43" x2="8.79" y2="28.44"/><line class="cls-1" x1="15.16" y1="37.67" x2="15.16" y2="27.68"/><line class="cls-1" x1="21.54" y1="36.92" x2="21.54" y2="26.93"/><line class="cls-1" x1="27.92" y1="36.19" x2="27.92" y2="26.2"/><line class="cls-1" x1="34.3" y1="35.47" x2="34.3" y2="25.49"/><line class="cls-1" x1="40.68" y1="34.76" x2="40.68" y2="24.78"/><line class="cls-1" x1="47.05" y1="34.08" x2="47.05" y2="24.1"/><line class="cls-1" x1="53.43" y1="33.4" x2="53.43" y2="23.43"/><line class="cls-1" x1="59.81" y1="32.74" x2="59.81" y2="22.77"/><line class="cls-1" x1="66.19" y1="32.1" x2="66.19" y2="22.13"/><line class="cls-1" x1="72.57" y1="31.47" x2="72.57" y2="21.5"/><line class="cls-1" x1="78.94" y1="30.86" x2="78.94" y2="20.89"/><line class="cls-1" x1="85.32" y1="30.26" x2="85.32" y2="20.29"/><line class="cls-1" x1="91.7" y1="29.67" x2="91.7" y2="19.71"/><line class="cls-1" x1="98.08" y1="29.1" x2="98.08" y2="19.15"/><line class="cls-1" x1="104.46" y1="28.55" x2="104.46" y2="18.59"/><line class="cls-1" x1="110.83" y1="28.01" x2="110.83" y2="18.06"/><line class="cls-1" x1="117.21" y1="27.49" x2="117.21" y2="17.53"/><line class="cls-1" x1="123.59" y1="26.98" x2="123.59" y2="26.32"/><line class="cls-1" x1="67.85" y1="21.96" x2="123.26" y2="21.96"/><line class="cls-1" x1="9.6" y1="28.34" x2="106.9" y2="28.34"/><line class="cls-1" x1="4.1" y1="34.72" x2="41.08" y2="34.72"/><line class="cls-1" x1="232.01" y1="20.61" x2="232.01" y2="10.68"/><line class="cls-1" x1="238.39" y1="20.37" x2="238.39" y2="10.44"/><line class="cls-1" x1="244.77" y1="20.15" x2="244.77" y2="10.22"/><line class="cls-1" x1="251.15" y1="19.94" x2="251.15" y2="10.01"/><line class="cls-1" x1="257.53" y1="19.74" x2="257.53" y2="9.81"/><line class="cls-1" x1="263.9" y1="19.56" x2="263.9" y2="9.63"/><line class="cls-1" x1="270.28" y1="19.39" x2="270.28" y2="9.47"/><line class="cls-1" x1="276.66" y1="19.24" x2="276.66" y2="9.32"/><line class="cls-1" x1="283.04" y1="19.11" x2="283.04" y2="9.19"/><line class="cls-1" x1="289.42" y1="18.99" x2="289.42" y2="9.07"/><line class="cls-1" x1="295.79" y1="18.88" x2="295.79" y2="8.96"/><line class="cls-1" x1="302.17" y1="18.79" x2="302.17" y2="8.87"/><line class="cls-1" x1="308.55" y1="18.72" x2="308.55" y2="8.8"/><line class="cls-1" x1="314.93" y1="18.66" x2="314.93" y2="8.74"/><line class="cls-1" x1="321.31" y1="18.61" x2="321.31" y2="8.69"/><line class="cls-1" x1="281.95" y1="9.21" x2="327.24" y2="9.21"/><line class="cls-1" x1="226.75" y1="15.59" x2="327.24" y2="15.59"/><line class="cls-1" x1="142.72" y1="16.18" x2="142.72" y2="15.59"/><line class="cls-1" x1="149.1" y1="25.09" x2="149.1" y2="15.15"/><line class="cls-1" x1="155.48" y1="24.66" x2="155.48" y2="14.71"/><line class="cls-1" x1="161.86" y1="24.24" x2="161.86" y2="14.29"/><line class="cls-1" x1="168.23" y1="23.83" x2="168.23" y2="13.89"/><line class="cls-1" x1="174.61" y1="23.44" x2="174.61" y2="13.5"/><line class="cls-1" x1="180.99" y1="23.07" x2="180.99" y2="13.13"/><line class="cls-1" x1="187.37" y1="22.71" x2="187.37" y2="12.77"/><line class="cls-1" x1="193.75" y1="22.36" x2="193.75" y2="12.43"/><line class="cls-1" x1="200.12" y1="22.03" x2="200.12" y2="12.1"/><line class="cls-1" x1="206.5" y1="21.72" x2="206.5" y2="11.79"/><line class="cls-1" x1="142.81" y1="15.59" x2="206.89" y2="15.59"/><line class="cls-1" x1="143.16" y1="21.96" x2="201.51" y2="21.96"/><line class="cls-1" x1="468" y1="21.73" x2="468" y2="11.8"/><line class="cls-1" x1="474.38" y1="22.04" x2="474.38" y2="12.11"/><line class="cls-1" x1="480.75" y1="22.37" x2="480.75" y2="12.44"/><line class="cls-1" x1="487.13" y1="22.72" x2="487.13" y2="12.78"/><line class="cls-1" x1="493.51" y1="23.08" x2="493.51" y2="13.14"/><line class="cls-1" x1="499.89" y1="23.45" x2="499.89" y2="13.51"/><line class="cls-1" x1="506.27" y1="23.84" x2="506.27" y2="13.9"/><line class="cls-1" x1="512.64" y1="24.25" x2="512.64" y2="14.31"/><line class="cls-1" x1="519.02" y1="24.67" x2="519.02" y2="14.72"/><line class="cls-1" x1="525.4" y1="25.1" x2="525.4" y2="15.16"/><line class="cls-1" x1="467.42" y1="15.59" x2="531.5" y2="15.59"/><line class="cls-1" x1="472.8" y1="21.96" x2="531.15" y2="21.96"/><line class="cls-1" x1="353.2" y1="18.61" x2="353.2" y2="8.69"/><line class="cls-1" x1="359.57" y1="18.66" x2="359.57" y2="8.74"/><line class="cls-1" x1="365.95" y1="18.72" x2="365.95" y2="8.8"/><line class="cls-1" x1="372.33" y1="18.8" x2="372.33" y2="8.87"/><line class="cls-1" x1="378.71" y1="18.89" x2="378.71" y2="8.96"/><line class="cls-1" x1="385.09" y1="18.99" x2="385.09" y2="9.07"/><line class="cls-1" x1="391.46" y1="19.11" x2="391.46" y2="9.19"/><line class="cls-1" x1="397.84" y1="19.25" x2="397.84" y2="9.32"/><line class="cls-1" x1="404.22" y1="19.4" x2="404.22" y2="9.47"/><line class="cls-1" x1="410.6" y1="19.56" x2="410.6" y2="9.64"/><line class="cls-1" x1="416.97" y1="19.75" x2="416.97" y2="9.82"/><line class="cls-1" x1="423.35" y1="19.94" x2="423.35" y2="10.01"/><line class="cls-1" x1="429.73" y1="20.15" x2="429.73" y2="10.22"/><line class="cls-1" x1="436.11" y1="20.38" x2="436.11" y2="10.45"/><line class="cls-1" x1="442.49" y1="20.62" x2="442.49" y2="10.69"/><line class="cls-1" x1="347.08" y1="9.21" x2="392.36" y2="9.21"/><line class="cls-1" x1="347.08" y1="15.59" x2="447.56" y2="15.59"/><line class="cls-1" x1="550.91" y1="26.99" x2="550.91" y2="23.83"/><line class="cls-1" x1="557.29" y1="27.5" x2="557.29" y2="17.55"/><line class="cls-1" x1="563.67" y1="28.03" x2="563.67" y2="18.07"/><line class="cls-1" x1="570.05" y1="28.57" x2="570.05" y2="18.61"/><line class="cls-1" x1="576.42" y1="29.12" x2="576.42" y2="19.16"/><line class="cls-1" x1="582.8" y1="29.69" x2="582.8" y2="19.73"/><line class="cls-1" x1="589.18" y1="30.27" x2="589.18" y2="20.31"/><line class="cls-1" x1="595.56" y1="30.87" x2="595.56" y2="20.91"/><line class="cls-1" x1="601.94" y1="31.49" x2="601.94" y2="21.52"/><line class="cls-1" x1="608.31" y1="32.12" x2="608.31" y2="22.15"/><line class="cls-1" x1="614.69" y1="32.76" x2="614.69" y2="22.79"/><line class="cls-1" x1="621.07" y1="33.42" x2="621.07" y2="23.45"/><line class="cls-1" x1="627.45" y1="34.1" x2="627.45" y2="24.12"/><line class="cls-1" x1="633.83" y1="34.79" x2="633.83" y2="24.8"/><line class="cls-1" x1="640.2" y1="35.49" x2="640.2" y2="25.51"/><line class="cls-1" x1="646.58" y1="36.21" x2="646.58" y2="26.22"/><line class="cls-1" x1="652.96" y1="36.94" x2="652.96" y2="26.96"/><line class="cls-1" x1="659.34" y1="37.69" x2="659.34" y2="27.7"/><line class="cls-1" x1="665.71" y1="38.46" x2="665.71" y2="28.46"/><line class="cls-1" x1="672.09" y1="31.27" x2="672.09" y2="29.24"/><line class="cls-1" x1="551.05" y1="21.96" x2="606.47" y2="21.96"/><line class="cls-1" x1="567.41" y1="28.34" x2="664.71" y2="28.34"/><line class="cls-1" x1="633.23" y1="34.72" x2="670.22" y2="34.72"/><polygon class="cls-1" points="123.64 26.97 116.9 27.51 110.17 28.07 103.44 28.64 96.71 29.22 89.98 29.83 83.25 30.45 76.53 31.09 69.81 31.74 63.08 32.41 56.36 33.09 49.65 33.8 42.93 34.52 36.22 35.25 29.5 36.01 22.8 36.77 16.09 37.56 11.18 38.15 6.27 38.74 3.73 34.05 1.18 29.37 8.77 28.44 16.36 27.54 23.95 26.65 31.55 25.79 39.15 24.95 46.75 24.13 54.35 23.33 61.96 22.55 69.57 21.79 77.18 21.06 84.79 20.34 92.41 19.65 100.03 18.97 107.65 18.32 115.27 17.69 122.89 17.08 123.64 26.97"/><polygon class="cls-1" points="327.24 8.66 327.24 18.59 320.97 18.62 314.7 18.66 308.43 18.72 302.16 18.79 295.9 18.88 289.63 18.98 283.36 19.1 277.1 19.23 270.83 19.38 264.56 19.54 258.3 19.72 252.03 19.91 245.77 20.11 239.5 20.33 233.24 20.56 226.97 20.81 226.55 10.9 232.84 10.65 239.13 10.41 245.42 10.2 251.71 9.99 258 9.8 264.3 9.62 270.59 9.46 276.88 9.31 283.18 9.18 289.47 9.06 295.76 8.96 302.06 8.87 308.35 8.8 314.65 8.74 320.94 8.69 327.24 8.66"/><polygon class="cls-1" points="143.43 25.49 142.68 15.6 146.68 15.31 150.68 15.04 154.68 14.77 158.68 14.5 162.68 14.24 166.69 13.99 170.69 13.74 174.69 13.5 178.69 13.26 182.7 13.03 186.7 12.81 190.71 12.59 194.71 12.38 198.72 12.17 202.72 11.97 206.73 11.78 207.15 21.69 203.17 21.88 199.18 22.08 195.2 22.29 191.21 22.5 187.23 22.72 183.24 22.94 179.26 23.17 175.28 23.4 171.29 23.64 167.31 23.89 163.33 24.14 159.35 24.4 155.37 24.66 151.38 24.93 147.41 25.21 143.43 25.49"/><polygon class="cls-1" points="531.63 15.6 530.89 25.49 526.91 25.21 522.93 24.93 518.95 24.66 514.97 24.4 510.98 24.14 507 23.89 503.02 23.64 499.04 23.4 495.05 23.17 491.07 22.94 487.09 22.72 483.1 22.5 479.12 22.29 475.13 22.08 471.15 21.88 467.16 21.69 467.58 11.78 471.59 11.97 475.6 12.17 479.6 12.38 483.61 12.59 487.61 12.81 491.61 13.03 495.62 13.26 499.62 13.5 503.63 13.74 507.63 13.99 511.63 14.24 515.63 14.5 519.63 14.77 523.63 15.04 527.63 15.31 531.63 15.6"/><polygon class="cls-1" points="347.08 18.59 347.08 8.66 353.37 8.69 359.67 8.74 365.96 8.8 372.26 8.87 378.55 8.96 384.84 9.06 391.14 9.18 397.43 9.31 403.72 9.46 410.02 9.62 416.31 9.8 422.6 9.99 428.89 10.2 435.18 10.41 441.47 10.65 447.76 10.9 447.34 20.81 441.07 20.56 434.81 20.33 428.55 20.11 422.28 19.91 416.02 19.72 409.75 19.54 403.49 19.38 397.22 19.23 390.95 19.1 384.68 18.98 378.42 18.88 372.15 18.79 365.88 18.72 359.61 18.66 353.35 18.62 347.08 18.59"/><polygon class="cls-1" points="658.23 37.56 651.52 36.77 644.81 36.01 638.1 35.25 631.38 34.52 624.67 33.8 617.95 33.09 611.23 32.41 604.51 31.74 597.78 31.09 591.06 30.45 584.33 29.83 577.61 29.22 570.88 28.64 564.14 28.07 557.41 27.51 550.67 26.97 551.42 17.08 559.04 17.69 566.67 18.32 574.29 18.97 581.9 19.65 589.52 20.34 597.13 21.06 604.74 21.79 612.35 22.55 619.96 23.33 627.56 24.13 635.16 24.95 642.76 25.79 650.36 26.65 657.95 27.54 665.54 28.44 673.13 29.37 670.58 34.05 668.04 38.74 663.13 38.15 658.23 37.56"/><polygon class="cls-1" points="568.88 208.88 569.07 208.09 569.26 207.31 569.43 206.53 569.6 205.76 569.76 204.99 569.91 204.23 570.05 203.48 570.18 202.73 570.3 201.99 570.42 201.25 570.53 200.52 570.63 199.79 570.72 199.07 570.8 198.36 570.88 197.65 570.94 196.95 571 196.25 571.05 195.56 571.09 194.87 571.13 194.19 571.15 193.51 571.17 192.84 571.18 192.18 571.18 191.52 571.18 190.86 571.17 190.21 571.15 189.57 571.12 188.93 571.09 188.29 571.05 187.66 571 187.03 570.94 186.41 570.88 185.8 570.81 185.18 570.73 184.58 570.64 183.97 570.55 183.38 570.45 182.78 570.35 182.19 570.23 181.61 570.12 181.03 569.99 180.45 569.86 179.88 569.72 179.31 569.57 178.74 569.42 178.18 569.26 177.63 569.09 177.07 568.92 176.52 568.75 175.98 568.56 175.44 568.37 174.9 568.17 174.37 567.97 173.83 567.76 173.31 567.55 172.78 567.33 172.26 567.1 171.75 566.87 171.23 566.63 170.72 566.39 170.22 566.14 169.71 565.88 169.21 565.62 168.72 565.36 168.22 565.08 167.73 564.81 167.24 564.52 166.76 564.24 166.28 563.94 165.8 563.65 165.32 563.34 164.84 562.72 163.9 562.08 162.97 561.42 162.05 560.74 161.14 560.04 160.24 559.33 159.34 558.59 158.46 557.84 157.58 557.07 156.71 556.29 155.85 555.49 154.99 554.67 154.14 553.84 153.29 552.99 152.45 552.13 151.62 551.26 150.78 550.37 149.96 549.47 149.13 548.55 148.31 547.63 147.5 546.69 146.68 545.74 145.87 544.78 145.06 543.81 144.25 542.83 143.44 541.84 142.63 539.83 141.02 537.79 139.4 535.72 137.77 531.51 134.49 527.21 131.14 525.04 129.43 522.86 127.7 520.68 125.94 519.59 125.04 518.49 124.14 517.4 123.23 516.31 122.31 515.22 121.39 514.13 120.45 513.04 119.5 511.95 118.54 510.87 117.56 509.79 116.58 508.71 115.59 507.64 114.58 506.57 113.56 505.51 112.52 504.45 111.47 503.4 110.41 502.36 109.34 501.32 108.25 500.28 107.14 499.26 106.02 498.24 104.88 497.24 103.72 496.24 102.55 495.25 101.36 494.26 100.15 493.29 98.93 492.33 97.68 491.38 96.42 490.45 95.14 489.52 93.83 488.61 92.51 487.7 91.17 486.82 89.8 486.38 89.11 485.94 88.42 485.51 87.72 485.08 87.01 484.65 86.3 484.23 85.58 483.81 84.86 483.4 84.13 482.99 83.39 482.58 82.65 482.18 81.91 481.78 81.15 481.39 80.4 481 79.63 480.61 78.86 480.23 78.08 479.85 77.3 479.48 76.51 479.11 75.72 478.74 74.92 478.38 74.11 478.02 73.29 477.67 72.47 477.32 71.65 476.98 70.81 476.64 69.97 476.19 69.69 475.72 69.42 475.25 69.15 474.77 68.89 474.29 68.63 473.81 68.38 473.31 68.13 472.82 67.88 472.31 67.64 471.81 67.41 471.29 67.18 470.77 66.96 470.25 66.74 469.72 66.53 469.18 66.32 468.64 66.12 468.1 65.92 467.55 65.73 466.99 65.54 466.43 65.36 465.86 65.18 465.28 65.01 464.7 64.84 464.12 64.68 463.53 64.53 462.94 64.38 462.33 64.23 461.73 64.09 461.12 63.95 460.5 63.82 459.88 63.69 459.25 63.57 458.62 63.46 457.98 63.35 457.33 63.24 456.68 63.14 456.03 63.05 455.37 62.95 454.7 62.87 454.03 62.79 452.67 62.65 451.29 62.52 449.89 62.42 448.46 62.33 447.01 62.27 445.55 62.23 444.06 62.2 442.55 62.2 441.01 62.22 439.46 62.26 437.88 62.32 436.28 62.4 434.66 62.5 433.02 62.62 431.35 62.76 429.67 62.92 427.96 63.1 426.23 63.3 424.48 63.53 422.71 63.77 420.91 64.03 419.1 64.32 417.26 64.62 415.4 64.95 413.52 65.29 411.61 65.66 409.69 66.04 407.74 66.45 405.77 66.88 403.78 67.32 401.77 67.79 399.74 68.28 397.68 68.78 395.6 69.31 393.5 69.86 391.38 70.43 389.24 71.02 387.07 71.63 384.89 72.26 382.68 72.91 380.45 73.58 378.2 74.28 375.92 74.99 373.63 75.72 370.86 74.13 368.09 72.53 365.32 70.95 362.54 69.37 359.76 67.8 356.98 66.23 354.19 64.67 351.41 63.11 350.72 62.72 350.03 62.35 349.32 62.01 348.61 61.68 347.88 61.37 347.15 61.09 346.41 60.82 345.67 60.57 344.91 60.35 344.15 60.14 343.39 59.96 342.62 59.8 341.85 59.66 341.07 59.54 340.29 59.44 339.51 59.36 338.73 59.31 337.94 59.28 337.16 59.27 340.37 58.21 343.58 57.18 346.8 56.16 350.02 55.16 353.24 54.18 356.45 53.22 359.66 52.27 362.85 51.35 366.04 50.45 369.2 49.58 372.36 48.73 375.49 47.9 378.6 47.1 381.68 46.33 384.74 45.58 387.77 44.86 389.27 44.51 390.76 44.17 392.26 43.84 393.75 43.51 395.23 43.2 396.72 42.88 398.21 42.58 399.71 42.29 401.21 42.01 402.72 41.73 404.24 41.46 405.77 41.2 407.32 40.96 408.88 40.72 410.45 40.48 412.05 40.27 413.67 40.05 415.31 39.85 416.97 39.66 418.65 39.48 420.37 39.31 422.12 39.15 423.89 39 425.7 38.86 427.54 38.73 429.42 38.62 431.34 38.51 433.3 38.42 435.3 38.33 437.34 38.26 439.43 38.2 441.57 38.16 459.91 37.95 462.39 37.9 464.91 37.84 467.47 37.75 470.07 37.65 471.38 37.58 472.7 37.52 474.03 37.44 475.37 37.36 476.72 37.27 478.07 37.17 479.44 37.06 480.81 36.95 482.26 36.82 483.71 36.68 485.17 36.52 486.64 36.36 488.12 36.19 489.61 36 491.1 35.8 492.61 35.59 494.12 35.36 495.64 35.12 497.17 34.87 498.7 34.6 500.25 34.32 501.8 34.02 503.36 33.7 504.93 33.37 506.5 33.02 508.08 32.66 509.67 32.28 511.26 31.88 512.86 31.45 514.47 31.02 516.09 30.56 517.71 30.08 519.33 29.58 520.97 29.06 522.61 28.52 524.25 27.96 525.9 27.38 527.56 26.77 529.22 26.14 530.89 25.49 535.84 25.85 540.78 26.21 545.73 26.59 550.67 26.97 557.41 27.51 564.14 28.07 570.88 28.64 577.61 29.22 584.33 29.83 591.06 30.45 597.78 31.09 604.51 31.74 611.23 32.41 617.95 33.09 624.67 33.8 631.38 34.52 638.1 35.25 644.81 36.01 651.52 36.77 658.23 37.56 656.99 38.23 655.75 38.88 654.51 39.51 653.26 40.12 652.02 40.72 650.77 41.3 649.53 41.86 648.28 42.41 647.03 42.93 645.78 43.45 644.52 43.95 643.27 44.43 642.02 44.9 640.76 45.35 639.51 45.79 638.25 46.21 636.99 46.62 635.74 47.02 634.48 47.4 633.22 47.77 631.97 48.12 630.71 48.46 629.45 48.79 628.19 49.11 626.94 49.41 625.68 49.71 624.42 49.99 623.17 50.26 621.91 50.52 620.66 50.77 619.41 51.01 618.15 51.24 616.9 51.45 615.65 51.66 614.4 51.86 613.16 52.05 611.91 52.23 610.67 52.4 609.42 52.57 608.18 52.72 606.94 52.87 605.7 53.01 604.47 53.14 603.23 53.27 602 53.38 600.77 53.5 599.55 53.6 598.32 53.7 595.88 53.88 593.45 54.04 591.03 54.18 588.62 54.31 586.23 54.41 583.85 54.51 581.49 54.59 579.14 54.67 574.49 54.8 569.91 54.93 565.4 55.05 563.18 55.13 560.98 55.21 558.81 55.3 556.65 55.4 554.52 55.51 552.41 55.65 550.33 55.8 549.3 55.88 548.28 55.97 547.26 56.06 546.25 56.16 545.25 56.27 544.25 56.38 543.26 56.49 542.28 56.62 541.3 56.75 540.33 56.89 539.37 57.04 538.42 57.2 537.47 57.36 536.53 57.53 535.6 57.71 534.68 57.9 533.76 58.1 532.86 58.31 531.96 58.53 531.07 58.76 530.19 58.99 529.32 59.24 528.45 59.5 527.59 59.77 526.75 60.05 525.91 60.35 525.08 60.66 524.26 60.97 523.45 61.3 522.64 61.65 521.85 62 521.07 62.37 520.29 62.75 519.53 63.15 518.77 63.55 518.03 63.98 517.29 64.42 516.57 64.87 516.59 65.42 516.63 65.97 516.68 66.53 516.74 67.09 516.81 67.65 516.89 68.22 516.98 68.79 517.08 69.36 517.19 69.93 517.31 70.51 517.44 71.09 517.58 71.68 517.73 72.27 517.9 72.86 518.07 73.45 518.25 74.05 518.45 74.65 518.65 75.26 518.87 75.86 519.09 76.47 519.33 77.09 519.57 77.7 519.83 78.32 520.1 78.94 520.37 79.57 520.66 80.19 520.96 80.82 521.27 81.46 521.59 82.09 521.92 82.73 522.26 83.37 522.61 84.02 522.97 84.66 523.34 85.31 523.73 85.96 524.12 86.62 524.52 87.27 524.93 87.93 525.36 88.59 525.79 89.26 526.24 89.92 526.7 90.59 527.16 91.27 527.64 91.94 528.13 92.61 528.62 93.29 529.13 93.97 529.65 94.66 530.18 95.34 530.72 96.03 531.27 96.72 531.83 97.41 532.4 98.11 532.99 98.81 533.58 99.5 534.18 100.2 534.8 100.91 535.42 101.61 536.06 102.32 536.7 103.03 537.36 103.74 538.03 104.45 538.7 105.17 539.39 105.89 540.34 106.86 541.31 107.84 542.3 108.83 543.3 109.83 547.45 113.89 549.58 115.98 550.65 117.05 551.73 118.14 552.82 119.23 553.9 120.35 554.99 121.48 556.08 122.63 557.16 123.8 558.25 125 559.32 126.21 560.4 127.44 561.46 128.7 561.99 129.34 562.52 129.99 563.05 130.64 563.57 131.3 564.09 131.96 564.61 132.63 565.12 133.31 565.63 134 566.14 134.69 566.65 135.39 567.15 136.1 567.64 136.81 568.14 137.54 568.63 138.27 569.11 139.01 569.59 139.75 570.07 140.51 570.53 141.27 571 142.04 571.46 142.82 571.92 143.61 572.37 144.41 572.81 145.21 573.25 146.03 573.68 146.85 574.1 147.69 574.52 148.53 574.94 149.39 575.34 150.25 575.74 151.12 576.13 152 576.52 152.9 576.9 153.8 577.27 154.71 577.63 155.64 577.99 156.57 578.33 157.51 578.67 158.47 579 159.44 579.32 160.41 579.64 161.4 579.94 162.41 580.24 163.42 580.52 164.44 580.8 165.47 581.07 166.52 581.33 167.58 581.58 168.65 581.81 169.74 582.04 170.83 582.26 171.94 582.47 173.06 582.66 174.19 582.85 175.34 583.03 176.5 583.19 177.67 583.34 178.86 583.48 180.06 583.61 181.27 583.73 182.49 583.84 183.73 583.93 184.99 584.01 186.25 584.08 187.53 584.14 188.83 584.18 190.14 584.21 191.47 584.23 192.81 584.24 194.16 584.23 195.53 584.2 196.91 584.17 198.31 584.12 199.72 584.05 201.15 583.98 202.6 583.88 204.06 583.77 205.54 583.65 207.03 583.51 208.54 583.36 210.06 583.2 211.6 583.01 213.16 582.81 214.73 582.6 216.32 582.37 217.93 582.12 219.55 578.82 216.87 575.51 214.2 572.2 211.54 568.88 208.88"/><polygon class="cls-1" points="157.75 64.87 157.02 64.42 156.29 63.98 155.54 63.55 154.78 63.15 154.02 62.75 153.25 62.37 152.46 62 151.67 61.65 150.87 61.3 150.06 60.97 149.24 60.66 148.41 60.35 147.57 60.05 146.72 59.77 145.86 59.5 145 59.24 144.13 58.99 143.24 58.76 142.35 58.53 141.46 58.31 140.55 58.1 139.63 57.9 138.71 57.71 137.78 57.53 136.84 57.36 135.9 57.2 134.94 57.04 133.98 56.89 133.01 56.75 132.04 56.62 131.05 56.49 130.06 56.38 129.07 56.27 128.06 56.16 127.05 56.06 126.03 55.97 125.01 55.88 123.98 55.8 121.9 55.65 119.79 55.51 117.66 55.4 115.51 55.3 113.33 55.21 111.13 55.13 108.91 55.05 104.41 54.93 99.83 54.8 95.18 54.67 92.83 54.59 90.46 54.51 88.08 54.41 85.69 54.31 83.28 54.18 80.86 54.04 78.43 53.88 75.99 53.7 74.77 53.6 73.54 53.5 72.31 53.38 71.08 53.27 69.84 53.14 68.61 53.01 67.37 52.87 66.13 52.72 64.89 52.57 63.65 52.4 62.4 52.23 61.16 52.05 59.91 51.86 58.66 51.66 57.41 51.45 56.16 51.24 54.91 51.01 53.65 50.77 52.4 50.52 51.14 50.26 49.89 49.99 48.63 49.71 47.38 49.41 46.12 49.11 44.86 48.79 43.6 48.46 42.35 48.12 41.09 47.77 39.83 47.4 38.58 47.02 37.32 46.62 36.06 46.21 34.81 45.79 33.55 45.35 32.3 44.9 31.04 44.43 29.79 43.95 28.54 43.45 27.29 42.93 26.04 42.41 24.79 41.86 23.54 41.3 22.29 40.72 21.05 40.12 19.81 39.51 18.56 38.88 17.32 38.23 16.09 37.56 22.8 36.77 29.5 36.01 36.22 35.25 42.93 34.52 49.65 33.8 56.36 33.09 63.08 32.41 69.81 31.74 76.53 31.09 83.25 30.45 89.98 29.83 96.71 29.22 103.44 28.64 110.17 28.07 116.9 27.51 123.64 26.97 128.58 26.59 133.53 26.21 138.48 25.85 143.43 25.49 145.09 26.14 146.75 26.77 148.41 27.38 150.06 27.96 151.71 28.52 153.35 29.06 154.98 29.58 156.61 30.08 158.23 30.56 159.84 31.02 161.45 31.45 163.05 31.88 164.65 32.28 166.23 32.66 167.81 33.02 169.39 33.37 170.95 33.7 172.51 34.02 174.06 34.32 175.61 34.6 177.14 34.87 178.67 35.12 180.19 35.36 181.7 35.59 183.21 35.8 184.7 36 186.19 36.19 187.67 36.36 189.14 36.52 190.6 36.68 192.06 36.82 193.5 36.95 194.87 37.06 196.24 37.17 197.59 37.27 198.94 37.36 200.28 37.44 201.61 37.52 202.94 37.58 204.25 37.65 206.84 37.75 209.4 37.84 211.93 37.9 214.41 37.95 232.74 38.16 234.88 38.2 236.97 38.26 239.01 38.33 241.01 38.42 242.97 38.51 244.89 38.62 246.77 38.73 248.61 38.86 250.42 39 252.2 39.15 253.94 39.31 255.66 39.48 257.35 39.66 259.01 39.85 260.65 40.05 262.26 40.27 263.86 40.48 265.44 40.72 266.99 40.96 268.54 41.2 270.07 41.46 271.59 41.73 273.1 42.01 274.6 42.29 276.1 42.58 277.59 42.88 279.08 43.2 280.57 43.51 282.06 43.84 283.55 44.17 285.04 44.51 286.55 44.86 289.57 45.58 292.63 46.33 295.72 47.1 298.82 47.9 301.96 48.73 305.11 49.58 308.28 50.45 311.46 51.35 314.65 52.27 317.86 53.22 321.07 54.18 324.29 55.16 327.51 56.16 330.73 57.18 333.94 58.21 337.16 59.27 336.37 59.28 335.59 59.31 334.8 59.36 334.02 59.44 333.24 59.54 332.46 59.66 331.69 59.8 330.92 59.96 330.16 60.14 329.4 60.35 328.65 60.57 327.9 60.82 327.16 61.09 326.43 61.37 325.71 61.68 324.99 62.01 324.29 62.35 323.59 62.72 322.91 63.11 320.12 64.67 317.33 66.23 314.55 67.8 311.77 69.37 309 70.95 306.22 72.53 303.45 74.13 300.69 75.72 298.39 74.99 296.12 74.28 293.86 73.58 291.63 72.91 289.43 72.26 287.24 71.63 285.07 71.02 282.93 70.43 280.81 69.86 278.71 69.31 276.63 68.78 274.58 68.28 272.54 67.79 270.53 67.32 268.54 66.88 266.57 66.45 264.63 66.04 262.7 65.66 260.8 65.29 258.92 64.95 257.06 64.62 255.22 64.32 253.4 64.03 251.6 63.77 249.83 63.53 248.08 63.3 246.35 63.1 244.64 62.92 242.96 62.76 241.29 62.62 239.65 62.5 238.03 62.4 236.43 62.32 234.86 62.26 233.3 62.22 231.77 62.2 230.26 62.2 228.77 62.23 227.3 62.27 225.85 62.33 224.43 62.42 223.02 62.52 221.64 62.65 220.28 62.79 219.61 62.87 218.95 62.95 218.28 63.05 217.63 63.14 216.98 63.24 216.34 63.35 215.7 63.46 215.06 63.57 214.44 63.69 213.81 63.82 213.2 63.95 212.59 64.09 211.98 64.23 211.38 64.38 210.78 64.53 210.19 64.68 209.61 64.84 209.03 65.01 208.46 65.18 207.89 65.36 207.32 65.54 206.77 65.73 206.22 65.92 205.67 66.12 205.13 66.32 204.59 66.53 204.06 66.74 203.54 66.96 203.02 67.18 202.51 67.41 202 67.64 201.5 67.88 201 68.13 200.51 68.38 200.02 68.63 199.54 68.89 199.06 69.15 198.59 69.42 198.13 69.69 197.67 69.97 197.33 70.81 196.99 71.65 196.64 72.47 196.29 73.29 195.93 74.11 195.57 74.92 195.21 75.72 194.84 76.51 194.46 77.3 194.09 78.08 193.7 78.86 193.32 79.63 192.93 80.4 192.53 81.15 192.13 81.91 191.73 82.65 191.32 83.39 190.91 84.13 190.5 84.86 190.08 85.58 189.66 86.3 189.23 87.01 188.8 87.72 188.37 88.42 187.94 89.11 187.5 89.8 186.61 91.17 185.71 92.51 184.79 93.83 183.87 95.14 182.93 96.42 181.98 97.68 181.02 98.93 180.05 100.15 179.07 101.36 178.08 102.55 177.08 103.72 176.07 104.88 175.05 106.02 174.03 107.14 173 108.25 171.96 109.34 170.91 110.41 169.86 111.47 168.8 112.52 167.74 113.56 166.67 114.58 165.6 115.59 164.52 116.58 163.44 117.56 162.36 118.54 161.28 119.5 160.19 120.45 159.1 121.39 158 122.31 156.91 123.23 155.82 124.14 154.73 125.04 153.63 125.94 151.45 127.7 149.27 129.43 147.1 131.14 142.81 134.49 138.59 137.77 136.52 139.4 134.48 141.02 132.47 142.63 131.48 143.44 130.5 144.25 129.53 145.06 128.57 145.87 127.62 146.68 126.69 147.5 125.76 148.31 124.85 149.13 123.94 149.96 123.06 150.78 122.18 151.62 121.32 152.45 120.47 153.29 119.64 154.14 118.83 154.99 118.03 155.85 117.24 156.71 116.47 157.58 115.72 158.46 114.99 159.34 114.27 160.24 113.57 161.14 112.89 162.05 112.23 162.97 111.59 163.9 110.97 164.84 110.67 165.32 110.37 165.8 110.08 166.28 109.79 166.76 109.51 167.24 109.23 167.73 108.96 168.22 108.69 168.72 108.43 169.21 108.18 169.71 107.93 170.22 107.68 170.72 107.44 171.23 107.21 171.75 106.99 172.26 106.77 172.78 106.55 173.31 106.34 173.83 106.14 174.37 105.94 174.9 105.75 175.44 105.57 175.98 105.39 176.52 105.22 177.07 105.05 177.63 104.89 178.18 104.74 178.74 104.6 179.31 104.46 179.88 104.32 180.45 104.2 181.03 104.08 181.61 103.97 182.19 103.86 182.78 103.76 183.38 103.67 183.97 103.58 184.58 103.51 185.18 103.44 185.8 103.37 186.41 103.32 187.03 103.27 187.66 103.22 188.29 103.19 188.93 103.16 189.57 103.14 190.21 103.13 190.86 103.13 191.52 103.13 192.18 103.14 192.84 103.16 193.51 103.19 194.19 103.22 194.87 103.26 195.56 103.31 196.25 103.37 196.95 103.44 197.65 103.51 198.36 103.59 199.07 103.69 199.79 103.78 200.52 103.89 201.25 104.01 201.99 104.13 202.73 104.27 203.48 104.41 204.23 104.56 204.99 104.71 205.76 104.88 206.53 105.06 207.31 105.24 208.09 105.44 208.88 102.11 211.54 98.8 214.2 95.49 216.87 92.19 219.55 91.94 217.93 91.71 216.32 91.5 214.73 91.3 213.16 91.12 211.6 90.95 210.06 90.8 208.54 90.66 207.03 90.54 205.54 90.43 204.06 90.34 202.6 90.26 201.15 90.19 199.72 90.14 198.31 90.11 196.91 90.09 195.53 90.08 194.16 90.08 192.81 90.1 191.47 90.13 190.14 90.17 188.83 90.23 187.53 90.3 186.25 90.38 184.99 90.48 183.73 90.58 182.49 90.7 181.27 90.83 180.06 90.97 178.86 91.12 177.67 91.29 176.5 91.46 175.34 91.65 174.19 91.84 173.06 92.05 171.94 92.27 170.83 92.5 169.74 92.74 168.65 92.99 167.58 93.24 166.52 93.51 165.47 93.79 164.44 94.08 163.42 94.37 162.41 94.68 161.4 94.99 160.41 95.31 159.44 95.64 158.47 95.98 157.51 96.33 156.57 96.68 155.64 97.05 154.71 97.42 153.8 97.79 152.9 98.18 152 98.57 151.12 98.97 150.25 99.38 149.39 99.79 148.53 100.21 147.69 100.64 146.85 101.07 146.03 101.5 145.21 101.95 144.41 102.4 143.61 102.85 142.82 103.31 142.04 103.78 141.27 104.25 140.51 104.72 139.75 105.2 139.01 105.69 138.27 106.18 137.54 106.67 136.81 107.17 136.1 107.67 135.39 108.17 134.69 108.68 134 109.19 133.31 109.7 132.63 110.22 131.96 110.74 131.3 111.27 130.64 111.79 129.99 112.32 129.34 112.85 128.7 113.92 127.44 114.99 126.21 116.07 125 117.15 123.8 118.24 122.63 119.32 121.48 120.41 120.35 121.5 119.23 122.58 118.14 123.66 117.05 124.74 115.98 126.87 113.89 131.01 109.83 132.01 108.83 133 107.84 133.97 106.86 134.92 105.89 135.61 105.17 136.29 104.45 136.95 103.74 137.61 103.03 138.26 102.32 138.89 101.61 139.52 100.91 140.13 100.2 140.73 99.5 141.33 98.81 141.91 98.11 142.48 97.41 143.04 96.72 143.59 96.03 144.13 95.34 144.66 94.66 145.18 93.97 145.69 93.29 146.19 92.61 146.68 91.94 147.15 91.27 147.62 90.59 148.07 89.92 148.52 89.26 148.95 88.59 149.38 87.93 149.79 87.27 150.19 86.62 150.59 85.96 150.97 85.31 151.34 84.66 151.7 84.02 152.05 83.37 152.39 82.73 152.72 82.09 153.04 81.46 153.35 80.82 153.65 80.19 153.94 79.57 154.22 78.94 154.48 78.32 154.74 77.7 154.99 77.09 155.22 76.47 155.45 75.86 155.66 75.26 155.87 74.65 156.06 74.05 156.24 73.45 156.42 72.86 156.58 72.27 156.73 71.68 156.87 71.09 157 70.51 157.13 69.93 157.24 69.36 157.34 68.79 157.43 68.22 157.5 67.65 157.57 67.09 157.63 66.53 157.68 65.97 157.72 65.42 157.75 64.87"/><polygon class="cls-2" points="347.08 18.59 342.12 18.57 337.16 18.57 332.2 18.57 327.24 18.59 327.24 8.66 320.94 8.69 314.65 8.74 308.35 8.8 302.06 8.87 295.76 8.96 289.47 9.06 283.18 9.18 276.88 9.31 270.59 9.46 264.3 9.62 258 9.8 251.71 9.99 245.42 10.2 239.13 10.41 232.84 10.65 226.55 10.9 226.97 20.81 222.02 21.02 217.06 21.23 212.11 21.45 207.15 21.69 206.73 11.78 202.72 11.97 198.72 12.17 194.71 12.38 190.71 12.59 186.7 12.81 182.7 13.03 178.69 13.26 174.69 13.5 170.69 13.74 166.69 13.99 162.68 14.24 158.68 14.5 154.68 14.77 150.68 15.04 146.68 15.31 142.68 15.6 143.43 25.49 138.48 25.85 133.53 26.21 128.58 26.59 123.64 26.97 122.89 17.08 115.27 17.69 107.65 18.32 100.03 18.97 92.41 19.65 84.79 20.34 77.18 21.06 69.57 21.79 61.96 22.55 54.35 23.33 46.75 24.13 39.15 24.95 31.55 25.79 23.95 26.65 16.36 27.54 8.77 28.44 1.18 29.37 0.14 20.93 5.38 20.29 10.62 19.66 15.86 19.03 21.1 18.42 26.34 17.82 31.58 17.23 36.83 16.65 42.07 16.08 47.32 15.52 52.57 14.96 57.82 14.42 63.07 13.89 68.32 13.37 73.58 12.86 78.83 12.36 84.08 11.87 89.34 11.38 94.6 10.91 99.86 10.45 105.11 10 110.38 9.56 115.64 9.13 120.9 8.71 126.16 8.29 131.42 7.89 136.69 7.5 141.95 7.12 147.22 6.75 152.49 6.39 157.75 6.04 163.02 5.7 168.29 5.37 173.56 5.05 178.83 4.74 184.1 4.44 189.38 4.14 194.65 3.87 199.92 3.6 205.2 3.33 210.47 3.08 215.75 2.85 221.02 2.62 226.29 2.4 231.57 2.19 236.85 1.99 242.13 1.8 247.4 1.62 252.68 1.45 257.96 1.29 263.24 1.15 268.51 1.01 273.79 0.88 279.07 0.76 284.35 0.65 289.63 0.56 294.91 0.47 300.19 0.39 305.47 0.33 310.75 0.27 316.03 0.22 321.31 0.19 326.6 0.16 331.88 0.15 337.16 0.14 342.44 0.15 347.72 0.16 353 0.19 358.28 0.22 363.56 0.27 368.84 0.33 374.12 0.39 379.4 0.47 384.68 0.56 389.96 0.65 395.24 0.76 400.52 0.88 405.8 1.01 411.08 1.15 416.36 1.29 421.63 1.45 426.91 1.62 432.19 1.8 437.46 1.99 442.74 2.19 448.02 2.4 453.29 2.62 458.57 2.85 463.84 3.08 469.12 3.33 474.39 3.6 479.66 3.87 484.94 4.14 490.21 4.44 495.48 4.74 500.75 5.05 506.02 5.37 511.29 5.7 516.56 6.04 521.83 6.39 527.09 6.75 532.36 7.12 537.62 7.5 542.89 7.89 548.15 8.29 553.41 8.71 558.68 9.13 563.94 9.56 569.2 10 574.46 10.45 579.72 10.91 584.97 11.38 590.23 11.87 595.48 12.36 600.74 12.86 605.99 13.37 611.24 13.89 616.49 14.42 621.74 14.96 626.99 15.52 632.24 16.08 637.49 16.65 642.73 17.23 647.97 17.82 653.22 18.42 658.46 19.03 663.7 19.66 668.93 20.29 674.17 20.93 673.13 29.37 665.54 28.44 657.95 27.54 650.36 26.65 642.76 25.79 635.16 24.95 627.56 24.13 619.96 23.33 612.35 22.55 604.74 21.79 597.13 21.06 589.52 20.34 581.9 19.65 574.29 18.97 566.67 18.32 559.04 17.69 551.42 17.08 550.67 26.97 545.73 26.59 540.78 26.21 535.84 25.85 530.89 25.49 531.63 15.6 527.63 15.31 523.63 15.04 519.63 14.77 515.63 14.5 511.63 14.24 507.63 13.99 503.63 13.74 499.62 13.5 495.62 13.26 491.61 13.03 487.61 12.81 483.61 12.59 479.6 12.38 475.6 12.17 471.59 11.97 467.58 11.78 467.16 21.69 462.2 21.45 457.25 21.23 452.29 21.02 447.34 20.81 447.76 10.9 441.47 10.65 435.18 10.41 428.89 10.2 422.6 9.99 416.31 9.8 410.02 9.62 403.72 9.46 397.43 9.31 391.14 9.18 384.84 9.06 378.55 8.96 372.26 8.87 365.96 8.8 359.67 8.74 353.37 8.69 347.08 8.66 347.08 18.59"/></g></svg>