<svg xmlns="http://www.w3.org/2000/svg" viewBox="0 0 594.72 160.17"><defs><style>.cls-1{stroke:#413330;}.cls-1,.cls-2,.cls-3{stroke-linecap:round;stroke-linejoin:round;stroke-width:0.71px;}.cls-2{fill:none;}.cls-2,.cls-3{stroke:#000;}.cls-3{fill:gray;}</style></defs><g id="vProfile"><polygon class="cls-1" points="97.69 36.08 97.63 30.88 133.86 18.32 170.23 20.32 170.27 26.25 167.91 26.98 165.65 27.71 163.48 28.45 161.42 29.19 159.46 29.94 157.6 30.7 155.84 31.46 154.18 32.23 152.63 33 151.17 33.78 149.81 34.57 148.56 35.36 147.41 36.15 146.35 36.92 145.4 37.69 144.55 38.44 143.8 39.19 143.15 39.92 142.6 40.63 142.15 41.34 141.8 42.04 141.55 42.72 141.41 43.4 141.36 44.06 141.41 44.71 141.57 45.34 141.83 45.97 142.18 46.59 142.64 47.19 143.2 47.78 143.86 48.36 144.62 48.93 145.48 49.48 146.44 50.03 147.5 50.56 148.67 51.09 149.93 51.6 151.29 52.12 152.76 52.64 154.33 53.16 155.99 53.69 157.76 54.22 159.63 54.74 161.6 55.27 163.67 55.8 165.84 56.34 168.11 56.87 170.48 57.41 170.52 63.34 134.44 80.47 98.11 70.51 98.04 65.31 100.4 64.22 102.66 63.16 104.81 62.13 106.87 61.13 108.82 60.15 110.68 59.2 112.43 58.28 114.09 57.39 115.64 56.52 117.09 55.69 118.44 54.88 119.69 54.1 120.84 53.34 121.89 52.6 122.84 51.87 123.69 51.16 124.44 50.46 125.09 49.78 125.64 49.12 126.08 48.48 126.43 47.85 126.67 47.23 126.82 46.63 126.86 46.05 126.8 45.49 126.64 44.94 126.39 44.4 126.03 43.88 125.57 43.38 125.01 42.9 124.34 42.43 123.58 41.98 122.72 41.54 121.76 41.12 120.69 40.71 119.53 40.33 118.26 39.95 116.9 39.57 115.43 39.2 113.86 38.84 112.19 38.48 110.42 38.12 108.55 37.77 106.58 37.42 104.51 37.08 102.34 36.74 100.06 36.41 97.69 36.08"/><polygon class="cls-1" points="315.48 59.35 315.49 52.98 317.86 52.17 320.13 51.37 322.3 50.58 324.36 49.8 326.33 49.04 328.19 48.29 329.96 47.55 331.62 46.82 333.19 46.11 334.65 45.4 336.01 44.71 337.27 44.03 338.43 43.36 339.49 42.68 340.45 42 341.31 41.31 342.06 40.63 342.72 39.94 343.27 39.25 343.73 38.56 344.08 37.86 344.33 37.16 344.49 36.46 344.54 35.76 344.49 35.06 344.33 34.35 344.08 33.64 343.73 32.92 343.28 32.21 342.73 31.49 342.07 30.77 341.31 30.05 340.46 29.32 339.5 28.59 338.44 27.86 337.29 27.13 336.03 26.4 334.67 25.69 333.2 25 331.64 24.32 329.98 23.66 328.22 23.02 326.35 22.39 324.39 21.77 322.32 21.18 320.16 20.6 317.89 20.04 315.52 19.49 315.53 13.11 351.87 6.12 388.19 14.31 388.16 20.47 385.79 21.19 383.51 21.9 381.34 22.6 379.27 23.3 377.3 23.98 375.44 24.66 373.67 25.32 372 25.98 370.44 26.63 368.97 27.27 367.61 27.9 366.34 28.52 365.18 29.14 364.12 29.77 363.16 30.4 362.3 31.04 361.54 31.68 360.88 32.33 360.32 32.98 359.87 33.63 359.51 34.3 359.26 34.96 359.1 35.64 359.05 36.31 359.1 37 359.25 37.69 359.49 38.38 359.84 39.08 360.29 39.78 360.85 40.49 361.5 41.2 362.25 41.92 363.1 42.65 364.06 43.37 365.11 44.11 366.27 44.85 367.52 45.6 368.88 46.37 370.34 47.16 371.9 47.97 373.56 48.8 375.32 49.64 377.18 50.51 379.14 51.4 381.2 52.3 383.37 53.22 385.63 54.16 388 55.13 387.97 61.29 351.69 73.86 315.48 59.35"/><polygon class="cls-1" points="424.2 63.34 424.24 57.41 426.61 56.87 428.88 56.34 431.06 55.8 433.13 55.27 435.1 54.74 436.96 54.22 438.73 53.69 440.4 53.16 441.96 52.64 443.43 52.12 444.79 51.6 446.06 51.09 447.22 50.56 448.28 50.03 449.24 49.48 450.11 48.93 450.87 48.36 451.52 47.78 452.08 47.19 452.54 46.59 452.9 45.97 453.15 45.34 453.31 44.71 453.36 44.06 453.32 43.4 453.17 42.72 452.92 42.04 452.58 41.34 452.13 40.63 451.58 39.92 450.93 39.19 450.18 38.44 449.32 37.69 448.37 36.92 447.32 36.15 446.16 35.36 444.91 34.57 443.55 33.78 442.1 33 440.54 32.23 438.88 31.46 437.12 30.7 435.26 29.94 433.3 29.19 431.24 28.45 429.08 27.71 426.81 26.98 424.45 26.25 424.49 20.32 460.86 18.32 497.1 30.88 497.03 36.08 494.66 36.41 492.39 36.74 490.21 37.08 488.14 37.42 486.17 37.77 484.3 38.12 482.53 38.48 480.86 38.84 479.29 39.2 477.83 39.57 476.46 39.95 475.2 40.33 474.03 40.71 472.97 41.12 472 41.54 471.14 41.98 470.38 42.43 469.72 42.9 469.16 43.38 468.7 43.88 468.34 44.4 468.08 44.94 467.92 45.49 467.87 46.05 467.91 46.63 468.05 47.23 468.3 47.85 468.64 48.48 469.09 49.12 469.63 49.78 470.28 50.46 471.03 51.16 471.88 51.87 472.83 52.6 473.88 53.34 475.03 54.1 476.28 54.88 477.63 55.69 479.08 56.52 480.64 57.39 482.29 58.28 484.05 59.2 485.9 60.15 487.86 61.13 489.91 62.13 492.07 63.16 494.32 64.22 496.68 65.31 496.62 70.51 460.29 80.47 424.2 63.34"/><polygon class="cls-1" points="206.76 61.29 206.73 55.13 209.09 54.16 211.36 53.22 213.52 52.3 215.58 51.4 217.54 50.51 219.41 49.64 221.16 48.8 222.82 47.97 224.38 47.16 225.84 46.37 227.2 45.6 228.46 44.85 229.61 44.11 230.67 43.37 231.62 42.65 232.47 41.92 233.23 41.2 233.88 40.49 234.43 39.78 234.88 39.08 235.23 38.38 235.48 37.69 235.63 37 235.67 36.31 235.62 35.64 235.47 34.96 235.21 34.3 234.85 33.63 234.4 32.98 233.84 32.33 233.18 31.68 232.42 31.04 231.56 30.4 230.6 29.77 229.54 29.14 228.38 28.52 227.12 27.9 225.75 27.27 224.29 26.63 222.72 25.98 221.06 25.32 219.29 24.66 217.42 23.98 215.45 23.3 213.38 22.6 211.21 21.9 208.94 21.19 206.57 20.47 206.54 14.31 242.85 6.12 279.2 13.11 279.2 19.49 276.84 20.04 274.57 20.6 272.4 21.18 270.34 21.77 268.37 22.39 266.51 23.02 264.74 23.66 263.08 24.32 261.52 25 260.06 25.69 258.7 26.4 257.44 27.13 256.28 27.86 255.22 28.59 254.26 29.32 253.41 30.05 252.65 30.77 252 31.49 251.44 32.21 250.99 32.92 250.64 33.64 250.39 34.35 250.24 35.06 250.19 35.76 250.24 36.46 250.39 37.16 250.64 37.86 251 38.56 251.45 39.25 252.01 39.94 252.66 40.63 253.42 41.31 254.28 42 255.23 42.68 256.29 43.36 257.45 44.03 258.71 44.71 260.07 45.4 261.54 46.11 263.1 46.82 264.76 47.55 266.53 48.29 268.39 49.04 270.36 49.8 272.43 50.58 274.6 51.37 276.86 52.17 279.23 52.98 279.24 59.35 243.03 73.86 206.76 61.29"/></g><g id="Ebene_18" data-name="Ebene 18"><polygon class="cls-2" points="279.2 13.11 315.53 13.11 315.39 159.82 279.33 159.82 279.2 13.11"/></g><g id="Ebene_17" data-name="Ebene 17"><polygon class="cls-2" points="242.84 1.65 279.2 13.11 279.33 159.82 243.27 159.31 242.84 1.65"/><polygon class="cls-2" points="315.53 13.11 351.89 1.65 351.46 159.31 315.39 159.82 315.53 13.11"/></g><g id="Ebene_16" data-name="Ebene 16"><polygon class="cls-2" points="30.57 47.8 32.48 146.6 1.72 143.46 0.35 79.6 30.57 47.8"/><polygon class="cls-2" points="564.15 47.8 594.37 79.6 593 143.46 562.25 146.6 564.15 47.8"/></g><g id="Ebene_15" data-name="Ebene 15"><polygon class="cls-2" points="170.23 20.32 206.49 4.3 207.2 157.03 207.13 157.01 206.93 156.97 206.59 156.9 206.12 156.81 205.53 156.69 204.83 156.55 204.01 156.38 203.08 156.2 202.04 155.98 200.91 155.75 199.67 155.5 198.35 155.22 196.94 154.92 195.44 154.61 193.87 154.28 192.23 153.92 190.51 153.56 188.73 153.17 186.89 152.77 185 152.35 183.05 151.92 181.06 151.47 179.02 151.01 176.95 150.53 174.84 150.05 172.7 149.55 171.1 149.17 170.23 20.32"/><polygon class="cls-2" points="388.23 4.3 424.49 20.32 423.62 149.17 422.02 149.55 419.88 150.05 417.78 150.53 415.7 151.01 413.67 151.47 411.67 151.92 409.73 152.35 407.83 152.77 405.99 153.17 404.21 153.56 402.5 153.92 400.85 154.28 399.28 154.61 397.79 154.92 396.37 155.22 395.05 155.5 393.82 155.75 392.68 155.98 391.65 156.2 390.72 156.38 389.9 156.55 389.19 156.69 388.6 156.81 388.14 156.9 387.8 156.97 387.59 157.01 387.52 157.03 388.23 4.3"/></g><g id="Ebene_14" data-name="Ebene 14"><polygon class="cls-2" points="495.98 123.86 497.02 123.34 498.76 122.45 500.49 121.57 502.2 120.69 503.89 119.81 505.56 118.94 507.2 118.08 508.82 117.23 510.4 116.39 511.95 115.57 513.46 114.76 514.92 113.97 516.35 113.2 517.72 112.46 519.04 111.74 520.31 111.05 521.52 110.39 522.67 109.76 523.75 109.17 524.77 108.61 525.71 108.08 526.58 107.6 527.37 107.16 528.08 106.76 528.71 106.41 529.25 106.11 529.7 105.86 530.05 105.66 530.31 105.51 530.47 105.42 530.52 105.39 529.84 149.59 495.63 152.36 495.98 123.86"/><polygon class="cls-2" points="98.75 123.86 99.09 152.36 64.88 149.59 64.2 105.39 64.26 105.42 64.41 105.51 64.67 105.66 65.03 105.86 65.47 106.11 66.01 106.41 66.64 106.76 67.35 107.16 68.14 107.6 69.01 108.08 69.96 108.61 70.97 109.17 72.06 109.76 73.2 110.39 74.41 111.05 75.68 111.74 77 112.46 78.38 113.2 79.8 113.97 81.27 114.76 82.78 115.57 84.33 116.39 85.91 117.23 87.52 118.08 89.17 118.94 90.84 119.81 92.53 120.69 94.24 121.57 95.96 122.45 97.7 123.34 98.75 123.86"/></g><g id="Ebene_13" data-name="Ebene 13"><polygon class="cls-2" points="133.93 25.57 170.23 20.32 171.1 149.17 170.54 149.04 168.36 148.52 166.16 147.99 163.95 147.45 161.74 146.91 159.52 146.35 157.31 145.79 155.1 145.22 152.9 144.64 150.72 144.06 148.56 143.48 146.42 142.89 144.31 142.29 142.24 141.7 140.21 141.1 138.21 140.5 136.27 139.9 134.98 139.49 133.93 25.57"/><polygon class="cls-2" points="424.49 20.32 460.79 25.57 459.75 139.49 458.46 139.9 456.51 140.5 454.52 141.1 452.48 141.7 450.41 142.29 448.3 142.89 446.17 143.48 444 144.06 441.82 144.64 439.63 145.22 437.42 145.79 435.2 146.35 432.99 146.91 430.77 147.45 428.56 147.99 426.37 148.52 424.18 149.04 423.62 149.17 424.49 20.32"/></g><g id="Ebene_12" data-name="Ebene 12"><polygon class="cls-2" points="171.1 149.17 171.16 156.82 135.12 154.83 134.98 139.49 136.27 139.9 138.21 140.5 140.21 141.1 142.24 141.7 144.31 142.29 146.42 142.89 148.56 143.48 150.72 144.06 152.9 144.64 155.1 145.22 157.31 145.79 159.52 146.35 161.74 146.91 163.95 147.45 166.16 147.99 168.36 148.52 170.54 149.04 171.1 149.17"/><polygon class="cls-2" points="423.62 149.17 424.18 149.04 426.37 148.52 428.56 147.99 430.77 147.45 432.99 146.91 435.2 146.35 437.42 145.79 439.63 145.22 441.82 144.64 444 144.06 446.17 143.48 448.3 142.89 450.41 142.29 452.48 141.7 454.52 141.1 456.51 140.5 458.46 139.9 459.75 139.49 459.61 154.83 423.57 156.82 423.62 149.17"/></g><g id="Ebene_11" data-name="Ebene 11"><polygon class="cls-2" points="423.62 149.17 423.57 156.82 387.52 158.31 387.52 157.03 387.59 157.01 387.8 156.97 388.14 156.9 388.6 156.81 389.19 156.69 389.9 156.55 390.72 156.38 391.65 156.2 392.68 155.98 393.82 155.75 395.05 155.5 396.37 155.22 397.79 154.92 399.28 154.61 400.85 154.28 402.5 153.92 404.21 153.56 405.99 153.17 407.83 152.77 409.73 152.35 411.67 151.92 413.67 151.47 415.7 151.01 417.78 150.53 419.88 150.05 422.02 149.55 423.62 149.17"/><polygon class="cls-2" points="207.2 157.03 207.21 158.31 171.16 156.82 171.1 149.17 172.7 149.55 174.84 150.05 176.95 150.53 179.02 151.01 181.06 151.47 183.05 151.92 185 152.35 186.89 152.77 188.73 153.17 190.51 153.56 192.23 153.92 193.87 154.28 195.44 154.61 196.94 154.92 198.35 155.22 199.67 155.5 200.91 155.75 202.04 155.98 203.08 156.2 204.01 156.38 204.83 156.55 205.53 156.69 206.12 156.81 206.59 156.9 206.93 156.97 207.13 157.01 207.2 157.03"/></g><g id="Ebene_10" data-name="Ebene 10"><polygon class="cls-2" points="387.52 157.03 387.52 158.31 351.46 159.31 351.89 1.65 388.23 4.3 387.52 157.03"/><polygon class="cls-2" points="207.2 157.03 206.49 4.3 242.84 1.65 243.27 159.31 207.21 158.31 207.2 157.03"/></g><g id="Ebene_9" data-name="Ebene 9"><polygon class="cls-2" points="459.75 139.49 460.35 139.29 462.19 138.69 463.97 138.09 465.68 137.49 467.33 136.9 468.73 136.37 470.18 135.8 471.67 135.2 473.21 134.56 474.78 133.89 476.38 133.2 478.01 132.47 479.67 131.72 481.36 130.95 483.06 130.16 484.78 129.35 486.51 128.53 488.26 127.68 490.01 126.83 491.76 125.97 493.52 125.09 495.27 124.22 495.98 123.86 495.63 152.36 459.61 154.83 459.75 139.49"/><polygon class="cls-2" points="98.75 123.86 99.45 124.22 101.2 125.09 102.96 125.97 104.72 126.83 106.47 127.68 108.21 128.53 109.95 129.35 111.67 130.16 113.37 130.95 115.05 131.72 116.71 132.47 118.34 133.2 119.95 133.89 121.52 134.56 123.05 135.2 124.54 135.8 125.99 136.37 127.4 136.9 129.04 137.49 130.75 138.09 132.53 138.69 134.37 139.29 134.98 139.49 135.12 154.83 99.09 152.36 98.75 123.86"/></g><g id="Ebene_8" data-name="Ebene 8"><polygon class="cls-2" points="460.79 25.57 460.83 25.58 460.92 25.61 461.08 25.66 461.29 25.72 461.56 25.8 461.88 25.9 462.26 26.01 462.69 26.14 463.16 26.29 463.68 26.44 464.25 26.62 464.86 26.81 465.5 27.01 466.19 27.22 466.9 27.45 467.66 27.68 468.44 27.93 469.26 28.2 470.1 28.47 470.96 28.75 471.85 29.04 472.76 29.34 473.69 29.65 474.64 29.97 475.6 30.3 476.57 30.63 477.56 30.97 478.55 31.32 479.55 31.67 480.56 32.03 481.56 32.39 482.57 32.76 483.57 33.13 484.57 33.51 485.57 33.88 486.55 34.27 487.53 34.65 488.49 35.04 489.44 35.42 490.38 35.81 491.29 36.2 492.18 36.59 493.06 36.98 493.9 37.37 494.72 37.75 495.51 38.13 496.27 38.52 497 38.9 495.98 123.86 495.27 124.22 493.52 125.09 491.76 125.97 490.01 126.83 488.26 127.68 486.51 128.53 484.78 129.35 483.06 130.16 481.36 130.95 479.67 131.72 478.01 132.47 476.38 133.2 474.78 133.89 473.21 134.56 471.67 135.2 470.18 135.8 468.73 136.37 467.33 136.9 465.68 137.49 463.97 138.09 462.19 138.69 460.35 139.29 459.75 139.49 460.79 25.57"/><polygon class="cls-2" points="133.93 25.57 134.98 139.49 134.37 139.29 132.53 138.69 130.75 138.09 129.04 137.49 127.4 136.9 125.99 136.37 124.54 135.8 123.05 135.2 121.52 134.56 119.95 133.89 118.34 133.2 116.71 132.47 115.05 131.72 113.37 130.95 111.67 130.16 109.95 129.35 108.21 128.53 106.47 127.68 104.72 126.83 102.96 125.97 101.2 125.09 99.45 124.22 98.75 123.86 97.72 38.9 98.45 38.52 99.21 38.13 100 37.75 100.82 37.37 101.67 36.98 102.54 36.59 103.43 36.2 104.35 35.81 105.28 35.42 106.23 35.04 107.19 34.65 108.17 34.27 109.16 33.88 110.15 33.51 111.15 33.13 112.16 32.76 113.16 32.39 114.17 32.03 115.17 31.67 116.17 31.32 117.17 30.97 118.15 30.63 119.12 30.3 120.08 29.97 121.03 29.65 121.96 29.34 122.87 29.04 123.76 28.75 124.63 28.47 125.47 28.2 126.28 27.93 127.07 27.68 127.82 27.45 128.54 27.22 129.22 27.01 129.87 26.81 130.48 26.62 131.04 26.44 131.56 26.29 132.04 26.14 132.46 26.01 132.84 25.9 133.16 25.8 133.43 25.72 133.65 25.66 133.8 25.61 133.9 25.58 133.93 25.57"/></g><g id="Ebene_7" data-name="Ebene 7"><polygon class="cls-2" points="497 38.9 497.79 39.32 498.6 39.78 499.43 40.26 500.28 40.77 501.14 41.3 502.03 41.85 502.93 42.42 503.84 43.02 504.76 43.63 505.69 44.25 506.63 44.89 507.57 45.54 508.52 46.2 509.47 46.87 510.42 47.55 511.37 48.23 512.32 48.91 513.26 49.61 514.2 50.3 515.13 50.99 516.05 51.67 516.96 52.36 517.85 53.04 518.73 53.71 519.6 54.38 520.45 55.03 521.27 55.67 522.08 56.3 522.87 56.91 523.63 57.51 524.36 58.09 525.06 58.64 525.74 59.18 526.38 59.7 527 60.19 527.57 60.65 528.11 61.08 528.61 61.49 529.08 61.86 529.5 62.21 529.87 62.51 530.21 62.79 530.49 63.02 530.73 63.22 530.92 63.37 531.05 63.48 531.14 63.55 531.16 63.58 530.52 105.39 530.47 105.42 530.31 105.51 530.05 105.66 529.7 105.86 529.25 106.11 528.71 106.41 528.08 106.76 527.37 107.16 526.58 107.6 525.71 108.08 524.77 108.61 523.75 109.17 522.67 109.76 521.52 110.39 520.31 111.05 519.04 111.74 517.72 112.46 516.35 113.2 514.92 113.97 513.46 114.76 511.95 115.57 510.4 116.39 508.82 117.23 507.2 118.08 505.56 118.94 503.89 119.81 502.2 120.69 500.49 121.57 498.76 122.45 497.02 123.34 495.98 123.86 497 38.9"/><polygon class="cls-2" points="97.72 38.9 98.75 123.86 97.7 123.34 95.96 122.45 94.24 121.57 92.53 120.69 90.84 119.81 89.17 118.94 87.52 118.08 85.91 117.23 84.33 116.39 82.78 115.57 81.27 114.76 79.8 113.97 78.38 113.2 77 112.46 75.68 111.74 74.41 111.05 73.2 110.39 72.06 109.76 70.97 109.17 69.96 108.61 69.01 108.08 68.14 107.6 67.35 107.16 66.64 106.76 66.01 106.41 65.47 106.11 65.03 105.86 64.67 105.66 64.41 105.51 64.26 105.42 64.2 105.39 63.56 63.58 63.59 63.55 63.67 63.48 63.81 63.37 63.99 63.22 64.23 63.02 64.52 62.79 64.85 62.51 65.23 62.21 65.65 61.86 66.11 61.49 66.61 61.08 67.15 60.65 67.73 60.19 68.34 59.7 68.98 59.18 69.66 58.64 70.36 58.09 71.1 57.51 71.86 56.91 72.64 56.3 73.45 55.67 74.28 55.03 75.13 54.38 75.99 53.71 76.87 53.04 77.77 52.36 78.68 51.67 79.6 50.99 80.53 50.3 81.46 49.61 82.41 48.91 83.36 48.23 84.31 47.55 85.26 46.87 86.21 46.2 87.15 45.54 88.1 44.89 89.04 44.25 89.97 43.63 90.89 43.02 91.8 42.42 92.7 41.85 93.58 41.3 94.45 40.77 95.3 40.26 96.13 39.78 96.94 39.32 97.72 38.9"/></g><g id="Ebene_6" data-name="Ebene 6"><polygon class="cls-2" points="97.53 22.43 133.93 25.57 133.9 25.58 133.8 25.61 133.65 25.66 133.43 25.72 133.16 25.8 132.84 25.9 132.46 26.01 132.04 26.14 131.56 26.29 131.04 26.44 130.48 26.62 129.87 26.81 129.22 27.01 128.54 27.22 127.82 27.45 127.07 27.68 126.28 27.93 125.47 28.2 124.63 28.47 123.76 28.75 122.87 29.04 121.96 29.34 121.03 29.65 120.08 29.97 119.12 30.3 118.15 30.63 117.17 30.97 116.17 31.32 115.17 31.67 114.17 32.03 113.16 32.39 112.16 32.76 111.15 33.13 110.15 33.51 109.16 33.88 108.17 34.27 107.19 34.65 106.23 35.04 105.28 35.42 104.35 35.81 103.43 36.2 102.54 36.59 101.67 36.98 100.82 37.37 100 37.75 99.21 38.13 98.45 38.52 97.72 38.9 97.53 22.43"/><polygon class="cls-2" points="460.79 25.57 497.2 22.43 497 38.9 496.27 38.52 495.51 38.13 494.72 37.75 493.9 37.37 493.06 36.98 492.18 36.59 491.29 36.2 490.38 35.81 489.44 35.42 488.49 35.04 487.53 34.65 486.55 34.27 485.57 33.88 484.57 33.51 483.57 33.13 482.57 32.76 481.56 32.39 480.56 32.03 479.55 31.67 478.55 31.32 477.56 30.97 476.57 30.63 475.6 30.3 474.64 29.97 473.69 29.65 472.76 29.34 471.85 29.04 470.96 28.75 470.1 28.47 469.26 28.2 468.44 27.93 467.66 27.68 466.9 27.45 466.19 27.22 465.5 27.01 464.86 26.81 464.25 26.62 463.68 26.44 463.16 26.29 462.69 26.14 462.26 26.01 461.88 25.9 461.56 25.8 461.29 25.72 461.08 25.66 460.92 25.61 460.83 25.58 460.79 25.57"/></g><g id="Ebene_5" data-name="Ebene 5"><polygon class="cls-2" points="97.72 38.9 96.94 39.32 96.13 39.78 95.3 40.26 94.45 40.77 93.58 41.3 92.7 41.85 91.8 42.42 90.89 43.02 89.97 43.63 89.04 44.25 88.1 44.89 87.15 45.54 86.21 46.2 85.26 46.87 84.31 47.55 83.36 48.23 82.41 48.91 81.46 49.61 80.53 50.3 79.6 50.99 78.68 51.67 77.77 52.36 76.87 53.04 75.99 53.71 75.13 54.38 74.28 55.03 73.45 55.67 72.64 56.3 71.86 56.91 71.1 57.51 70.36 58.09 69.66 58.64 68.98 59.18 68.34 59.7 67.73 60.19 67.15 60.65 66.61 61.08 66.11 61.49 65.65 61.86 65.23 62.21 64.85 62.51 64.52 62.79 64.23 63.02 63.99 63.22 63.81 63.37 63.67 63.48 63.59 63.55 63.56 63.58 63.09 33.06 97.53 22.43 97.72 38.9"/><polygon class="cls-2" points="497 38.9 497.2 22.43 531.64 33.06 531.16 63.58 531.14 63.55 531.05 63.48 530.92 63.37 530.73 63.22 530.49 63.02 530.21 62.79 529.87 62.51 529.5 62.21 529.08 61.86 528.61 61.49 528.11 61.08 527.57 60.65 527 60.19 526.38 59.7 525.74 59.18 525.06 58.64 524.36 58.09 523.63 57.51 522.87 56.91 522.08 56.3 521.27 55.67 520.45 55.03 519.6 54.38 518.73 53.71 517.85 53.04 516.96 52.36 516.05 51.67 515.13 50.99 514.2 50.3 513.26 49.61 512.32 48.91 511.37 48.23 510.42 47.55 509.47 46.87 508.52 46.2 507.57 45.54 506.63 44.89 505.69 44.25 504.76 43.63 503.84 43.02 502.93 42.42 502.03 41.85 501.14 41.3 500.28 40.77 499.43 40.26 498.6 39.78 497.79 39.32 497 38.9"/></g><g id="Ebene_4" data-name="Ebene 4"><polygon class="cls-2" points="564.15 47.8 562.25 146.6 529.84 149.59 530.52 105.39 531.16 63.58 531.64 33.06 564.15 47.8"/><polygon class="cls-2" points="30.57 47.8 63.09 33.06 63.56 63.58 64.2 105.39 64.88 149.59 32.48 146.6 30.57 47.8"/></g><g id="disabled"><polygon class="cls-3" points="497.2 22.43 460.9 14.33 424.57 8.45 388.23 4.3 424.49 20.32 460.79 25.57 497.2 22.43"/><polygon class="cls-3" points="242.84 1.65 279.19 0.35 315.54 0.35 351.89 1.65 315.53 13.11 279.65 13.25 242.84 1.65"/><polygon class="cls-3" points="97.53 22.43 133.83 14.33 170.15 8.45 206.49 4.3 170.23 20.32 133.93 25.57 97.53 22.43"/></g></svg>