<svg xmlns="http://www.w3.org/2000/svg" viewBox="0 0 674.31 219.7">
<defs>
<style>.cls-1{fill:none;}.cls-1,.cls-2{stroke:#000;stroke-linecap:round;stroke-linejoin:round;stroke-width:0.28px;}</style></defs>

<g id="Ebene_9" data-name="Ebene 9">
<path class="cls-1" d="M523.14,175.88c-14.7,1.28-28,1-39.25,1.21a235.19,235.19,0,0,0-53.8,6.7c-16.06,3.76-33.5,8.76-50.61,14.41-17.11-5.65-34.54-10.65-50.61-14.41a235.12,235.12,0,0,0-53.8-6.7c-11.27-.21-24.55.07-39.25-1.21a174.46,174.46,0,0,1-50.07-11.46q31.83-2.26,63.73-3.8,9.9-.48,19.82-.88,50.1-2,100.26-2.22l9.92,0,9.92,0q50.14.18,100.26,2.22,9.91.4,19.83.88,31.88,1.53,63.72,3.8A174.38,174.38,0,0,1,523.14,175.88Z" transform="translate(-42.32 -138.93)"/>

</g><g id="Ebene_8" data-name="Ebene 8"><path class="cls-1" d="M200.07,203.8c-.48,11.68-8,25.7-22.82,41-20.11,20.81-53.58,44-42.74,113.67q-5.62-13.62-11.48-27.15c-11.45-50.15,34.09-86,26-113.93C165.08,209.7,182.43,204.58,200.07,203.8Z" transform="translate(-42.32 -138.93)"/><path class="cls-1" d="M624.45,358.49c10.85-69.65-22.63-92.86-42.73-113.67-14.8-15.32-22.35-29.34-22.83-41,17.65.78,35,5.9,51.07,13.61-8.12,27.89,37.42,63.78,26,113.93Q630.08,344.87,624.45,358.49Z" transform="translate(-42.32 -138.93)"/></g><g id="Ebene_7" data-name="Ebene 7"><path class="cls-1" d="M240,208.9q29.22-18,103,5.75-49.33,28.53-96.56,60.54-50.73,34.4-98.69,72.63C130.86,280.05,211.36,280.9,240,208.9Z" transform="translate(-42.32 -138.93)"/><path class="cls-1" d="M416,214.65q73.8-23.76,103-5.75c28.63,72,109.13,71.15,92.23,138.92q-47.91-38.19-98.69-72.63Q465.34,243.21,416,214.65Z" transform="translate(-42.32 -138.93)"/></g><g id="Ebene_6" data-name="Ebene 6"><path class="cls-1" d="M48.59,177.67c1,1.86,2,3.73,3,5.59C92,212,121.79,204.65,149,217.41c16.08-7.71,33.43-12.83,51.07-13.61-30.74-19.63-88.9,1.54-141.66-27.31Z" transform="translate(-42.32 -138.93)"/><path class="cls-1" d="M710.37,177.67c-1,1.86-2,3.73-3,5.59C666.94,212,637.17,204.65,610,217.41c-16.08-7.71-33.42-12.83-51.07-13.61,30.74-19.63,88.9,1.54,141.66-27.31Z" transform="translate(-42.32 -138.93)"/></g><g id="Ebene_5" data-name="Ebene 5"><path class="cls-1" d="M610,217.41c27.21-12.76,57-5.39,97.4-34.15q-20.86,39-40,78.91A172.15,172.15,0,0,0,610,217.41Z" transform="translate(-42.32 -138.93)"/><path class="cls-1" d="M51.6,183.26C92,212,121.79,204.65,149,217.41a172.15,172.15,0,0,0-57.43,44.76Q72.48,222.27,51.6,183.26Z" transform="translate(-42.32 -138.93)"/></g><g id="Ebene_4" data-name="Ebene 4"><path class="cls-1" d="M635.93,331.34c11.45-50.15-34.09-86-26-113.93a172.15,172.15,0,0,1,57.43,44.76Q651,296.44,635.93,331.34Z" transform="translate(-42.32 -138.93)"/><path class="cls-1" d="M149,217.41c8.12,27.89-37.42,63.78-26,113.93Q108,296.45,91.57,262.17A172.15,172.15,0,0,1,149,217.41Z" transform="translate(-42.32 -138.93)"/></g><g id="disabled"><path class="cls-2" d="M389.4,157.52l-9.92,0-9.92,0V147.6q-50.35.18-100.68,2.23l.42,9.91q-9.92.4-19.82.88l-.43-9.91q-32,1.53-64.05,3.82l.75,9.89q-9.9.71-19.79,1.49c-.25-3.3-.49-6.6-.74-9.9q-61,4.8-121.71,12.29l-1-8.44a2742,2742,0,0,1,674,0l-1,8.44q-60.69-7.49-121.7-12.29l-.75,9.9q-9.88-.78-19.79-1.49l.75-9.89q-32-2.28-64.05-3.82l-.42,9.91q-9.92-.48-19.83-.88c.14-3.3.28-6.61.43-9.91q-50.32-2-100.69-2.23Z" transform="translate(-42.32 -138.93)"/><path class="cls-1" d="M611.2,347.82C628.1,280.05,547.6,280.9,519,208.9" transform="translate(-42.32 -138.93)"/><path class="cls-1" d="M558.89,203.8c.48,11.68,8,25.7,22.83,41,20.1,20.81,53.58,44,42.73,113.67" transform="translate(-42.32 -138.93)"/><path class="cls-1" d="M624.45,358.49q-6.6-5.37-13.25-10.67" transform="translate(-42.32 -138.93)"/><path class="cls-1" d="M519,208.9q-29.22-18-103,5.75" transform="translate(-42.32 -138.93)"/><path class="cls-1" d="M416,214.65Q404.9,208.26,393.73,202" transform="translate(-42.32 -138.93)"/><path class="cls-1" d="M393.73,202a27.07,27.07,0,0,0-14.25-3.84" transform="translate(-42.32 -138.93)"/><path class="cls-1" d="M379.48,198.2c17.11-5.65,34.55-10.65,50.61-14.41a235.19,235.19,0,0,1,53.8-6.7c11.28-.21,24.55.07,39.25-1.21" transform="translate(-42.32 -138.93)"/><path class="cls-1" d="M700.55,176.49c-52.76,28.85-110.92,7.68-141.66,27.31" transform="translate(-42.32 -138.93)"/><path class="cls-1" d="M523.14,175.88a174.38,174.38,0,0,0,50.07-11.46" transform="translate(-42.32 -138.93)"/><path class="cls-1" d="M573.21,164.42q9.9.71,19.79,1.49" transform="translate(-42.32 -138.93)"/><path class="cls-1" d="M593,165.91q53.88,4.23,107.55,10.58" transform="translate(-42.32 -138.93)"/><path class="cls-1" d="M200.07,203.8c-30.74-19.63-88.9,1.54-141.66-27.31" transform="translate(-42.32 -138.93)"/><path class="cls-1" d="M58.41,176.49q53.66-6.35,107.55-10.58" transform="translate(-42.32 -138.93)"/><path class="cls-1" d="M166,165.91q9.9-.78,19.79-1.49" transform="translate(-42.32 -138.93)"/><path class="cls-1" d="M185.75,164.42a174.46,174.46,0,0,0,50.07,11.46" transform="translate(-42.32 -138.93)"/><path class="cls-1" d="M235.82,175.88c14.7,1.28,28,1,39.25,1.21a235.12,235.12,0,0,1,53.8,6.7c16.07,3.76,33.5,8.76,50.61,14.41" transform="translate(-42.32 -138.93)"/><path class="cls-1" d="M379.48,198.2A27.07,27.07,0,0,0,365.23,202" transform="translate(-42.32 -138.93)"/><path class="cls-1" d="M365.23,202q-11.16,6.22-22.22,12.61" transform="translate(-42.32 -138.93)"/><path class="cls-1" d="M343,214.65q-73.8-23.76-103-5.75" transform="translate(-42.32 -138.93)"/><path class="cls-1" d="M240,208.9c-28.63,72-109.13,71.15-92.23,138.92" transform="translate(-42.32 -138.93)"/><path class="cls-1" d="M147.76,347.82q-6.64,5.3-13.25,10.67" transform="translate(-42.32 -138.93)"/><path class="cls-1" d="M134.51,358.49c-10.84-69.65,22.63-92.86,42.74-113.67,14.79-15.32,22.34-29.34,22.82-41" transform="translate(-42.32 -138.93)"/><line class="cls-1" x1="92.02" y1="218.46" x2="104.72" y2="205.77"/><line class="cls-1" x1="91.41" y1="214.06" x2="103.94" y2="201.53"/><line class="cls-1" x1="90.9" y1="209.56" x2="103.38" y2="197.08"/><line class="cls-1" x1="90.49" y1="204.95" x2="103.13" y2="192.32"/><line class="cls-1" x1="90.22" y1="200.22" x2="103.31" y2="187.13"/><line class="cls-1" x1="90.08" y1="195.34" x2="104.14" y2="181.28"/><line class="cls-1" x1="90.13" y1="190.29" x2="106.19" y2="174.22"/><line class="cls-1" x1="158.64" y1="121.77" x2="179.12" y2="101.3"/><line class="cls-1" x1="90.38" y1="185.03" x2="111.78" y2="163.62"/><line class="cls-1" x1="134.02" y1="141.39" x2="190.43" y2="84.97"/><line class="cls-1" x1="90.89" y1="179.5" x2="195.65" y2="74.74"/><line class="cls-1" x1="91.74" y1="173.64" x2="195.91" y2="69.47"/><line class="cls-1" x1="93.05" y1="167.32" x2="191.94" y2="68.43"/><line class="cls-1" x1="95.01" y1="160.35" x2="187.86" y2="67.5"/><line class="cls-1" x1="98.05" y1="152.3" x2="183.67" y2="66.68"/><line class="cls-1" x1="103.33" y1="142" x2="179.35" y2="65.99"/><line class="cls-1" x1="140.18" y1="100.15" x2="174.9" y2="65.43"/><line class="cls-1" x1="152.18" y1="83.14" x2="170.29" y2="65.03"/><line class="cls-1" x1="155.97" y1="74.34" x2="165.5" y2="64.8"/><line class="cls-1" x1="157.48" y1="67.81" x2="160.51" y2="64.78"/><line class="cls-1" x1="197.13" y1="71.31" x2="195.06" y2="69.24"/><line class="cls-1" x1="195.62" y1="74.81" x2="188.43" y2="67.62"/><line class="cls-1" x1="194.02" y1="78.22" x2="182.23" y2="66.43"/><line class="cls-1" x1="192.33" y1="81.54" x2="176.39" y2="65.6"/><line class="cls-1" x1="190.55" y1="84.77" x2="170.85" y2="65.07"/><line class="cls-1" x1="188.68" y1="87.92" x2="165.57" y2="64.81"/><line class="cls-1" x1="186.73" y1="90.98" x2="160.54" y2="64.78"/><line class="cls-1" x1="184.7" y1="93.96" x2="157.6" y2="66.85"/><line class="cls-1" x1="182.6" y1="96.86" x2="156.86" y2="71.13"/><line class="cls-1" x1="180.42" y1="99.69" x2="155.74" y2="75.02"/><line class="cls-1" x1="178.16" y1="102.45" x2="154.35" y2="78.64"/><line class="cls-1" x1="175.84" y1="105.14" x2="152.75" y2="82.05"/><line class="cls-1" x1="173.45" y1="107.76" x2="150.98" y2="85.29"/><line class="cls-1" x1="171" y1="110.32" x2="149.08" y2="88.4"/><line class="cls-1" x1="168.49" y1="112.83" x2="147.06" y2="91.39"/><line class="cls-1" x1="165.93" y1="115.28" x2="144.95" y2="94.29"/><line class="cls-1" x1="163.32" y1="117.68" x2="142.74" y2="97.09"/><line class="cls-1" x1="160.67" y1="120.03" x2="140.46" y2="99.82"/><line class="cls-1" x1="157.97" y1="122.34" x2="138.11" y2="102.48"/><line class="cls-1" x1="155.24" y1="124.62" x2="135.69" y2="105.08"/><line class="cls-1" x1="152.48" y1="126.87" x2="133.22" y2="107.62"/><line class="cls-1" x1="149.69" y1="129.1" x2="130.71" y2="110.12"/><line class="cls-1" x1="146.89" y1="131.31" x2="128.18" y2="112.6"/><line class="cls-1" x1="144.07" y1="133.5" x2="125.65" y2="115.08"/><line class="cls-1" x1="141.25" y1="135.69" x2="123.14" y2="117.58"/><line class="cls-1" x1="138.44" y1="137.89" x2="120.65" y2="120.1"/><line class="cls-1" x1="135.63" y1="140.1" x2="118.2" y2="122.67"/><line class="cls-1" x1="132.85" y1="142.33" x2="115.81" y2="125.28"/><line class="cls-1" x1="130.1" y1="144.59" x2="113.48" y2="127.96"/><line class="cls-1" x1="127.39" y1="146.89" x2="111.21" y2="130.71"/><line class="cls-1" x1="124.73" y1="149.24" x2="109.03" y2="133.53"/><line class="cls-1" x1="122.14" y1="151.66" x2="106.93" y2="136.44"/><line class="cls-1" x1="119.63" y1="154.16" x2="104.92" y2="139.45"/><line class="cls-1" x1="117.21" y1="156.75" x2="103.01" y2="142.55"/><line class="cls-1" x1="114.9" y1="159.45" x2="101.21" y2="145.76"/><line class="cls-1" x1="112.72" y1="162.29" x2="99.52" y2="149.08"/><line class="cls-1" x1="110.7" y1="165.27" x2="97.95" y2="152.53"/><line class="cls-1" x1="108.85" y1="168.43" x2="96.51" y2="156.09"/><line class="cls-1" x1="107.19" y1="171.79" x2="95.19" y2="159.79"/><line class="cls-1" x1="105.77" y1="175.38" x2="94.02" y2="163.62"/><line class="cls-1" x1="104.61" y1="179.23" x2="92.98" y2="167.6"/><line class="cls-1" x1="103.76" y1="183.39" x2="92.09" y2="171.72"/><line class="cls-1" x1="103.25" y1="187.89" x2="91.36" y2="176"/><line class="cls-1" x1="103.14" y1="192.79" x2="90.79" y2="180.44"/><line class="cls-1" x1="103.49" y1="198.15" x2="90.38" y2="185.04"/><line class="cls-1" x1="104.37" y1="204.04" x2="90.14" y2="189.81"/><line class="cls-1" x1="104.75" y1="209.43" x2="90.08" y2="194.76"/><line class="cls-1" x1="101.96" y1="211.66" x2="90.2" y2="199.9"/><line class="cls-1" x1="99.19" y1="213.89" x2="90.51" y2="205.22"/><line class="cls-1" x1="96.41" y1="216.13" x2="91.02" y2="210.74"/><line class="cls-1" x1="93.64" y1="218.37" x2="91.73" y2="216.46"/><line class="cls-1" x1="336.39" y1="59.28" x2="336.59" y2="59.08"/><line class="cls-1" x1="330.63" y1="60.03" x2="332.81" y2="57.85"/><line class="cls-1" x1="322.07" y1="63.57" x2="329.01" y2="56.63"/><line class="cls-1" x1="310.6" y1="70.04" x2="325.2" y2="55.44"/><line class="cls-1" x1="300.09" y1="75.53" x2="321.36" y2="54.26"/><line class="cls-1" x1="296.28" y1="74.33" x2="317.5" y2="53.11"/><line class="cls-1" x1="292.45" y1="73.16" x2="313.63" y2="51.98"/><line class="cls-1" x1="288.58" y1="72.02" x2="309.73" y2="50.86"/><line class="cls-1" x1="284.67" y1="70.91" x2="305.81" y2="49.77"/><line class="cls-1" x1="280.73" y1="69.84" x2="301.87" y2="48.7"/><line class="cls-1" x1="276.75" y1="68.81" x2="297.9" y2="47.66"/><line class="cls-1" x1="272.72" y1="67.83" x2="293.9" y2="46.64"/><line class="cls-1" x1="268.64" y1="66.9" x2="289.88" y2="45.65"/><line class="cls-1" x1="264.51" y1="66.02" x2="285.83" y2="44.69"/><line class="cls-1" x1="260.31" y1="65.2" x2="281.74" y2="43.77"/><line class="cls-1" x1="256.05" y1="64.45" x2="277.61" y2="42.89"/><line class="cls-1" x1="251.71" y1="63.78" x2="273.43" y2="42.07"/><line class="cls-1" x1="247.27" y1="63.21" x2="269.17" y2="41.31"/><line class="cls-1" x1="242.73" y1="62.74" x2="264.84" y2="40.63"/><line class="cls-1" x1="238.06" y1="62.4" x2="260.43" y2="40.03"/><line class="cls-1" x1="233.23" y1="62.22" x2="255.94" y2="39.51"/><line class="cls-1" x1="228.2" y1="62.24" x2="251.36" y2="39.08"/><line class="cls-1" x1="222.9" y1="62.53" x2="246.7" y2="38.73"/><line class="cls-1" x1="217.21" y1="63.2" x2="241.96" y2="38.46"/><line class="cls-1" x1="210.91" y1="64.49" x2="237.14" y2="38.27"/><line class="cls-1" x1="203.35" y1="67.04" x2="232.25" y2="38.15"/><line class="cls-1" x1="195.91" y1="69.47" x2="227.3" y2="38.09"/><line class="cls-1" x1="191.94" y1="68.43" x2="222.33" y2="38.05"/><line class="cls-1" x1="187.86" y1="67.5" x2="217.36" y2="38"/><line class="cls-1" x1="183.67" y1="66.68" x2="212.44" y2="37.91"/><line class="cls-1" x1="179.35" y1="65.99" x2="207.56" y2="37.78"/><line class="cls-1" x1="174.9" y1="65.43" x2="202.75" y2="37.57"/><line class="cls-1" x1="170.29" y1="65.03" x2="198.02" y2="37.3"/><line class="cls-1" x1="165.5" y1="64.8" x2="193.2" y2="37.1"/><line class="cls-1" x1="160.51" y1="64.78" x2="180.71" y2="44.59"/><line class="cls-1" x1="335.47" y1="59.32" x2="334.57" y2="58.42"/><line class="cls-1" x1="331.07" y1="59.93" x2="327.21" y2="56.07"/><line class="cls-1" x1="327.2" y1="61.07" x2="319.98" y2="53.85"/><line class="cls-1" x1="323.75" y1="62.63" x2="312.88" y2="51.76"/><line class="cls-1" x1="320.54" y1="64.43" x2="305.91" y2="49.8"/><line class="cls-1" x1="317.33" y1="66.23" x2="299.06" y2="47.96"/><line class="cls-1" x1="314.12" y1="68.04" x2="292.34" y2="46.25"/><line class="cls-1" x1="310.93" y1="69.85" x2="285.75" y2="44.68"/><line class="cls-1" x1="307.73" y1="71.67" x2="279.31" y2="43.24"/><line class="cls-1" x1="304.55" y1="73.49" x2="273.05" y2="42"/><line class="cls-1" x1="301.37" y1="75.33" x2="267" y2="40.96"/><line class="cls-1" x1="294.95" y1="73.92" x2="261.15" y2="40.12"/><line class="cls-1" x1="287.82" y1="71.8" x2="255.48" y2="39.46"/><line class="cls-1" x1="280.89" y1="69.88" x2="249.97" y2="38.96"/><line class="cls-1" x1="274.18" y1="68.18" x2="244.6" y2="38.6"/><line class="cls-1" x1="267.67" y1="66.68" x2="239.33" y2="38.35"/><line class="cls-1" x1="261.38" y1="65.4" x2="234.16" y2="38.19"/><line class="cls-1" x1="255.3" y1="64.33" x2="229.07" y2="38.1"/><line class="cls-1" x1="249.43" y1="63.47" x2="224.01" y2="38.06"/><line class="cls-1" x1="243.78" y1="62.84" x2="218.96" y2="38.01"/><line class="cls-1" x1="238.35" y1="62.42" x2="213.87" y2="37.94"/><line class="cls-1" x1="233.14" y1="62.22" x2="208.74" y2="37.82"/><line class="cls-1" x1="228.15" y1="62.24" x2="203.52" y2="37.61"/><line class="cls-1" x1="223.39" y1="62.49" x2="198.21" y2="37.31"/><line class="cls-1" x1="218.86" y1="62.97" x2="193.06" y2="37.18"/><line class="cls-1" x1="214.55" y1="63.67" x2="189.83" y2="38.95"/><line class="cls-1" x1="210.47" y1="64.61" x2="186.66" y2="40.79"/><line class="cls-1" x1="206.63" y1="65.78" x2="183.56" y2="42.71"/><line class="cls-1" x1="203.03" y1="67.18" x2="180.54" y2="44.7"/><line class="cls-1" x1="199.66" y1="68.82" x2="177.6" y2="46.76"/><line class="cls-1" x1="195.06" y1="69.24" x2="174.72" y2="48.9"/><line class="cls-1" x1="188.43" y1="67.62" x2="171.93" y2="51.11"/><line class="cls-1" x1="182.23" y1="66.43" x2="169.2" y2="53.4"/><line class="cls-1" x1="176.39" y1="65.6" x2="166.56" y2="55.77"/><line class="cls-1" x1="170.85" y1="65.07" x2="163.99" y2="58.21"/><line class="cls-1" x1="165.57" y1="64.81" x2="161.5" y2="60.74"/><line class="cls-1" x1="160.54" y1="64.78" x2="159.1" y2="63.34"/><line class="cls-1" x1="193.2" y1="37.1" x2="193.37" y2="36.94"/><line class="cls-1" x1="180.71" y1="44.59" x2="188.81" y2="36.49"/><line class="cls-1" x1="156.3" y1="63.99" x2="184.33" y2="35.95"/><line class="cls-1" x1="153.01" y1="62.26" x2="179.95" y2="35.33"/><line class="cls-1" x1="149.5" y1="60.76" x2="175.65" y2="34.61"/><line class="cls-1" x1="145.78" y1="59.48" x2="171.44" y2="33.81"/><line class="cls-1" x1="141.84" y1="58.4" x2="167.33" y2="32.91"/><line class="cls-1" x1="137.71" y1="57.52" x2="163.29" y2="31.94"/><line class="cls-1" x1="133.41" y1="56.81" x2="159.34" y2="30.88"/><line class="cls-1" x1="128.95" y1="56.25" x2="155.47" y2="29.73"/><line class="cls-1" x1="124.37" y1="55.83" x2="151.68" y2="28.51"/><line class="cls-1" x1="119.68" y1="55.51" x2="147.97" y2="27.22"/><line class="cls-1" x1="114.9" y1="55.27" x2="144.33" y2="25.85"/><line class="cls-1" x1="110.07" y1="55.09" x2="139.38" y2="25.78"/><line class="cls-1" x1="105.2" y1="54.95" x2="133.97" y2="26.18"/><line class="cls-1" x1="100.32" y1="54.82" x2="128.55" y2="26.59"/><line class="cls-1" x1="95.45" y1="54.68" x2="123.12" y2="27.01"/><line class="cls-1" x1="90.6" y1="54.52" x2="117.67" y2="27.45"/><line class="cls-1" x1="85.8" y1="54.31" x2="112.21" y2="27.9"/><line class="cls-1" x1="81.04" y1="54.05" x2="106.74" y2="28.35"/><line class="cls-1" x1="76.36" y1="53.73" x2="101.26" y2="28.82"/><line class="cls-1" x1="71.74" y1="53.33" x2="95.77" y2="29.31"/><line class="cls-1" x1="67.21" y1="52.85" x2="90.26" y2="29.8"/><line class="cls-1" x1="62.77" y1="52.28" x2="84.74" y2="30.31"/><line class="cls-1" x1="58.42" y1="51.62" x2="79.21" y2="30.83"/><line class="cls-1" x1="54.16" y1="50.87" x2="73.67" y2="31.36"/><line class="cls-1" x1="50" y1="50.02" x2="68.11" y2="31.91"/><line class="cls-1" x1="45.94" y1="49.07" x2="62.55" y2="32.46"/><line class="cls-1" x1="41.98" y1="48.02" x2="56.96" y2="33.03"/><line class="cls-1" x1="38.11" y1="46.87" x2="51.37" y2="33.62"/><line class="cls-1" x1="34.35" y1="45.63" x2="45.76" y2="34.21"/><line class="cls-1" x1="30.68" y1="44.29" x2="40.14" y2="34.82"/><line class="cls-1" x1="27.1" y1="42.86" x2="34.51" y2="35.44"/><line class="cls-1" x1="23.61" y1="41.33" x2="28.86" y2="36.08"/><line class="cls-1" x1="20.22" y1="39.71" x2="23.2" y2="36.73"/><line class="cls-1" x1="16.91" y1="38.01" x2="17.53" y2="37.39"/><line class="cls-1" x1="193.06" y1="37.18" x2="192.77" y2="36.88"/><line class="cls-1" x1="189.83" y1="38.95" x2="187.18" y2="36.31"/><line class="cls-1" x1="186.66" y1="40.79" x2="181.41" y2="35.55"/><line class="cls-1" x1="183.56" y1="42.71" x2="175.43" y2="34.57"/><line class="cls-1" x1="180.54" y1="44.7" x2="169.17" y2="33.33"/><line class="cls-1" x1="177.6" y1="46.76" x2="162.59" y2="31.76"/><line class="cls-1" x1="174.72" y1="48.9" x2="155.59" y2="29.77"/><line class="cls-1" x1="171.93" y1="51.11" x2="148.06" y2="27.25"/><line class="cls-1" x1="169.2" y1="53.4" x2="141.43" y2="25.63"/><line class="cls-1" x1="166.56" y1="55.77" x2="136.76" y2="25.97"/><line class="cls-1" x1="163.99" y1="58.21" x2="132.1" y2="26.32"/><line class="cls-1" x1="161.5" y1="60.74" x2="127.44" y2="26.68"/><line class="cls-1" x1="159.1" y1="63.34" x2="122.8" y2="27.04"/><line class="cls-1" x1="152.99" y1="62.25" x2="118.16" y2="27.41"/><line class="cls-1" x1="144.97" y1="59.23" x2="113.52" y2="27.79"/><line class="cls-1" x1="138.37" y1="57.64" x2="108.9" y2="28.17"/><line class="cls-1" x1="132.38" y1="56.67" x2="104.28" y2="28.56"/><line class="cls-1" x1="126.73" y1="56.03" x2="99.67" y2="28.96"/><line class="cls-1" x1="121.3" y1="55.61" x2="95.06" y2="29.37"/><line class="cls-1" x1="116" y1="55.32" x2="90.46" y2="29.78"/><line class="cls-1" x1="110.78" y1="55.12" x2="85.87" y2="30.2"/><line class="cls-1" x1="105.62" y1="54.96" x2="81.29" y2="30.63"/><line class="cls-1" x1="100.47" y1="54.82" x2="76.71" y2="31.07"/><line class="cls-1" x1="95.31" y1="54.67" x2="72.15" y2="31.51"/><line class="cls-1" x1="90.12" y1="54.5" x2="67.58" y2="31.96"/><line class="cls-1" x1="84.88" y1="54.27" x2="63.03" y2="32.41"/><line class="cls-1" x1="79.56" y1="53.96" x2="58.48" y2="32.88"/><line class="cls-1" x1="74.14" y1="53.55" x2="53.94" y2="33.35"/><line class="cls-1" x1="68.59" y1="53.01" x2="49.4" y2="33.82"/><line class="cls-1" x1="62.87" y1="52.3" x2="44.88" y2="34.31"/><line class="cls-1" x1="56.93" y1="51.37" x2="40.36" y2="34.8"/><line class="cls-1" x1="50.72" y1="50.17" x2="35.84" y2="35.3"/><line class="cls-1" x1="44.14" y1="48.61" x2="31.34" y2="35.8"/><line class="cls-1" x1="37.06" y1="46.54" x2="26.84" y2="36.31"/><line class="cls-1" x1="29.25" y1="43.73" x2="22.34" y2="36.83"/><line class="cls-1" x1="20.21" y1="39.71" x2="17.85" y2="37.35"/><line class="cls-1" x1="649.4" y1="41.91" x2="654.23" y2="37.09"/><line class="cls-1" x1="641.06" y1="45.24" x2="649.74" y2="36.57"/><line class="cls-1" x1="633.65" y1="47.64" x2="645.24" y2="36.05"/><line class="cls-1" x1="626.85" y1="49.44" x2="640.74" y2="35.55"/><line class="cls-1" x1="620.47" y1="50.81" x2="636.23" y2="35.05"/><line class="cls-1" x1="614.4" y1="51.86" x2="631.71" y2="34.55"/><line class="cls-1" x1="608.58" y1="52.67" x2="627.18" y2="34.07"/><line class="cls-1" x1="602.94" y1="53.3" x2="622.65" y2="33.59"/><line class="cls-1" x1="597.46" y1="53.77" x2="618.12" y2="33.11"/><line class="cls-1" x1="592.09" y1="54.12" x2="613.57" y2="32.65"/><line class="cls-1" x1="586.82" y1="54.39" x2="609.02" y2="32.19"/><line class="cls-1" x1="581.61" y1="54.59" x2="604.46" y2="31.73"/><line class="cls-1" x1="576.44" y1="54.75" x2="599.9" y2="31.29"/><line class="cls-1" x1="571.28" y1="54.89" x2="595.32" y2="30.85"/><line class="cls-1" x1="566.13" y1="55.03" x2="590.74" y2="30.42"/><line class="cls-1" x1="560.94" y1="55.21" x2="586.16" y2="29.99"/><line class="cls-1" x1="555.69" y1="55.45" x2="581.56" y2="29.58"/><line class="cls-1" x1="550.33" y1="55.8" x2="576.96" y2="29.17"/><line class="cls-1" x1="544.81" y1="56.31" x2="572.35" y2="28.76"/><line class="cls-1" x1="539.01" y1="57.1" x2="567.74" y2="28.37"/><line class="cls-1" x1="532.77" y1="58.33" x2="563.12" y2="27.98"/><line class="cls-1" x1="525.64" y1="60.45" x2="558.49" y2="27.6"/><line class="cls-1" x1="516.4" y1="64.68" x2="553.85" y2="27.22"/><line class="cls-1" x1="514.03" y1="62.03" x2="549.21" y2="26.86"/><line class="cls-1" x1="511.58" y1="59.47" x2="544.55" y2="26.5"/><line class="cls-1" x1="509.05" y1="56.99" x2="539.9" y2="26.15"/><line class="cls-1" x1="506.45" y1="54.58" x2="535.23" y2="25.8"/><line class="cls-1" x1="503.77" y1="52.25" x2="530.3" y2="25.72"/><line class="cls-1" x1="501.01" y1="50" x2="522.43" y2="28.58"/><line class="cls-1" x1="498.17" y1="47.83" x2="515.18" y2="30.82"/><line class="cls-1" x1="495.26" y1="45.73" x2="508.4" y2="32.58"/><line class="cls-1" x1="492.28" y1="43.7" x2="501.99" y2="33.98"/><line class="cls-1" x1="489.22" y1="41.75" x2="495.88" y2="35.09"/><line class="cls-1" x1="486.09" y1="39.87" x2="490.01" y2="35.95"/><line class="cls-1" x1="482.89" y1="38.06" x2="484.33" y2="36.61"/><line class="cls-1" x1="655.77" y1="38.87" x2="653.96" y2="37.06"/><line class="cls-1" x1="652.42" y1="40.53" x2="648.29" y2="36.4"/><line class="cls-1" x1="648.98" y1="42.1" x2="642.64" y2="35.76"/><line class="cls-1" x1="645.45" y1="43.58" x2="637" y2="35.13"/><line class="cls-1" x1="641.82" y1="44.97" x2="631.37" y2="34.52"/><line class="cls-1" x1="638.1" y1="46.26" x2="625.76" y2="33.91"/><line class="cls-1" x1="634.29" y1="47.45" x2="620.16" y2="33.32"/><line class="cls-1" x1="630.37" y1="48.55" x2="614.57" y2="32.75"/><line class="cls-1" x1="626.36" y1="49.55" x2="609" y2="32.18"/><line class="cls-1" x1="622.25" y1="50.45" x2="603.43" y2="31.63"/><line class="cls-1" x1="618.05" y1="51.26" x2="597.88" y2="31.1"/><line class="cls-1" x1="613.74" y1="51.96" x2="592.35" y2="30.57"/><line class="cls-1" x1="609.34" y1="52.58" x2="586.82" y2="30.06"/><line class="cls-1" x1="604.86" y1="53.1" x2="581.31" y2="29.55"/><line class="cls-1" x1="600.29" y1="53.54" x2="575.81" y2="29.07"/><line class="cls-1" x1="595.63" y1="53.9" x2="570.32" y2="28.59"/><line class="cls-1" x1="590.91" y1="54.19" x2="564.85" y2="28.12"/><line class="cls-1" x1="586.13" y1="54.42" x2="559.38" y2="27.67"/><line class="cls-1" x1="581.3" y1="54.6" x2="553.93" y2="27.23"/><line class="cls-1" x1="576.44" y1="54.75" x2="548.49" y2="26.8"/><line class="cls-1" x1="571.56" y1="54.88" x2="543.07" y2="26.39"/><line class="cls-1" x1="566.69" y1="55.02" x2="537.65" y2="25.98"/><line class="cls-1" x1="561.83" y1="55.18" x2="532.24" y2="25.59"/><line class="cls-1" x1="557.03" y1="55.38" x2="528.18" y2="26.54"/><line class="cls-1" x1="552.29" y1="55.65" x2="524.51" y2="27.87"/><line class="cls-1" x1="547.65" y1="56.02" x2="520.76" y2="29.13"/><line class="cls-1" x1="543.13" y1="56.51" x2="516.93" y2="30.31"/><line class="cls-1" x1="538.74" y1="57.14" x2="513.02" y2="31.41"/><line class="cls-1" x1="534.53" y1="57.93" x2="509.03" y2="32.43"/><line class="cls-1" x1="530.49" y1="58.91" x2="504.95" y2="33.37"/><line class="cls-1" x1="526.66" y1="60.09" x2="500.79" y2="34.22"/><line class="cls-1" x1="523.03" y1="61.48" x2="496.54" y2="34.98"/><line class="cls-1" x1="519.64" y1="63.09" x2="492.2" y2="35.65"/><line class="cls-1" x1="503.94" y1="52.4" x2="487.77" y2="36.23"/><line class="cls-1" x1="486.82" y1="40.3" x2="483.25" y2="36.72"/><line class="cls-1" x1="516.22" y1="64.86" x2="516.4" y2="64.68"/><line class="cls-1" x1="511.3" y1="64.77" x2="514.03" y2="62.03"/><line class="cls-1" x1="506.15" y1="64.9" x2="511.58" y2="59.47"/><line class="cls-1" x1="500.75" y1="65.3" x2="509.05" y2="56.99"/><line class="cls-1" x1="495.06" y1="65.97" x2="506.45" y2="54.58"/><line class="cls-1" x1="489.04" y1="66.98" x2="503.77" y2="52.25"/><line class="cls-1" x1="482.64" y1="68.37" x2="501.01" y2="50"/><line class="cls-1" x1="476.26" y1="69.74" x2="498.17" y2="47.83"/><line class="cls-1" x1="473.01" y1="67.98" x2="495.26" y2="45.73"/><line class="cls-1" x1="469.52" y1="66.45" x2="492.28" y2="43.7"/><line class="cls-1" x1="465.8" y1="65.17" x2="489.22" y2="41.75"/><line class="cls-1" x1="461.84" y1="64.11" x2="486.09" y2="39.87"/><line class="cls-1" x1="457.65" y1="63.29" x2="482.89" y2="38.06"/><line class="cls-1" x1="453.23" y1="62.7" x2="478.82" y2="37.11"/><line class="cls-1" x1="448.58" y1="62.34" x2="473.45" y2="37.47"/><line class="cls-1" x1="443.71" y1="62.2" x2="468.19" y2="37.72"/><line class="cls-1" x1="438.61" y1="62.29" x2="463.01" y2="37.89"/><line class="cls-1" x1="433.29" y1="62.6" x2="457.9" y2="37.98"/><line class="cls-1" x1="427.75" y1="63.13" x2="452.84" y2="38.04"/><line class="cls-1" x1="421.99" y1="63.87" x2="447.79" y2="38.08"/><line class="cls-1" x1="416.02" y1="64.84" x2="442.72" y2="38.14"/><line class="cls-1" x1="409.83" y1="66.01" x2="437.59" y2="38.26"/><line class="cls-1" x1="403.43" y1="67.4" x2="432.37" y2="38.46"/><line class="cls-1" x1="396.82" y1="69" x2="427.06" y2="38.77"/><line class="cls-1" x1="390" y1="70.81" x2="421.62" y2="39.19"/><line class="cls-1" x1="382.97" y1="72.83" x2="416.03" y2="39.77"/><line class="cls-1" x1="375.74" y1="75.05" x2="410.28" y2="40.51"/><line class="cls-1" x1="371.36" y1="74.41" x2="404.33" y2="41.45"/><line class="cls-1" x1="368.18" y1="72.59" x2="398.18" y2="42.59"/><line class="cls-1" x1="364.99" y1="70.76" x2="391.82" y2="43.93"/><line class="cls-1" x1="361.8" y1="68.95" x2="385.3" y2="45.44"/><line class="cls-1" x1="358.6" y1="67.14" x2="378.65" y2="47.09"/><line class="cls-1" x1="355.39" y1="65.33" x2="371.86" y2="48.86"/><line class="cls-1" x1="352.18" y1="63.54" x2="364.95" y2="50.76"/><line class="cls-1" x1="348.89" y1="61.81" x2="357.92" y2="52.78"/><line class="cls-1" x1="345.25" y1="60.44" x2="350.76" y2="54.93"/><line class="cls-1" x1="341.13" y1="59.55" x2="343.46" y2="57.22"/><line class="cls-1" x1="516.4" y1="64.86" x2="503.94" y2="52.4"/><line class="cls-1" x1="511.29" y1="64.77" x2="486.82" y2="40.3"/><line class="cls-1" x1="506.41" y1="64.89" x2="478.64" y2="37.13"/><line class="cls-1" x1="501.71" y1="65.21" x2="473.95" y2="37.44"/><line class="cls-1" x1="497.18" y1="65.69" x2="469.18" y2="37.68"/><line class="cls-1" x1="492.8" y1="66.32" x2="464.33" y2="37.85"/><line class="cls-1" x1="488.54" y1="67.07" x2="459.43" y2="37.96"/><line class="cls-1" x1="484.41" y1="67.95" x2="454.48" y2="38.02"/><line class="cls-1" x1="480.39" y1="68.94" x2="449.51" y2="38.06"/><line class="cls-1" x1="476.05" y1="69.61" x2="444.55" y2="38.11"/><line class="cls-1" x1="466.96" y1="65.53" x2="439.63" y2="38.2"/><line class="cls-1" x1="460.17" y1="63.75" x2="434.77" y2="38.35"/><line class="cls-1" x1="454.22" y1="62.81" x2="429.99" y2="38.58"/><line class="cls-1" x1="448.74" y1="62.35" x2="425.29" y2="38.89"/><line class="cls-1" x1="443.58" y1="62.2" x2="420.66" y2="39.28"/><line class="cls-1" x1="438.66" y1="62.29" x2="416.13" y2="39.76"/><line class="cls-1" x1="433.91" y1="62.55" x2="411.68" y2="40.32"/><line class="cls-1" x1="429.31" y1="62.96" x2="407.31" y2="40.96"/><line class="cls-1" x1="424.82" y1="63.48" x2="403.02" y2="41.68"/><line class="cls-1" x1="420.43" y1="64.11" x2="398.8" y2="42.47"/><line class="cls-1" x1="416.13" y1="64.82" x2="394.64" y2="43.32"/><line class="cls-1" x1="411.91" y1="65.6" x2="390.53" y2="44.22"/><line class="cls-1" x1="407.74" y1="66.45" x2="386.46" y2="45.17"/><line class="cls-1" x1="403.64" y1="67.35" x2="382.43" y2="46.14"/><line class="cls-1" x1="399.59" y1="68.31" x2="378.42" y2="47.15"/><line class="cls-1" x1="395.58" y1="69.32" x2="374.44" y2="48.18"/><line class="cls-1" x1="391.62" y1="70.37" x2="370.48" y2="49.23"/><line class="cls-1" x1="387.7" y1="71.46" x2="366.55" y2="50.31"/><line class="cls-1" x1="383.81" y1="72.58" x2="362.64" y2="51.41"/><line class="cls-1" x1="379.95" y1="73.74" x2="358.76" y2="52.54"/><line class="cls-1" x1="376.13" y1="74.92" x2="354.89" y2="53.68"/><line class="cls-1" x1="369.59" y1="73.4" x2="351.04" y2="54.85"/><line class="cls-1" x1="357.97" y1="66.79" x2="347.22" y2="56.03"/><line class="cls-1" x1="347.33" y1="61.15" x2="343.41" y2="57.23"/><line class="cls-1" x1="340.64" y1="59.48" x2="339.62" y2="58.46"/><line class="cls-1" x1="582.06" y1="219.5" x2="582.14" y2="219.41"/><line class="cls-1" x1="579.29" y1="217.25" x2="582.96" y2="213.59"/><line class="cls-1" x1="576.52" y1="215.01" x2="583.57" y2="207.97"/><line class="cls-1" x1="573.75" y1="212.78" x2="583.98" y2="202.55"/><line class="cls-1" x1="570.96" y1="210.55" x2="584.19" y2="197.32"/><line class="cls-1" x1="569.27" y1="207.23" x2="584.23" y2="192.28"/><line class="cls-1" x1="570.45" y1="201.04" x2="584.08" y2="187.42"/><line class="cls-1" x1="571.06" y1="195.42" x2="583.75" y2="182.73"/><line class="cls-1" x1="571.17" y1="190.3" x2="583.26" y2="178.21"/><line class="cls-1" x1="570.86" y1="185.6" x2="582.61" y2="173.85"/><line class="cls-1" x1="570.17" y1="181.28" x2="581.8" y2="169.65"/><line class="cls-1" x1="569.16" y1="177.28" x2="580.83" y2="165.6"/><line class="cls-1" x1="567.86" y1="173.56" x2="579.73" y2="161.7"/><line class="cls-1" x1="566.32" y1="170.09" x2="578.48" y2="157.93"/><line class="cls-1" x1="564.57" y1="166.83" x2="577.1" y2="154.3"/><line class="cls-1" x1="562.63" y1="163.77" x2="575.6" y2="150.8"/><line class="cls-1" x1="560.52" y1="160.86" x2="573.97" y2="147.42"/><line class="cls-1" x1="558.28" y1="158.09" x2="572.22" y2="144.15"/><line class="cls-1" x1="555.92" y1="155.45" x2="570.37" y2="140.99"/><line class="cls-1" x1="553.45" y1="152.9" x2="568.41" y2="137.94"/><line class="cls-1" x1="550.89" y1="150.45" x2="566.35" y2="134.98"/><line class="cls-1" x1="548.27" y1="148.06" x2="564.21" y2="132.12"/><line class="cls-1" x1="545.58" y1="145.74" x2="561.98" y2="129.33"/><line class="cls-1" x1="542.85" y1="143.46" x2="559.68" y2="126.62"/><line class="cls-1" x1="540.08" y1="141.21" x2="557.32" y2="123.98"/><line class="cls-1" x1="537.29" y1="139" x2="554.9" y2="121.39"/><line class="cls-1" x1="534.48" y1="136.8" x2="552.43" y2="118.84"/><line class="cls-1" x1="531.66" y1="134.6" x2="549.93" y2="116.33"/><line class="cls-1" x1="528.84" y1="132.41" x2="547.4" y2="113.85"/><line class="cls-1" x1="526.03" y1="130.21" x2="544.87" y2="111.37"/><line class="cls-1" x1="523.23" y1="127.99" x2="542.35" y2="108.88"/><line class="cls-1" x1="520.46" y1="125.76" x2="539.85" y2="106.36"/><line class="cls-1" x1="517.71" y1="123.49" x2="537.41" y2="103.8"/><line class="cls-1" x1="515" y1="121.2" x2="535.03" y2="101.17"/><line class="cls-1" x1="512.32" y1="118.86" x2="532.71" y2="98.48"/><line class="cls-1" x1="509.69" y1="116.49" x2="530.47" y2="95.71"/><line class="cls-1" x1="507.1" y1="114.06" x2="528.3" y2="92.86"/><line class="cls-1" x1="504.56" y1="111.59" x2="526.23" y2="89.92"/><line class="cls-1" x1="502.09" y1="109.06" x2="524.27" y2="86.87"/><line class="cls-1" x1="499.67" y1="106.46" x2="522.43" y2="83.7"/><line class="cls-1" x1="497.31" y1="103.81" x2="520.75" y2="80.37"/><line class="cls-1" x1="495.02" y1="101.09" x2="519.24" y2="76.87"/><line class="cls-1" x1="492.8" y1="98.29" x2="517.97" y2="73.12"/><line class="cls-1" x1="490.66" y1="95.43" x2="517.02" y2="69.06"/><line class="cls-1" x1="488.59" y1="92.49" x2="516.22" y2="64.86"/><line class="cls-1" x1="486.6" y1="89.46" x2="511.3" y2="64.77"/><line class="cls-1" x1="484.69" y1="86.36" x2="506.15" y2="64.9"/><line class="cls-1" x1="482.87" y1="83.17" x2="500.75" y2="65.3"/><line class="cls-1" x1="481.13" y1="79.9" x2="495.06" y2="65.97"/><line class="cls-1" x1="479.49" y1="76.53" x2="489.04" y2="66.98"/><line class="cls-1" x1="477.93" y1="73.08" x2="482.64" y2="68.37"/><line class="cls-1" x1="516.57" y1="65.04" x2="516.4" y2="64.86"/><line class="cls-1" x1="517.39" y1="70.86" x2="511.29" y2="64.77"/><line class="cls-1" x1="519.82" y1="78.31" x2="506.41" y2="64.89"/><line class="cls-1" x1="525.86" y1="89.35" x2="501.71" y2="65.21"/><line class="cls-1" x1="566.03" y1="134.53" x2="497.18" y2="65.69"/><line class="cls-1" x1="574.04" y1="147.55" x2="492.8" y2="66.32"/><line class="cls-1" x1="577.95" y1="156.48" x2="488.54" y2="67.07"/><line class="cls-1" x1="580.38" y1="163.92" x2="484.41" y2="67.95"/><line class="cls-1" x1="581.98" y1="170.53" x2="480.39" y2="68.94"/><line class="cls-1" x1="583.04" y1="176.6" x2="476.8" y2="70.36"/><line class="cls-1" x1="583.71" y1="182.29" x2="480.93" y2="79.51"/><line class="cls-1" x1="584.09" y1="187.67" x2="566.14" y2="169.73"/><line class="cls-1" x1="528.78" y1="132.36" x2="487.94" y2="91.53"/><line class="cls-1" x1="584.23" y1="192.83" x2="569.35" y2="177.95"/><line class="cls-1" x1="584.18" y1="197.79" x2="570.69" y2="184.3"/><line class="cls-1" x1="583.98" y1="202.59" x2="571.16" y2="189.77"/><line class="cls-1" x1="583.63" y1="207.26" x2="571.1" y2="194.73"/><line class="cls-1" x1="583.17" y1="211.81" x2="570.69" y2="199.33"/><line class="cls-1" x1="582.61" y1="216.26" x2="570.01" y2="203.66"/><line class="cls-1" x1="575.65" y1="214.31" x2="569.14" y2="207.8"/><line class="cls-1" x1="5.88" y1="38.02" x2="12.26" y2="38.02"/><line class="cls-1" x1="3.96" y1="34.47" x2="43.35" y2="34.47"/><line class="cls-1" x1="2.04" y1="30.93" x2="78.17" y2="30.93"/><line class="cls-1" x1="17.65" y1="27.39" x2="118.45" y2="27.39"/><line class="cls-1" x1="49.45" y1="23.84" x2="123.4" y2="23.84"/><line class="cls-1" x1="85.25" y1="20.3" x2="123.13" y2="20.3"/><line class="cls-1" x1="123.59" y1="26.98" x2="123.59" y2="26.32"/><line class="cls-1" x1="120.05" y1="27.26" x2="120.05" y2="17.3"/><line class="cls-1" x1="116.5" y1="27.54" x2="116.5" y2="17.59"/><line class="cls-1" x1="112.96" y1="27.83" x2="112.96" y2="17.88"/><line class="cls-1" x1="109.42" y1="28.13" x2="109.42" y2="18.17"/><line class="cls-1" x1="105.87" y1="28.43" x2="105.87" y2="18.47"/><line class="cls-1" x1="102.33" y1="28.73" x2="102.33" y2="18.77"/><line class="cls-1" x1="98.79" y1="29.04" x2="98.79" y2="19.08"/><line class="cls-1" x1="95.24" y1="29.35" x2="95.24" y2="19.39"/><line class="cls-1" x1="91.7" y1="29.67" x2="91.7" y2="19.71"/><line class="cls-1" x1="88.16" y1="29.99" x2="88.16" y2="20.03"/><line class="cls-1" x1="84.61" y1="30.32" x2="84.61" y2="20.36"/><line class="cls-1" x1="81.07" y1="30.65" x2="81.07" y2="20.69"/><line class="cls-1" x1="77.53" y1="30.99" x2="77.53" y2="21.02"/><line class="cls-1" x1="73.98" y1="31.33" x2="73.98" y2="21.36"/><line class="cls-1" x1="70.44" y1="31.68" x2="70.44" y2="21.71"/><line class="cls-1" x1="66.9" y1="32.03" x2="66.9" y2="22.06"/><line class="cls-1" x1="63.35" y1="32.38" x2="63.35" y2="22.41"/><line class="cls-1" x1="59.81" y1="32.74" x2="59.81" y2="22.77"/><line class="cls-1" x1="56.27" y1="33.11" x2="56.27" y2="23.13"/><line class="cls-1" x1="52.72" y1="33.47" x2="52.72" y2="23.5"/><line class="cls-1" x1="49.18" y1="33.85" x2="49.18" y2="23.87"/><line class="cls-1" x1="45.64" y1="34.23" x2="45.64" y2="24.25"/><line class="cls-1" x1="42.09" y1="34.61" x2="42.09" y2="24.63"/><line class="cls-1" x1="38.55" y1="35" x2="38.55" y2="25.02"/><line class="cls-1" x1="35.01" y1="35.39" x2="35.01" y2="25.41"/><line class="cls-1" x1="31.46" y1="35.78" x2="31.46" y2="25.8"/><line class="cls-1" x1="27.92" y1="36.19" x2="27.92" y2="26.2"/><line class="cls-1" x1="24.38" y1="36.59" x2="24.38" y2="26.61"/><line class="cls-1" x1="20.83" y1="37" x2="20.83" y2="27.01"/><line class="cls-1" x1="17.29" y1="37.42" x2="17.29" y2="27.43"/><line class="cls-1" x1="13.75" y1="37.84" x2="13.75" y2="27.85"/><line class="cls-1" x1="10.2" y1="38.26" x2="10.2" y2="28.27"/><line class="cls-1" x1="6.66" y1="38.69" x2="6.66" y2="28.7"/><line class="cls-1" x1="3.12" y1="32.91" x2="3.12" y2="29.13"/><line class="cls-1" x1="226.95" y1="20.3" x2="240.34" y2="20.3"/><line class="cls-1" x1="226.8" y1="16.76" x2="327.24" y2="16.76"/><line class="cls-1" x1="226.65" y1="13.21" x2="327.24" y2="13.21"/><line class="cls-1" x1="262.62" y1="9.67" x2="327.24" y2="9.67"/><line class="cls-1" x1="325.56" y1="18.59" x2="325.56" y2="8.67"/><line class="cls-1" x1="322.01" y1="18.61" x2="322.01" y2="8.69"/><line class="cls-1" x1="318.47" y1="18.63" x2="318.47" y2="8.71"/><line class="cls-1" x1="314.93" y1="18.66" x2="314.93" y2="8.74"/><line class="cls-1" x1="311.38" y1="18.69" x2="311.38" y2="8.77"/><line class="cls-1" x1="307.84" y1="18.73" x2="307.84" y2="8.8"/><line class="cls-1" x1="304.3" y1="18.77" x2="304.3" y2="8.84"/><line class="cls-1" x1="300.75" y1="18.81" x2="300.75" y2="8.89"/><line class="cls-1" x1="297.21" y1="18.86" x2="297.21" y2="8.94"/><line class="cls-1" x1="293.67" y1="18.92" x2="293.67" y2="8.99"/><line class="cls-1" x1="290.12" y1="18.98" x2="290.12" y2="9.05"/><line class="cls-1" x1="286.58" y1="19.04" x2="286.58" y2="9.12"/><line class="cls-1" x1="283.04" y1="19.11" x2="283.04" y2="9.19"/><line class="cls-1" x1="279.49" y1="19.18" x2="279.49" y2="9.26"/><line class="cls-1" x1="275.95" y1="19.26" x2="275.95" y2="9.34"/><line class="cls-1" x1="272.41" y1="19.34" x2="272.41" y2="9.42"/><line class="cls-1" x1="268.86" y1="19.43" x2="268.86" y2="9.5"/><line class="cls-1" x1="265.32" y1="19.52" x2="265.32" y2="9.6"/><line class="cls-1" x1="261.78" y1="19.62" x2="261.78" y2="9.69"/><line class="cls-1" x1="258.23" y1="19.72" x2="258.23" y2="9.79"/><line class="cls-1" x1="254.69" y1="19.82" x2="254.69" y2="9.9"/><line class="cls-1" x1="251.15" y1="19.93" x2="251.15" y2="10.01"/><line class="cls-1" x1="247.6" y1="20.05" x2="247.6" y2="10.12"/><line class="cls-1" x1="244.06" y1="20.17" x2="244.06" y2="10.24"/><line class="cls-1" x1="240.52" y1="20.29" x2="240.52" y2="10.36"/><line class="cls-1" x1="236.97" y1="20.42" x2="236.97" y2="10.49"/><line class="cls-1" x1="233.43" y1="20.55" x2="233.43" y2="10.63"/><line class="cls-1" x1="229.89" y1="20.69" x2="229.89" y2="10.76"/><line class="cls-1" x1="143.3" y1="23.84" x2="168.06" y2="23.84"/><line class="cls-1" x1="143.03" y1="20.3" x2="207.09" y2="20.3"/><line class="cls-1" x1="142.77" y1="16.76" x2="206.94" y2="16.76"/><line class="cls-1" x1="179.56" y1="13.21" x2="206.79" y2="13.21"/><line class="cls-1" x1="205.09" y1="21.79" x2="205.09" y2="11.85"/><line class="cls-1" x1="201.54" y1="21.96" x2="201.54" y2="12.03"/><line class="cls-1" x1="198" y1="22.14" x2="198" y2="12.21"/><line class="cls-1" x1="194.46" y1="22.33" x2="194.46" y2="12.39"/><line class="cls-1" x1="190.91" y1="22.51" x2="190.91" y2="12.58"/><line class="cls-1" x1="187.37" y1="22.71" x2="187.37" y2="12.77"/><line class="cls-1" x1="183.83" y1="22.91" x2="183.83" y2="12.97"/><line class="cls-1" x1="180.28" y1="23.11" x2="180.28" y2="13.17"/><line class="cls-1" x1="176.74" y1="23.32" x2="176.74" y2="13.38"/><line class="cls-1" x1="173.2" y1="23.53" x2="173.2" y2="13.59"/><line class="cls-1" x1="169.65" y1="23.74" x2="169.65" y2="13.8"/><line class="cls-1" x1="166.11" y1="23.96" x2="166.11" y2="14.02"/><line class="cls-1" x1="162.57" y1="24.19" x2="162.57" y2="14.25"/><line class="cls-1" x1="159.02" y1="24.42" x2="159.02" y2="14.48"/><line class="cls-1" x1="155.48" y1="24.66" x2="155.48" y2="14.71"/><line class="cls-1" x1="151.94" y1="24.89" x2="151.94" y2="14.95"/><line class="cls-1" x1="148.39" y1="25.14" x2="148.39" y2="15.19"/><line class="cls-1" x1="144.85" y1="25.39" x2="144.85" y2="15.44"/><line class="cls-1" x1="506.25" y1="23.84" x2="531.01" y2="23.84"/><line class="cls-1" x1="467.22" y1="20.3" x2="531.28" y2="20.3"/><line class="cls-1" x1="467.37" y1="16.76" x2="531.55" y2="16.76"/><line class="cls-1" x1="467.52" y1="13.21" x2="494.75" y2="13.21"/><line class="cls-1" x1="531.07" y1="23.09" x2="531.07" y2="15.56"/><line class="cls-1" x1="527.53" y1="25.25" x2="527.53" y2="15.31"/><line class="cls-1" x1="523.98" y1="25" x2="523.98" y2="15.06"/><line class="cls-1" x1="520.44" y1="24.76" x2="520.44" y2="14.82"/><line class="cls-1" x1="516.9" y1="24.53" x2="516.9" y2="14.58"/><line class="cls-1" x1="513.35" y1="24.29" x2="513.35" y2="14.35"/><line class="cls-1" x1="509.81" y1="24.07" x2="509.81" y2="14.13"/><line class="cls-1" x1="506.27" y1="23.84" x2="506.27" y2="13.9"/><line class="cls-1" x1="502.72" y1="23.62" x2="502.72" y2="13.69"/><line class="cls-1" x1="499.18" y1="23.41" x2="499.18" y2="13.47"/><line class="cls-1" x1="495.64" y1="23.2" x2="495.64" y2="13.26"/><line class="cls-1" x1="492.09" y1="23" x2="492.09" y2="13.06"/><line class="cls-1" x1="488.55" y1="22.8" x2="488.55" y2="12.86"/><line class="cls-1" x1="485.01" y1="22.6" x2="485.01" y2="12.67"/><line class="cls-1" x1="481.46" y1="22.41" x2="481.46" y2="12.48"/><line class="cls-1" x1="477.92" y1="22.22" x2="477.92" y2="12.29"/><line class="cls-1" x1="474.38" y1="22.04" x2="474.38" y2="12.11"/><line class="cls-1" x1="470.83" y1="21.87" x2="470.83" y2="11.93"/><line class="cls-1" x1="467.29" y1="21.69" x2="467.29" y2="18.66"/><line class="cls-1" x1="433.97" y1="20.3" x2="447.36" y2="20.3"/><line class="cls-1" x1="347.08" y1="16.76" x2="447.51" y2="16.76"/><line class="cls-1" x1="347.08" y1="13.21" x2="447.66" y2="13.21"/><line class="cls-1" x1="347.08" y1="9.67" x2="411.69" y2="9.67"/><line class="cls-1" x1="446.03" y1="20.76" x2="446.03" y2="10.83"/><line class="cls-1" x1="442.49" y1="20.62" x2="442.49" y2="10.69"/><line class="cls-1" x1="438.94" y1="20.48" x2="438.94" y2="10.55"/><line class="cls-1" x1="435.4" y1="20.35" x2="435.4" y2="10.42"/><line class="cls-1" x1="431.86" y1="20.22" x2="431.86" y2="10.3"/><line class="cls-1" x1="428.31" y1="20.1" x2="428.31" y2="10.18"/><line class="cls-1" x1="424.77" y1="19.99" x2="424.77" y2="10.06"/><line class="cls-1" x1="421.23" y1="19.87" x2="421.23" y2="9.95"/><line class="cls-1" x1="417.68" y1="19.77" x2="417.68" y2="9.84"/><line class="cls-1" x1="414.14" y1="19.66" x2="414.14" y2="9.74"/><line class="cls-1" x1="410.6" y1="19.56" x2="410.6" y2="9.64"/><line class="cls-1" x1="407.05" y1="19.47" x2="407.05" y2="9.55"/><line class="cls-1" x1="403.51" y1="19.38" x2="403.51" y2="9.46"/><line class="cls-1" x1="399.97" y1="19.3" x2="399.97" y2="9.37"/><line class="cls-1" x1="396.42" y1="19.22" x2="396.42" y2="9.29"/><line class="cls-1" x1="392.88" y1="19.14" x2="392.88" y2="9.22"/><line class="cls-1" x1="389.34" y1="19.07" x2="389.34" y2="9.15"/><line class="cls-1" x1="385.79" y1="19" x2="385.79" y2="9.08"/><line class="cls-1" x1="382.25" y1="18.94" x2="382.25" y2="9.02"/><line class="cls-1" x1="378.71" y1="18.89" x2="378.71" y2="8.96"/><line class="cls-1" x1="375.16" y1="18.83" x2="375.16" y2="8.91"/><line class="cls-1" x1="371.62" y1="18.79" x2="371.62" y2="8.86"/><line class="cls-1" x1="368.08" y1="18.74" x2="368.08" y2="8.82"/><line class="cls-1" x1="364.53" y1="18.71" x2="364.53" y2="8.78"/><line class="cls-1" x1="360.99" y1="18.67" x2="360.99" y2="8.75"/><line class="cls-1" x1="357.45" y1="18.64" x2="357.45" y2="8.72"/><line class="cls-1" x1="353.9" y1="18.62" x2="353.9" y2="8.7"/><line class="cls-1" x1="350.36" y1="18.6" x2="350.36" y2="8.68"/><line class="cls-1" x1="662.06" y1="38.02" x2="668.43" y2="38.02"/><line class="cls-1" x1="630.96" y1="34.47" x2="670.35" y2="34.47"/><line class="cls-1" x1="596.15" y1="30.93" x2="672.28" y2="30.93"/><line class="cls-1" x1="555.86" y1="27.39" x2="656.66" y2="27.39"/><line class="cls-1" x1="550.91" y1="23.84" x2="624.86" y2="23.84"/><line class="cls-1" x1="551.18" y1="20.3" x2="589.06" y2="20.3"/><line class="cls-1" x1="669.26" y1="36.49" x2="669.26" y2="28.89"/><line class="cls-1" x1="665.71" y1="38.46" x2="665.71" y2="28.46"/><line class="cls-1" x1="662.17" y1="38.03" x2="662.17" y2="28.04"/><line class="cls-1" x1="658.63" y1="37.61" x2="658.63" y2="27.62"/><line class="cls-1" x1="655.09" y1="37.19" x2="655.09" y2="27.2"/><line class="cls-1" x1="651.54" y1="36.78" x2="651.54" y2="26.79"/><line class="cls-1" x1="648" y1="36.37" x2="648" y2="26.38"/><line class="cls-1" x1="644.46" y1="35.97" x2="644.46" y2="25.98"/><line class="cls-1" x1="640.91" y1="35.57" x2="640.91" y2="25.58"/><line class="cls-1" x1="637.37" y1="35.17" x2="637.37" y2="25.19"/><line class="cls-1" x1="633.83" y1="34.78" x2="633.83" y2="24.8"/><line class="cls-1" x1="630.28" y1="34.4" x2="630.28" y2="24.42"/><line class="cls-1" x1="626.74" y1="34.02" x2="626.74" y2="24.04"/><line class="cls-1" x1="623.2" y1="33.64" x2="623.2" y2="23.67"/><line class="cls-1" x1="619.65" y1="33.27" x2="619.65" y2="23.3"/><line class="cls-1" x1="616.11" y1="32.91" x2="616.11" y2="22.93"/><line class="cls-1" x1="612.57" y1="32.54" x2="612.57" y2="22.57"/><line class="cls-1" x1="609.02" y1="32.19" x2="609.02" y2="22.22"/><line class="cls-1" x1="605.48" y1="31.83" x2="605.48" y2="21.87"/><line class="cls-1" x1="601.94" y1="31.49" x2="601.94" y2="21.52"/><line class="cls-1" x1="598.39" y1="31.14" x2="598.39" y2="21.18"/><line class="cls-1" x1="594.85" y1="30.81" x2="594.85" y2="20.84"/><line class="cls-1" x1="591.31" y1="30.47" x2="591.31" y2="20.51"/><line class="cls-1" x1="587.76" y1="30.14" x2="587.76" y2="20.18"/><line class="cls-1" x1="584.22" y1="29.82" x2="584.22" y2="19.86"/><line class="cls-1" x1="580.68" y1="29.5" x2="580.68" y2="19.54"/><line class="cls-1" x1="577.13" y1="29.18" x2="577.13" y2="19.22"/><line class="cls-1" x1="573.59" y1="28.87" x2="573.59" y2="18.91"/><line class="cls-1" x1="570.05" y1="28.57" x2="570.05" y2="18.61"/><line class="cls-1" x1="566.5" y1="28.26" x2="566.5" y2="18.31"/><line class="cls-1" x1="562.96" y1="27.97" x2="562.96" y2="18.01"/><line class="cls-1" x1="559.42" y1="27.67" x2="559.42" y2="17.72"/><line class="cls-1" x1="555.87" y1="27.39" x2="555.87" y2="17.43"/><line class="cls-1" x1="552.33" y1="27.1" x2="552.33" y2="17.15"/><path class="cls-1" d="M700.55,176.49Q646.9,170.15,593,165.91" transform="translate(-42.32 -138.93)"/><line class="cls-1" x1="550.67" y1="26.97" x2="551.42" y2="17.08"/><path class="cls-1" d="M593.75,156q61,4.8,121.7,12.29" transform="translate(-42.32 -138.93)"/><path class="cls-1" d="M715.45,168.3q-2.55,4.68-5.08,9.37" transform="translate(-42.32 -138.93)"/><path class="cls-1" d="M710.37,177.67l-9.82-1.18" transform="translate(-42.32 -138.93)"/><line class="cls-1" x1="347.08" y1="18.59" x2="347.08" y2="8.66"/><path class="cls-1" d="M389.4,147.6q50.36.18,100.69,2.23" transform="translate(-42.32 -138.93)"/><line class="cls-1" x1="447.76" y1="10.9" x2="447.34" y2="20.81"/><path class="cls-1" d="M489.66,159.74q-50.1-2-100.26-2.22" transform="translate(-42.32 -138.93)"/><line class="cls-1" x1="531.63" y1="15.6" x2="530.89" y2="25.49"/><path class="cls-1" d="M573.21,164.42q-31.83-2.26-63.72-3.8" transform="translate(-42.32 -138.93)"/><line class="cls-1" x1="467.16" y1="21.69" x2="467.58" y2="11.78"/><path class="cls-1" d="M509.91,150.71q32,1.53,64.05,3.82" transform="translate(-42.32 -138.93)"/><line class="cls-1" x1="143.42" y1="25.49" x2="142.68" y2="15.6"/><path class="cls-1" d="M185,154.53q32-2.28,64.05-3.82" transform="translate(-42.32 -138.93)"/><line class="cls-1" x1="206.73" y1="11.78" x2="207.15" y2="21.69"/><path class="cls-1" d="M249.48,160.62q-31.89,1.53-63.73,3.8" transform="translate(-42.32 -138.93)"/><line class="cls-1" x1="327.24" y1="8.66" x2="327.24" y2="18.59"/><path class="cls-1" d="M369.56,157.52q-50.15.18-100.26,2.22" transform="translate(-42.32 -138.93)"/><line class="cls-1" x1="226.98" y1="20.81" x2="226.55" y2="10.9"/><path class="cls-1" d="M268.88,149.83q50.31-2,100.68-2.23" transform="translate(-42.32 -138.93)"/><path class="cls-1" d="M166,165.91q-53.88,4.23-107.55,10.58" transform="translate(-42.32 -138.93)"/><path class="cls-1" d="M58.41,176.49l-9.82,1.18" transform="translate(-42.32 -138.93)"/><path class="cls-1" d="M48.59,177.67q-2.52-4.69-5.08-9.37" transform="translate(-42.32 -138.93)"/><path class="cls-1" d="M43.51,168.3Q104.2,160.82,165.22,156" transform="translate(-42.32 -138.93)"/><line class="cls-1" x1="122.89" y1="17.08" x2="123.64" y2="26.97"/></g></svg>