<svg xmlns="http://www.w3.org/2000/svg" xmlns:xlink="http://www.w3.org/1999/xlink" viewBox="0 0 31 31">
  <defs>
    <style>
      .cls-1 {
        fill: #707070;
      }

      .cls-2 {
        clip-path: url(#clip-path);
      }

      .cls-3, .cls-5 {
        fill: none;
      }

      .cls-3 {
        stroke: #707070;
      }

      .cls-4 {
        stroke: none;
      }
    </style>
    <clipPath id="clip-path">
      <rect id="Rectangle_137" data-name="Rectangle 137" class="cls-1" width="15.151" height="28.234"/>
    </clipPath>
  </defs>
  <g id="bewertung-voteup" transform="translate(-72.138 -866)">
    <g id="Mask_Group_11" data-name="Mask Group 11" class="cls-2" transform="translate(80.145 866.733)">
      <path id="thumbs-up-regular" class="cls-1" d="M14.717,9.049a2.985,2.985,0,0,0,.433-1.573,2.747,2.747,0,0,0-2.709-2.7H11.29a4.03,4.03,0,0,0,.279-1.469C11.57,1.008,10.38,0,8.563,0,6.618,0,6.729,3,6.3,3.428c-.718.718-1.566,2.1-2.17,2.632H1.01A1.01,1.01,0,0,0,0,7.07v7.575a1.01,1.01,0,0,0,1.01,1.01H3.03a1.01,1.01,0,0,0,.978-.756c1.4.032,2.369,1.261,5.612,1.261h.7c2.434,0,3.535-1.244,3.565-3.009a3.043,3.043,0,0,0,.547-2.114A2.931,2.931,0,0,0,14.717,9.049Zm-1.949,1.7a1.4,1.4,0,0,1-.44,1.817c.243,1.54-.556,2.08-1.677,2.08H9.458c-2.261,0-3.725-1.194-5.418-1.194V7.575h.345c.9,0,2.146-2.238,2.984-3.076.9-.9.6-2.387,1.194-2.984,1.492,0,1.492,1.041,1.492,1.791,0,1.236-.9,1.79-.9,2.984h3.282a1.233,1.233,0,0,1,1.194,1.194c0,.6-.4,1.193-.7,1.193a1.516,1.516,0,0,1-.164,2.071ZM2.778,13.636a.758.758,0,1,1-.758-.758A.758.758,0,0,1,2.778,13.636Z" transform="translate(0 6.037)"/>
    </g>
    <g id="Ellipse_12" data-name="Ellipse 12" class="cls-3" transform="translate(72.138 866)">
      <circle class="cls-4" cx="15.5" cy="15.5" r="15.5"/>
      <circle class="cls-5" cx="15.5" cy="15.5" r="15"/>
    </g>
  </g>
</svg>
